<svg xmlns="http://www.w3.org/2000/svg" viewBox="0 0 151.794 61.04"><defs><style>.a{fill:#c7c9c9;}</style></defs><path class="a" d="M14.509,58.033c.251.418,7.517-3.007,6.932-8.686-.585-5.93-2.673-7.35-2.673-7.35a15.627,15.627,0,0,1-7.6.418,22.232,22.232,0,0,1-4.844-1.42c-1-.251.167,1.169.919,1.837a8.827,8.827,0,0,0,4.009,1.67,35.139,35.139,0,0,0,5.512.5,14.879,14.879,0,0,1,1.67,6.014C18.434,54.024,14.174,57.615,14.509,58.033Z" transform="translate(-1.171 -6.834)"/><path class="a" d="M21.42,35.487c.084-.418-.5,0-2.923-.835-1.587-.585-3.09-2-5.763-2.673-5.178-1.253-7.6.334-8.269,1-.251.167-.251-.835.919-2,3.007-3.09,8.352-3.007,10.357-3.007a11.6,11.6,0,0,1,6.431-6.6c2.088-.835,6.6-.585,9.688-.585s6.014-.251,8.185.5c6.431,2.255,3.675,8.269,6.849,12.111,2.506,3.09,6.849,2.84,6.849,2.506,0-.668-4.26-1.5-5.262-7.767-.752-4.51-1.837-7.767-7.016-9.772-2.172-.835-6.348-.668-9.438-.668s-7.684-.084-9.855.752c-5.178,2.088-6.264,6.431-7.1,6.515a22.645,22.645,0,0,0-8.018,1.921,9.928,9.928,0,0,0-5.846,6.181C.539,34.736-.129,37.909.456,38.16c.418.251,2.589-2.506,5.429-3.591a10.322,10.322,0,0,1,8.436.334C18.162,36.657,21.253,36.155,21.42,35.487Z" transform="translate(-0.232 -2.998)"/><path class="a" d="M22.109,19.861a30.045,30.045,0,0,0,.752-5.93,12.673,12.673,0,0,0-1.086-5.345c-.5-1.336-1-1.5-.752-1.67.418-.251,1.5.084,2.422.835a17.381,17.381,0,0,1,2.422,2.255c.585.668.251-2.506-1.754-4.093-2.589-2.088-7.6-1.336-8.018-1.253-.334.084,3.257,2.84,4.26,6.765.752,3.007.585,9.02.585,9.02Z" transform="translate(-2.842 -0.819)"/><path class="a" d="M51.607,19.861a30.045,30.045,0,0,1-.752-5.93,12.673,12.673,0,0,1,1.086-5.345c.5-1.336,1-1.5.752-1.67-.418-.251-1.5.084-2.422.835a17.381,17.381,0,0,0-2.422,2.255c-.585.668-.251-2.506,1.754-4.093,2.589-2.088,7.6-1.336,8.018-1.253.334.084-3.257,2.84-4.26,6.765-.752,3.007-.585,9.02-.585,9.02Z" transform="translate(-8.036 -0.819)"/><path class="a" d="M36.532,3.357A5.386,5.386,0,0,1,39.2,4.944c1.42,1.336,4.176,5.178,4.176,4.093a11.061,11.061,0,0,0-2.506-5.6C39.873,2.272,37.869.267,36.532.1h-.084c-1.336.167-3.341,2.172-4.343,3.341a11.361,11.361,0,0,0-2.506,5.6c0,1.086,2.756-2.756,4.176-4.093a6.1,6.1,0,0,1,2.673-1.587Z" transform="translate(-5.071 -0.1)"/><path class="a" d="M26.078,25.9s1.42,1.086,4.427.752c2.088-.251,2.756-1.086,4.928-.418,2.255.668,2.756,3.341,2.339,3.174-.5-.167-3.508-1.67-6.431-1.086C28.5,28.99,25.326,28.489,26.078,25.9Z" transform="translate(-4.472 -4.352)"/><g transform="translate(34.604 8.853)"><path class="a" d="M45.285,14.876a3.685,3.685,0,0,1-2.756-1.169c-.835-.835-1.086-3.007-.668-3.007a3.7,3.7,0,0,0,3.424,2.339Z" transform="translate(-41.662 -10.7)"/></g><g transform="translate(24.696 8.853)"><path class="a" d="M29.8,14.876a3.685,3.685,0,0,0,2.756-1.169c.835-.835,1.086-3.007.668-3.007A3.7,3.7,0,0,1,29.8,13.039v1.837Z" transform="translate(-29.8 -10.7)"/></g><path class="a" d="M34.594,28.458a1.784,1.784,0,0,0-.668-1.42,4.391,4.391,0,0,0-3.257,0,2.091,2.091,0,0,0-.668,1.5,2.161,2.161,0,0,0,2.255,2.088A2.366,2.366,0,0,0,34.594,28.458Z" transform="translate(-5.137 -4.487)"/><path class="a" d="M62.588,69.5c-.084-.251-4.093-2.172-4.093-5.6V59.723c0-1-.084-3.341-1-4.51-1.42-1.754-4.51-1.5-4.594-1.336-.084.251,2.339,1.42,2.339,3.591v5.6s-.251,3.341,1.42,5.095C58.746,70.5,62.672,69.746,62.588,69.5Z" transform="translate(-8.91 -8.942)"/><path class="a" d="M61.888,50.717C61.8,50.467,57.8,48.88,57.8,45.539v-1a5.419,5.419,0,0,0-1-3.508c-1.42-1.67-4.51-1.42-4.594-1.253-.084.251,2.339,1.336,2.339,3.424v1.336s-.251,3.174,1.42,4.844C58.046,51.636,61.972,50.968,61.888,50.717Z" transform="translate(-8.795 -6.618)"/><g transform="translate(69.881 27.478)"><g transform="translate(0)"><path class="a" d="M89.914,40.767c-.585,0-.668-.084-1.42-1.086l-2.172-2.756v2.422c0,.668.084.752.5.835.334.084.334.084.334.167v.084l-.084.167c-.084.084-.084.167-.251.167H84.151c-.167,0-.251,0-.251-.084V40.6l.084-.167c0-.084.084-.167.251-.167.418-.084.5-.251.5-.835V34.42c0-.668-.084-.752-.5-.835-.251-.084-.251-.084-.251-.167v-.084l.084-.167c0-.084.084-.167.251-.167H86.99c.167,0,.251,0,.251.084v.084l-.084.167c-.084.084-.084.167-.251.167-.418.084-.5.334-.5.919v2.172L89.329,33h1.336v.251c0,.167,0,.167-.5.418-.334.167-.418.251-1,.919l-1.5,1.754c2.589,3.09,3.007,3.591,3.508,4.093v.334H89.914Z" transform="translate(-83.9 -33)"/><path class="a" d="M98.344,40.949c-.251,0-.334,0-.418-.251l-1.5-2.673h-.835V39.7c0,.585,0,.668.418.752.334.084.334.084.334.167V40.7l-.084.167c0,.084-.084.084-.251.084H93.667c-.167,0-.167,0-.167-.084v-.084l.084-.167c0-.084.084-.167.251-.167.334-.084.418-.251.418-.752V35.353c0-.585-.084-.668-.418-.752-.251-.084-.334-.084-.334-.167v-.251c0-.084.084-.084.251-.084h2.923c.835,0,1.253.084,1.587.418a1.557,1.557,0,0,1,.585,1.336,2.062,2.062,0,0,1-1.253,1.921c1.169,1.921,1.754,2.756,2.088,2.923v.251H98.344Zm-1.253-5.93a1.207,1.207,0,0,0-.919-.251h-.752v2.756h.585a1.043,1.043,0,0,0,1-.418,1.652,1.652,0,0,0,.418-1.169A1.041,1.041,0,0,0,97.091,35.019Z" transform="translate(-85.482 -33.181)"/><path class="a" d="M108.732,40.665l-.084.167c0,.084-.084.084-.251.084h-2.255c-.167,0-.167,0-.167-.084h0l.084-.167c0-.084.084-.084.167-.167.251-.167.334-.167.334-.334,0-.084,0-.167-.167-.5l-.251-.752h-2.422l-.334,1c-.084.167-.084.167-.084.251,0,.167.167.251.334.334a.292.292,0,0,1,.167.084v.167c0,.084-.084.084-.251.084h-1.5c-.167,0-.251,0-.251-.084v-.084l.084-.167a.082.082,0,0,1,.084-.084.307.307,0,0,0,.251-.084c.334-.084.418-.251.668-.919l1.5-3.758a2.582,2.582,0,0,0,.167-.668c0-.334-.167-.5-.668-.585a.292.292,0,0,1-.167-.084v-.084l.084-.167c0-.084.084-.167.334-.167h1.5c.167,0,.167,0,.251.084,0,.084,0,.084.251.752.585,1.67,1.253,3.341,1.754,4.51.334.835.334.835.835,1a.652.652,0,0,0,0,.418Zm-3.842-5.011-1,2.673h2Z" transform="translate(-86.85 -33.148)"/><path class="a" d="M113.723,34.367l-.084.167c0,.084-.084.084-.251.167-.334.084-.418.251-.418.752v4.761c0,1.169-.167,1.67-.668,2.088a1.965,1.965,0,0,1-1.42.5v-.5a1.159,1.159,0,0,0,.585-.668,3.5,3.5,0,0,0,.084-1.253V35.453c0-.585,0-.668-.418-.752-.334-.084-.334-.084-.334-.167v-.084l.084-.167c0-.084.084-.084.251-.084h2.339c.251,0,.251,0,.251.167Z" transform="translate(-88.333 -33.198)"/><path class="a" d="M119.024,41.116a3.387,3.387,0,0,1-3.424-3.424,3.534,3.534,0,0,1,3.675-3.591,3.318,3.318,0,0,1,3.341,3.424A3.565,3.565,0,0,1,119.024,41.116Zm.084-6.431c-1.253,0-2.088,1.086-2.088,2.756a3.506,3.506,0,0,0,.752,2.422,1.971,1.971,0,0,0,1.336.585,1.662,1.662,0,0,0,1.336-.585,3.535,3.535,0,0,0,.668-2.339C121.2,35.854,120.361,34.685,119.108,34.685Z" transform="translate(-89.124 -33.181)"/><path class="a" d="M135.023,34.375v.167c0,.084-.084.084-.084.167l-.251.084c-.251.084-.334.251-.5.668l-1.67,5.262c-.084.251-.167.334-.251.334h-.585c-.251,0-.251,0-.334-.418l-1.42-4.427-1.5,4.51c-.084.251-.167.334-.251.334h-.5c-.251,0-.251-.084-.334-.418l-1.587-5.011c-.167-.585-.251-.752-.585-.835-.084-.084-.167-.084-.167-.167v-.084l.084-.167c.084-.084.084-.084.251-.084h2.255c.167,0,.167,0,.167.084v.084l-.084.167c-.084.167-.084.167-.334.251a.426.426,0,0,0-.334.418c0,.084,0,.084.084.334l1.169,4.009,1.67-5.011c.084-.251.084-.251.251-.251h.5c.084,0,.167,0,.167.251l1.5,5.011,1.253-3.925c.084-.251.084-.251.084-.334q0-.376-.5-.5a.18.18,0,0,1-.167-.167v-.084l.084-.167c0-.084.084-.084.251-.084h1.67Z" transform="translate(-90.673 -33.206)"/><path class="a" d="M143.632,40.665l-.084.167c0,.084-.084.084-.251.084h-2.172c-.084,0-.167,0-.167-.084h0l.084-.167c0-.084.084-.084.167-.167.251-.167.334-.167.334-.334,0-.084,0-.167-.167-.5l-.251-.752h-2.506l-.334,1c-.084.167-.084.167-.084.251,0,.167.167.251.334.334a.292.292,0,0,1,.167.084v.167c0,.084-.084.084-.251.084h-1.5c-.167,0-.251,0-.251-.084v-.084l.084-.167a.082.082,0,0,1,.084-.084.307.307,0,0,0,.251-.084c.334-.084.418-.251.668-.919l1.5-3.758a2.581,2.581,0,0,0,.167-.668c0-.334-.167-.5-.668-.585a.292.292,0,0,1-.167-.084v-.084l.084-.167c0-.084.084-.167.334-.167h1.5c.167,0,.167,0,.251.084,0,.084,0,.084.251.752.585,1.67,1.253,3.341,1.754,4.51.334.835.334.835.835,1a.652.652,0,0,0,0,.418Zm-3.842-5.011-1,2.673h2Z" transform="translate(-92.601 -33.148)"/><path class="a" d="M151.657,33.184l-.084.167c-.084.084-.084.167-.251.167-.418.084-.5.251-.5.919v5.011c0,.668.084.752.5.835.334.084.334.084.334.167v.084l-.084.167c0,.084-.084.167-.251.167h-2.673c-.167,0-.251,0-.251-.084V40.7l.084-.167c0-.084.084-.167.251-.167.418-.084.5-.251.5-.835V34.52c0-.668-.084-.752-.5-.835-.334-.084-.334-.084-.334-.167v-.084l.084-.167c0-.084.084-.167.251-.167h2.673c.167,0,.251,0,.251.084Z" transform="translate(-94.529 -33.016)"/><path class="a" d="M158.911,40.949h-4.761l-.251-.418,3.842-5.763h-2.088a.828.828,0,0,0-.919.668,1.034,1.034,0,0,1-.167.251.082.082,0,0,1-.084-.084l-.167-.167c0-.084-.084-.084-.084-.251v-.752c0-.251.084-.334.418-.334h4.594v.334L155.4,40.2h2.506a1.013,1.013,0,0,0,1.086-.668,1.034,1.034,0,0,1,.167-.251h0l.167.084c.084,0,.084.084.084.167v.919C159.5,40.865,159.412,40.949,158.911,40.949Z" transform="translate(-95.435 -33.181)"/><path class="a" d="M164.723,41.132a5.08,5.08,0,0,1-1.837-.251c-.251-.084-.251-.251-.251-.668V35.369c0-.5-.084-.668-.5-.752-.334-.084-.334-.084-.334-.167v-.084l.084-.084c0-.084.084-.084.251-.084h2.756a2.483,2.483,0,0,1,1.587.334,1.461,1.461,0,0,1,.585,1.169c0,.752-.5,1.253-1.42,1.587a3.334,3.334,0,0,1,1.086.334,1.866,1.866,0,0,1,.835,1.5C167.563,40.381,166.477,41.132,164.723,41.132Zm.668-6.181c-.167-.167-.418-.167-.835-.167h-.668v2.339h.5a1.109,1.109,0,0,0,.835-.251,1.191,1.191,0,0,0,.5-1A1.041,1.041,0,0,0,165.391,34.952Zm0,2.923a1.606,1.606,0,0,0-1-.251h-.5v1.754c0,.5.084.668.251.835a1.021,1.021,0,0,0,.752.251,1.208,1.208,0,0,0,1.253-1.336A1.378,1.378,0,0,0,165.391,37.875Z" transform="translate(-96.737 -33.198)"/><path class="a" d="M176.449,40.665l-.084.167c0,.084-.084.084-.251.084h-2.172c-.167,0-.167,0-.167-.084h0l.084-.167c0-.084.084-.084.167-.167.251-.167.334-.167.334-.334,0-.084,0-.167-.167-.5l-.251-.752h-2.422l-.334,1c-.084.167-.084.167-.084.251,0,.167.167.251.334.334a.292.292,0,0,1,.167.084v.167c0,.084-.084.084-.251.084h-1.5c-.167,0-.251,0-.251-.084v-.084l.084-.167a.082.082,0,0,1,.084-.084.307.307,0,0,0,.251-.084c.334-.084.418-.251.668-.919l1.5-3.758a2.582,2.582,0,0,0,.167-.668c0-.334-.167-.5-.668-.585a.292.292,0,0,1-.167-.084v-.084l.084-.167c0-.084.084-.167.334-.167h1.5c.167,0,.167,0,.251.084,0,.084,0,.084.251.752.585,1.67,1.253,3.341,1.754,4.51.334.835.334.835.835,1a1.118,1.118,0,0,0-.084.418Zm-3.758-5.011-1,2.673h2Z" transform="translate(-98.022 -33.148)"/></g><path class="a" d="M90.348,55.483a5.24,5.24,0,0,1-2.923.752,7.231,7.231,0,0,1-2.255-.251c-.251-.084-.334-.251-.334-.919V49.72a1.412,1.412,0,0,0-.167-.752c-.084-.084-.167-.084-.585-.251-.084.167-.084.084-.084,0v-.084l.084-.167c0-.084.084-.167.334-.167h3.257a4.864,4.864,0,0,1,3.007.668,3.254,3.254,0,0,1,1.42,2.923A4.017,4.017,0,0,1,90.348,55.483Zm-1.086-6.1a3.923,3.923,0,0,0-2-.334h-.835v5.011c0,.835.084,1.086.334,1.253a1.9,1.9,0,0,0,1.086.251c1.67,0,2.589-1.253,2.589-3.424C90.431,50.722,90.1,49.8,89.262,49.386Z" transform="translate(-83.916 -35.521)"/><path class="a" d="M98.324,56.516A3.387,3.387,0,0,1,94.9,53.091,3.534,3.534,0,0,1,98.575,49.5a3.318,3.318,0,0,1,3.341,3.424A3.618,3.618,0,0,1,98.324,56.516Zm.084-6.431c-1.253,0-2.088,1.086-2.088,2.756a3.506,3.506,0,0,0,.752,2.422,1.971,1.971,0,0,0,1.336.585,1.662,1.662,0,0,0,1.336-.585,3.535,3.535,0,0,0,.668-2.339C100.5,51.17,99.661,50.085,98.408,50.085Z" transform="translate(-85.713 -35.719)"/><path class="a" d="M109.544,56.349c-.251,0-.334,0-.418-.251l-1.5-2.673h-.835V55.1c0,.585,0,.668.418.752.334.084.334.084.334.167V56.1l-.084.167c0,.084-.084.084-.251.084h-2.339c-.167,0-.167,0-.167-.084v-.084l.084-.167c0-.084.084-.084.251-.167.334-.084.418-.251.418-.752V50.753c0-.585-.084-.668-.418-.752-.251-.084-.334-.084-.334-.167v-.251c0-.084.084-.084.251-.084h2.923c.835,0,1.253.084,1.587.418a1.558,1.558,0,0,1,.585,1.336,2.062,2.062,0,0,1-1.253,1.921c1.169,1.921,1.754,2.756,2.088,2.923v.251Zm-1.253-6.014a1.207,1.207,0,0,0-.919-.251h-.752v2.756h.585a1.043,1.043,0,0,0,1-.418,1.652,1.652,0,0,0,.418-1.169A.994.994,0,0,0,108.291,50.335Z" transform="translate(-87.328 -35.719)"/><path class="a" d="M119.632,56.082l-.084.167c0,.084-.084.084-.251.084h-2.172c-.167,0-.167,0-.167-.084h0l.084-.167c0-.084.084-.084.167-.167.251-.167.334-.167.334-.334,0-.084,0-.167-.167-.5l-.251-.752h-2.506l-.334,1c-.084.167-.084.167-.084.251,0,.167.167.251.334.334A.292.292,0,0,1,114.7,56v.167c0,.084-.084.084-.251.084h-1.5c-.167,0-.251,0-.251-.084v-.084l.084-.167a.082.082,0,0,1,.084-.084.307.307,0,0,0,.251-.084c.334-.084.418-.251.668-.919l1.5-3.758a2.582,2.582,0,0,0,.167-.668c0-.334-.167-.5-.668-.585a.292.292,0,0,1-.167-.084v-.084l.084-.084c0-.084.084-.167.334-.167h1.5c.167,0,.167,0,.251.084,0,.084,0,.084.251.752.585,1.67,1.253,3.341,1.754,4.51.334.835.334.835.835,1v.334Zm-3.758-5.011-1,2.673h2Z" transform="translate(-88.646 -35.703)"/><path class="a" d="M127.012,55.781a4.13,4.13,0,0,1-2.589.668A5.291,5.291,0,0,1,122.5,56.2c-.251-.084-.251-.167-.251-.835V50.769c0-.418,0-.5-.167-.585-.084-.084-.084-.084-.5-.167-.084,0-.084,0-.084-.084v-.251c0-.084.084-.084.251-.084h2.84a4.7,4.7,0,0,1,2.673.585,2.831,2.831,0,0,1,1.253,2.589A3.47,3.47,0,0,1,127.012,55.781Zm-1-5.345a3.221,3.221,0,0,0-1.754-.251h-.668v4.427c0,.752.084.919.334,1.086a1.5,1.5,0,0,0,.919.251c1.42,0,2.255-1.086,2.255-3.007A2.59,2.59,0,0,0,126.01,50.435Z" transform="translate(-90.096 -35.735)"/><path class="a" d="M137.6,55.33l-.334.668c-.084.167-.167.251-.334.251a3.688,3.688,0,0,1-1.42.167,3.944,3.944,0,0,1-2.673-.835,3.362,3.362,0,0,1-1.336-2.673,3.54,3.54,0,0,1,3.758-3.508,5.471,5.471,0,0,1,2.088.418c.167.084.167.167.167.334v.585c0,.167,0,.167-.084.251l-.167.167h-.084l-.251-.251a1.855,1.855,0,0,0-1.67-.835c-1.42,0-2.255,1-2.255,2.756,0,1.837,1,3.007,2.506,3.007a2.393,2.393,0,0,0,1.67-.668.259.259,0,0,1,.167-.084.18.18,0,0,1,.167.167C137.6,55.246,137.6,55.246,137.6,55.33Z" transform="translate(-91.744 -35.703)"/><path class="a" d="M143.324,56.071a3.387,3.387,0,0,1-3.424-3.424,3.534,3.534,0,0,1,3.675-3.591,3.318,3.318,0,0,1,3.341,3.424A3.618,3.618,0,0,1,143.324,56.071Zm.084-6.431c-1.253,0-2.088,1.086-2.088,2.756a3.506,3.506,0,0,0,.752,2.422,1.971,1.971,0,0,0,1.336.585,1.662,1.662,0,0,0,1.336-.585,3.535,3.535,0,0,0,.668-2.339C145.5,50.725,144.577,49.64,143.408,49.64Zm.919-1.67-1.5.835-.251-.334,1.253-1.169c.5-.5.585-.5.752-.5a.447.447,0,0,1,.418.418C144.995,47.468,144.828,47.635,144.327,47.969Z" transform="translate(-93.128 -35.274)"/><path class="a" d="M159.023,49.775v.167c0,.084-.084.084-.084.167l-.251.084c-.251.084-.334.251-.5.668l-1.67,5.262c-.084.251-.167.334-.251.334h-.585c-.251,0-.251,0-.334-.418l-1.42-4.427-1.5,4.51c-.084.251-.167.334-.251.334h-.5c-.251,0-.251-.084-.334-.418l-1.587-5.011c-.167-.585-.251-.752-.585-.835-.084-.084-.167-.084-.167-.167v-.084l.084-.167c.083-.084.083-.084.251-.084h2.255c.167,0,.167,0,.167.084v.084l-.084.167c-.084.167-.084.167-.334.251a.426.426,0,0,0-.334.418.631.631,0,0,0,.084.334l1.169,4.009,1.67-5.011c.084-.251.084-.251.251-.251h.5c.084,0,.167,0,.167.251l1.5,5.011,1.253-3.926c.084-.251.084-.251.084-.334q0-.376-.5-.5a.18.18,0,0,1-.167-.167v-.084l.084-.167c0-.084.084-.084.251-.084h1.67q0-.251,0,0Z" transform="translate(-94.628 -35.744)"/><g transform="translate(0 25.557)"><path class="a" d="M87.491,67.943h-.418l-.084-.251a.082.082,0,0,0-.084-.084c0-.084,0-.084.251-.084a1.663,1.663,0,0,0,1.42-1.754,1.45,1.45,0,0,0-1.587-1.587h-.668v5.763c0,.668.084.752.5.835.334.084.334.084.334.167v.084l-.084.167c0,.084-.084.167-.251.167H84.151c-.167,0-.251,0-.251-.084V71.2l.084-.167c.084-.084.084-.167.251-.167.418-.084.5-.251.5-.835V65.02c0-.752,0-.752-.752-.919a.082.082,0,0,1-.084-.084v-.084l.084-.167c.084-.084.084-.167.251-.167h3.09a3.417,3.417,0,0,1,2,.418,1.809,1.809,0,0,1,.835,1.587C90.248,66.941,89.162,67.943,87.491,67.943Z" transform="translate(-83.9 -63.6)"/><path class="a" d="M96.124,71.516A3.387,3.387,0,0,1,92.7,68.091,3.534,3.534,0,0,1,96.375,64.5a3.318,3.318,0,0,1,3.341,3.424A3.565,3.565,0,0,1,96.124,71.516Zm.084-6.431c-1.253,0-2.088,1.086-2.088,2.756a3.506,3.506,0,0,0,.752,2.422,1.971,1.971,0,0,0,1.336.585,1.662,1.662,0,0,0,1.336-.585,3.535,3.535,0,0,0,.668-2.339C98.3,66.254,97.461,65.085,96.208,65.085Z" transform="translate(-85.35 -63.748)"/><path class="a" d="M107.912,70.864a4.13,4.13,0,0,1-2.589.668,5.291,5.291,0,0,1-1.921-.251c-.251-.084-.251-.167-.251-.835V65.769c0-.418,0-.5-.167-.585-.084-.084-.084-.084-.5-.167-.084,0-.084,0-.084-.084v-.251c0-.084.084-.084.251-.084h2.84a4.7,4.7,0,0,1,2.673.585,2.831,2.831,0,0,1,1.253,2.589A3.339,3.339,0,0,1,107.912,70.864Zm-.919-5.345a3.221,3.221,0,0,0-1.754-.251h-.752v4.427c0,.752.084.919.334,1.086a1.5,1.5,0,0,0,.919.251c1.42,0,2.255-1.086,2.255-3.007Q108,66.02,106.994,65.519Z" transform="translate(-86.949 -63.765)"/><path class="a" d="M118.249,71.182l-.084.167c0,.084-.084.084-.251.084h-2.172c-.167,0-.167,0-.167-.084h0l.084-.167c0-.084.084-.084.167-.167.251-.167.334-.167.334-.334,0-.084,0-.167-.167-.5l-.251-.752h-2.422l-.334,1c-.084.167-.084.167-.084.251,0,.167.167.251.334.334a.292.292,0,0,1,.167.084v.167c0,.084-.084.084-.251.084h-1.5c-.167,0-.251,0-.251-.084v-.084l.084-.167a.082.082,0,0,1,.084-.084.307.307,0,0,0,.251-.084c.334-.084.418-.251.668-.919l1.5-3.675a2.582,2.582,0,0,0,.167-.668c0-.334-.167-.5-.668-.585a.292.292,0,0,1-.167-.084v-.084l.084-.167c0-.084.084-.167.334-.167h1.5c.167,0,.167,0,.251.084,0,.084,0,.084.251.752.585,1.67,1.253,3.341,1.754,4.51.334.835.334.835.835,1-.167.084-.084.167-.084.334Zm-3.842-5.095-1,2.673h2Z" transform="translate(-88.432 -63.748)"/><path class="a" d="M125.3,64.785l-.167.251c-.084.167-.167.167-.5.167h-1.67V70.13c0,.585,0,.668.418.752.251.084.334.084.334.167V71.3c0,.084-.084.084-.251.084h-2.339c-.167,0-.167,0-.167-.084v-.084l.084-.167c0-.084.084-.167.251-.167.334-.084.418-.251.418-.752V65.2h-2.088c-.251,0-.418,0-.418-.167a.259.259,0,0,1,.084-.167l.334-.585a.082.082,0,0,1,.084-.084h.084c.418.251.668.251,1.67.251h3.675c.334,0,.334,0,.334.084C125.3,64.7,125.3,64.7,125.3,64.785Z" transform="translate(-89.717 -63.699)"/><path class="a" d="M132.878,71.449c-.5,0-.585-.084-1.253-.919l-1.837-2.422V70.2c0,.585,0,.668.418.752.334.084.334.084.334.167V71.2l-.084.167c0,.084-.084.084-.251.084h-2.339c-.167,0-.167,0-.167-.084v-.084l.084-.167c0-.084.084-.167.251-.167.334-.084.418-.251.418-.752V65.853c0-.585,0-.668-.418-.752-.334-.084-.334-.084-.334-.167v-.251c0-.084.084-.084.251-.084h2.339c.167,0,.167,0,.167.084v.251c0,.084-.084.084-.251.167-.334.084-.418.251-.418.752v1.921l2.589-3.174h1.169v.167c0,.167,0,.167-.418.418-.334.167-.334.251-.835.835l-1.336,1.587c2.255,2.756,2.589,3.174,3.09,3.508v.251h-1.169Z" transform="translate(-91.118 -63.765)"/><path class="a" d="M139.124,71.516a3.387,3.387,0,0,1-3.424-3.424,3.534,3.534,0,0,1,3.675-3.591,3.318,3.318,0,0,1,3.341,3.424A3.565,3.565,0,0,1,139.124,71.516Zm.167-6.431c-1.253,0-2.088,1.086-2.088,2.756a3.506,3.506,0,0,0,.752,2.422,1.971,1.971,0,0,0,1.336.585,1.662,1.662,0,0,0,1.336-.585,3.535,3.535,0,0,0,.668-2.339C141.3,66.254,140.461,65.085,139.291,65.085Z" transform="translate(-92.436 -63.748)"/><path class="a" d="M154.839,64.775v.167c0,.084-.084.084-.084.167l-.251.084c-.251.084-.334.251-.5.668l-1.67,5.262c-.084.251-.167.334-.251.334h-.5c-.251,0-.251,0-.334-.418l-1.42-4.427-1.5,4.51c-.084.251-.167.334-.251.334h-.5c-.251,0-.251-.084-.334-.418l-1.587-5.011c-.167-.585-.251-.752-.585-.835-.084-.084-.167-.084-.167-.167v-.084l.084-.167c.084-.084.084-.084.251-.084h2.255c.167,0,.167,0,.167.084v.084l-.084.167c-.084.167-.084.167-.334.251a.426.426,0,0,0-.334.418.631.631,0,0,0,.084.334l1.169,4.009,1.67-5.011c.084-.251.084-.251.251-.251h.5c.084,0,.167,0,.167.251l1.5,5.011,1.253-3.925c.084-.251.084-.251.084-.334q0-.376-.5-.5a.18.18,0,0,1-.167-.167v-.084l.084-.167c0-.084.084-.084.251-.084h1.67c-.084-.167,0-.167-.084,0C154.923,64.692,154.923,64.775,154.839,64.775Z" transform="translate(-93.952 -63.773)"/><path class="a" d="M163.514,64.767v.084a.292.292,0,0,1-.084.167.841.841,0,0,1-.251.084c-.251.084-.334.251-.585.752l-1.253,2.255a2.088,2.088,0,0,0-.334,1.169v1c0,.668,0,.668.668.835.084,0,.084,0,.084.084v.084l-.084.167c0,.084-.084.084-.251.084h-2.339c-.167,0-.167,0-.167-.084v-.084L159,71.2c0-.084.084-.167.251-.167.334-.084.418-.251.418-.752V68.86L158.335,66.1c-.084-.167-.167-.418-.251-.585-.167-.251-.167-.251-.5-.418l-.084-.084v-.084l.084-.167c0-.084.084-.084.334-.084h1.921c.251,0,.251,0,.251.084h0v.167c0,.084,0,.084-.084.167-.084,0-.084.084-.167.084-.167.084-.167.167-.167.334s.084.251.167.5l1.086,2.172,1.336-2.422c.084-.167.167-.251.167-.418s-.084-.167-.418-.334a.082.082,0,0,1-.084-.084v-.084l.084-.167c0-.084.084-.084.251-.084h1.42c-.251,0-.167,0-.167.167Z" transform="translate(-96.028 -63.765)"/><path class="a" d="M170.8,70.43l-.334.668c-.084.167-.167.251-.334.251a3.688,3.688,0,0,1-1.42.167,3.944,3.944,0,0,1-2.673-.835,3.363,3.363,0,0,1-1.336-2.673,3.54,3.54,0,0,1,3.758-3.508,5.471,5.471,0,0,1,2.088.418c.167.084.167.167.167.334v.5c0,.167,0,.167-.084.251l-.167.167h-.084l-.251-.251a1.855,1.855,0,0,0-1.67-.835c-1.42,0-2.255,1-2.255,2.756,0,1.837,1,3.007,2.506,3.007a2.393,2.393,0,0,0,1.67-.668.259.259,0,0,1,.167-.084.18.18,0,0,1,.167.167C170.881,70.263,170.881,70.263,170.8,70.43Z" transform="translate(-97.215 -63.748)"/><path class="a" d="M180.532,64.767l-.084.167c0,.084-.084.084-.251.167-.334.084-.418.251-.418.752V70.2c0,.585,0,.668.418.752.334.084.334.084.334.167V71.2l-.084.167c0,.084-.084.084-.251.084H177.86c-.167,0-.167,0-.167-.084v-.084l.084-.167c0-.084.084-.167.251-.167.334-.084.418-.251.418-.752V68.024H175.6V70.2c0,.585,0,.668.418.752.251.084.334.084.334.167v.251c0,.084-.084.084-.251.084h-2.339c-.167,0-.167,0-.167-.084v-.084l.084-.167c0-.084.084-.167.251-.167.334-.084.418-.251.418-.752V65.853c0-.585,0-.668-.418-.752-.251-.084-.334-.084-.334-.167v-.251c0-.084.084-.084.251-.084h2.339c.167,0,.167,0,.167.084v.084l-.084.167c0,.084-.084.084-.251.167-.334.084-.418.251-.418.752V67.44h2.84V65.853c0-.585,0-.668-.418-.752-.334-.084-.334-.084-.334-.167v-.084l.084-.167c0-.084.084-.084.251-.084h2.339c.167,0,.251,0,.167.167C180.616,64.684,180.616,64.767,180.532,64.767Z" transform="translate(-98.681 -63.765)"/></g></g><path class="a" d="M68.078,62.283a13.014,13.014,0,0,0,1.67-.752c10.106-5.262-1.587-17.623-1.587-29.734,0-19.795,33.743-29.065,83.187-9.354,0,0,8.853,3.007,8.436,3.675-.585,1.086-31.153-9.688-50.113-10.774-14.449-.835-24.388,1.086-30.986,5.429-5.178,3.341-8.018,8.686-6.515,16.788C75.177,49,79.353,54.6,75.762,59.443c-3.007,4.093-7.517,3.758-8.269,3.341C67.326,62.533,67.827,62.366,68.078,62.283Z" transform="translate(-11.31 -1.98)"/></svg>