<?xml version="1.0" encoding="UTF-8" standalone="no"?>
<svg
   viewBox="0 0 53.679788 60.8712"
   version="1.1"
   id="svg209"
   sodipodi:docname="kidp_logo_blue_no_text.svg"
   inkscape:version="1.1.1 (3bf5ae0d25, 2021-09-20)"
   width="53.67979"
   height="60.871201"
   xmlns:inkscape="http://www.inkscape.org/namespaces/inkscape"
   xmlns:sodipodi="http://sodipodi.sourceforge.net/DTD/sodipodi-0.dtd"
   xmlns="http://www.w3.org/2000/svg"
   xmlns:svg="http://www.w3.org/2000/svg">
  <sodipodi:namedview
     id="namedview211"
     pagecolor="#ffffff"
     bordercolor="#666666"
     borderopacity="1.0"
     inkscape:pageshadow="2"
     inkscape:pageopacity="0.0"
     inkscape:pagecheckerboard="0"
     showgrid="false"
     inkscape:zoom="11.313708"
     inkscape:cx="31.775611"
     inkscape:cy="32.305941"
     inkscape:window-width="1920"
     inkscape:window-height="1017"
     inkscape:window-x="1912"
     inkscape:window-y="-8"
     inkscape:window-maximized="1"
     inkscape:current-layer="svg209"
     inkscape:snap-page="false" />
  <defs
     id="defs113">
    <style
       id="style111">.a{fill:#c7c9c9;}</style>
  </defs>
  <path
     class="a"
     d="m 13.338462,51.199 c 0.251,0.418 7.517,-3.007 6.932,-8.686 -0.585,-5.93 -2.673,-7.35 -2.673,-7.35 a 15.627,15.627 0 0 1 -7.5999999,0.418 22.232,22.232 0 0 1 -4.844,-1.42 c -1,-0.251 0.167,1.169 0.919,1.837 a 8.827,8.827 0 0 0 4.0089999,1.67 35.139,35.139 0 0 0 5.512,0.5 14.879,14.879 0 0 1 1.67,6.014 c 0,3.008 -4.26,6.599 -3.925,7.017 z"
     id="path115"
     style="fill:#0b3162;fill-opacity:1" />
  <path
     class="a"
     d="m 21.188462,32.489 c 0.084,-0.418 -0.5,0 -2.923,-0.835 -1.587,-0.585 -3.09,-2 -5.763,-2.673 -5.1779999,-1.253 -7.5999999,0.334 -8.2689999,1 -0.251,0.167 -0.251,-0.835 0.919,-2 3.007,-3.09 8.3519999,-3.007 10.3569999,-3.007 a 11.6,11.6 0 0 1 6.431,-6.6 c 2.088,-0.835 6.6,-0.585 9.688,-0.585 3.088,0 6.014,-0.251 8.185,0.5 6.431,2.255 3.675,8.269 6.849,12.111 2.506,3.09 6.849,2.84 6.849,2.506 0,-0.668 -4.26,-1.5 -5.262,-7.767 -0.752,-4.51 -1.837,-7.767 -7.016,-9.772 -2.172,-0.835 -6.348,-0.668 -9.438,-0.668 -3.09,0 -7.684,-0.084 -9.855,0.752 -5.178,2.088 -6.264,6.431 -7.1,6.515 a 22.645,22.645 0 0 0 -8.0179999,1.921 9.928,9.928 0 0 0 -5.84599998,6.181 c -0.669,1.67 -1.337,4.843 -0.752,5.094 0.418,0.251 2.58899998,-2.506 5.42899998,-3.591 a 10.322,10.322 0 0 1 8.4359999,0.334 c 3.841,1.754 6.932,1.252 7.099,0.584 z"
     id="path117" />
  <path
     class="a"
     d="m 19.267462,19.042 a 30.045,30.045 0 0 0 0.752,-5.93 12.673,12.673 0 0 0 -1.086,-5.345 c -0.5,-1.336 -1,-1.5 -0.752,-1.67 0.418,-0.251 1.5,0.084 2.422,0.835 a 17.381,17.381 0 0 1 2.422,2.255 c 0.585,0.668 0.251,-2.506 -1.754,-4.093 -2.589,-2.088 -7.6,-1.336 -8.018,-1.253 -0.334,0.084 3.257,2.84 4.26,6.765 0.752,3.007 0.585,9.02 0.585,9.02 z"
     id="path119"
     style="fill:#0b3162;fill-opacity:1" />
  <path
     class="a"
     d="m 43.571462,19.042 a 30.045,30.045 0 0 1 -0.752,-5.93 12.673,12.673 0 0 1 1.086,-5.345 c 0.5,-1.336 1,-1.5 0.752,-1.67 -0.418,-0.251 -1.5,0.084 -2.422,0.835 a 17.381,17.381 0 0 0 -2.422,2.255 c -0.585,0.668 -0.251,-2.506 1.754,-4.093 2.589,-2.088 7.6,-1.336 8.018,-1.253 0.334,0.084 -3.257,2.84 -4.26,6.765 -0.752,3.007 -0.585,9.02 -0.585,9.02 z"
     id="path121"
     style="fill:#0b3162;fill-opacity:1" />
  <path
     class="a"
     d="m 31.461462,3.257 a 5.386,5.386 0 0 1 2.668,1.587 c 1.42,1.336 4.176,5.178 4.176,4.093 a 11.061,11.061 0 0 0 -2.506,-5.6 c -0.997,-1.165 -3.001,-3.17 -4.338,-3.337 h -0.084 c -1.336,0.167 -3.341,2.172 -4.343,3.341 a 11.361,11.361 0 0 0 -2.506,5.6 c 0,1.086 2.756,-2.756 4.176,-4.093 a 6.1,6.1 0 0 1 2.673,-1.587 z"
     id="path123"
     style="fill:#0b3162;fill-opacity:1" />
  <path
     class="a"
     d="m 21.606462,21.548 c 0,0 1.42,1.086 4.427,0.752 2.088,-0.251 2.756,-1.086 4.928,-0.418 2.255,0.668 2.756,3.341 2.339,3.174 -0.5,-0.167 -3.508,-1.67 -6.431,-1.086 -2.841,0.668 -6.015,0.167 -5.263,-2.422 z"
     id="path125"
     style="fill:#0b3162;fill-opacity:1" />
  <g
     transform="translate(34.604462,8.853)"
     id="g129"
     style="fill:#0b3162;fill-opacity:1">
    <path
       class="a"
       d="M 45.285,14.876 A 3.685,3.685 0 0 1 42.529,13.707 C 41.694,12.872 41.443,10.7 41.861,10.7 a 3.7,3.7 0 0 0 3.424,2.339 z"
       transform="translate(-41.662,-10.7)"
       id="path127"
       style="fill:#0b3162;fill-opacity:1" />
  </g>
  <g
     transform="translate(24.696462,8.853)"
     id="g133"
     style="fill:#0b3162;fill-opacity:1">
    <path
       class="a"
       d="m 29.8,14.876 a 3.685,3.685 0 0 0 2.756,-1.169 C 33.391,12.872 33.642,10.7 33.224,10.7 A 3.7,3.7 0 0 1 29.8,13.039 Z"
       transform="translate(-29.8,-10.7)"
       id="path131"
       style="fill:#0b3162;fill-opacity:1" />
  </g>
  <path
     class="a"
     d="m 29.457462,23.971 a 1.784,1.784 0 0 0 -0.668,-1.42 4.391,4.391 0 0 0 -3.257,0 2.091,2.091 0 0 0 -0.668,1.5 2.161,2.161 0 0 0 2.255,2.088 2.366,2.366 0 0 0 2.338,-2.168 z"
     id="path135"
     style="fill:#0b3162;fill-opacity:1" />
  <path
     class="a"
     d="m 53.678462,60.558 c -0.084,-0.251 -4.093,-2.172 -4.093,-5.6 v -4.177 c 0,-1 -0.084,-3.341 -1,-4.51 -1.42,-1.754 -4.51,-1.5 -4.594,-1.336 -0.084,0.251 2.339,1.42 2.339,3.591 v 5.6 c 0,0 -0.251,3.341 1.42,5.095 2.086,2.337 6.012,1.583 5.928,1.337 z"
     id="path137"
     style="fill:#0b3162;fill-opacity:1" />
  <path
     class="a"
     d="m 53.093462,44.099 c -0.088,-0.25 -4.088,-1.837 -4.088,-5.178 v -1 a 5.419,5.419 0 0 0 -1,-3.508 c -1.42,-1.67 -4.51,-1.42 -4.594,-1.253 -0.084,0.251 2.339,1.336 2.339,3.424 v 1.336 c 0,0 -0.251,3.174 1.42,4.844 2.081,2.254 6.007,1.586 5.923,1.335 z"
     id="path139"
     style="fill:#0b3162;fill-opacity:1" />
  <path
     style="fill:#0b3162;fill-opacity:1;stroke:none;stroke-width:0.0889244"
     d="m 0.12485458,34.930495 c -0.35709384,-0.667236 0.50382584,-4.275956 1.48549422,-6.226752 0.9279077,-1.843961 2.4142015,-3.355062 4.2146634,-4.285006 2.4166343,-1.2482 5.4208448,-2.104325 8.2453828,-2.349726 0.500014,-0.04344 0.97137,-0.130651 1.047456,-0.193798 0.07609,-0.06315 0.443608,-0.573211 0.816713,-1.133478 0.750861,-1.127518 1.281257,-1.817501 1.867052,-2.428818 l 0.38874,-0.405676 -0.09117,-2.173132 C 17.938581,11.905653 17.647773,10.347689 16.764036,8.5812074 16.129035,7.3119167 15.423271,6.3086778 14.199203,4.9353124 13.702568,4.3781026 13.33056,3.9009862 13.372519,3.8750538 c 0.04196,-0.025932 0.605409,-0.087416 1.25211,-0.1366311 2.666105,-0.2028941 5.119797,0.2847419 6.442024,1.28026 1.016473,0.7653127 1.792258,1.9970107 2.073184,3.291549 0.224416,1.0341334 0.146109,1.0498215 -0.749344,0.150126 -1.7174,-1.7255372 -3.270759,-2.6669025 -4.069776,-2.4663622 -0.295672,0.074209 -0.283199,0.2000041 0.07956,0.8024279 0.673897,1.1191177 1.275391,2.9998941 1.479111,4.6249486 0.119983,0.95709 0.07422,3.093658 -0.09414,4.395652 -0.05294,0.409383 -0.07817,0.762411 -0.05608,0.784507 0.0221,0.0221 0.196149,-0.05829 0.386782,-0.178628 0.578522,-0.365204 1.549208,-0.825435 2.16008,-1.024158 1.694117,-0.55111 3.651863,-0.663012 10.715394,-0.612475 5.299141,0.03791 5.759275,0.05353 6.679966,0.226662 1.084098,0.203863 1.779935,0.440046 2.779331,0.943365 l 0.655779,0.330265 -0.0668,-0.606935 c -0.24263,-2.204558 -0.182047,-4.206875 0.171699,-5.674782 0.276329,-1.1466519 0.817185,-2.5463362 1.26829,-3.282214 0.310659,-0.5067708 0.315866,-0.5290502 0.152322,-0.6516625 -0.112139,-0.084072 -0.291355,-0.1109301 -0.530592,-0.079516 -0.897176,0.1178074 -1.958888,0.8261158 -3.529186,2.3544569 L 39.616295,9.2763045 V 8.9252077 c 0,-1.0155436 0.707883,-2.5216995 1.610349,-3.4263223 1.372517,-1.3757975 3.841891,-1.9935587 7.013218,-1.754491 0.659325,0.049703 1.214376,0.1059712 1.233446,0.125041 0.0471,0.047098 -0.168589,0.3180813 -1.026984,1.2902786 -1.79897,2.0374672 -2.810534,3.8445987 -3.231345,5.772709 -0.215974,0.989565 -0.413573,2.951128 -0.49097,4.873835 l -0.06174,1.533886 0.637739,0.671375 c 1.443416,1.519541 2.220762,3.339101 2.807863,6.572453 0.423111,2.330214 0.734402,3.27452 1.524238,4.623798 0.55133,0.941837 1.707527,2.117492 2.87256,2.920905 0.510419,0.351987 0.921966,0.679993 0.914548,0.728901 -0.023,0.151633 -0.657496,0.237625 -1.309036,0.177412 -3.426711,-0.316689 -5.819695,-2.193711 -6.744854,-5.290566 -0.124194,-0.415722 -0.407712,-1.666487 -0.630041,-2.779478 -0.586642,-2.936766 -1.057083,-4.015325 -2.234179,-5.122215 -0.755609,-0.710541 -1.391452,-1.100028 -2.43684,-1.492692 -1.478444,-0.555326 -1.857389,-0.585446 -7.828696,-0.622258 -7.957169,-0.04905 -9.224703,0.06362 -11.083108,0.985159 -1.202713,0.596399 -2.245085,1.354617 -3.177456,2.311274 -0.802765,0.823675 -1.765594,2.227691 -2.190102,3.193651 l -0.291681,0.663715 -1.299357,0.05605 C 9.9768595,25.119542 7.2710914,25.96717 5.4123002,27.688602 4.713438,28.33582 4.2995231,28.920965 4.1284711,29.503531 c -0.1615816,0.55031 -0.011547,0.665691 0.3980204,0.306087 0.4406391,-0.386887 1.3214209,-0.785321 2.2424714,-1.014412 1.1961162,-0.297509 3.3065681,-0.278345 4.8451711,0.044 1.874712,0.392757 2.728588,0.742105 5.148587,2.10645 0.611355,0.344669 1.41284,0.722331 1.781078,0.83925 0.749742,0.238049 1.920067,0.494662 2.255986,0.494662 0.548295,0 0.288054,0.442158 -0.373383,0.634391 -0.515297,0.149761 -2.239279,0.147653 -3.028479,-0.0037 -0.976794,-0.187335 -2.055618,-0.534649 -3.371691,-1.085477 -2.143874,-0.897294 -3.716672,-1.176879 -5.5201437,-0.981275 -2.3253029,0.2522 -4.0751575,1.028096 -6.1808436,2.740622 -1.37368193,1.1172 -1.92875488,1.541028 -2.01822735,1.541028 -0.0428905,0 -0.12486197,-0.0876 -0.18215877,-0.194654 z"
     id="path330" />
  <path
     style="fill:#0b3162;fill-opacity:1;stroke-width:0.0889244"
     d="m 24.588067,8.942719 c 0,-0.2959646 0.275299,-1.3962666 0.535436,-2.1400002 0.583367,-1.6678539 1.439482,-2.9628829 2.958361,-4.4750575 1.489641,-1.4830649 2.626353,-2.25652176 3.3163,-2.25652176 0.731556,0 2.141912,0.96848096 3.57091,2.45211696 0.495955,0.5149182 1.109332,1.2282617 1.363058,1.5852077 0.640016,0.9003836 1.368613,2.4444933 1.627954,3.4501122 0.313038,1.2138307 0.355036,1.5117153 0.21313,1.5117153 -0.159127,0 -1.230021,-1.1096135 -2.574643,-2.6677328 -1.517124,-1.7580097 -2.123082,-2.3067044 -3.060346,-2.7711365 -0.976002,-0.4836281 -1.199523,-0.484197 -2.185706,-0.00556 -0.96878,0.4701881 -1.817635,1.2547647 -3.62955,3.3547082 -1.617179,1.874253 -2.134904,2.3500841 -2.134904,1.9621513 z"
     id="path406" />
  <path
     style="fill:#0000ff;stroke-width:0.0889244"
     d=""
     id="path445" />
  <path
     style="fill:#0b3162;fill-opacity:1;stroke-width:0.0889244"
     d="m 24.765915,12.105179 v -0.900701 h 0.250634 c 0.362189,0 1.157959,-0.251871 1.585109,-0.501706 0.453429,-0.265206 1.134449,-0.9812557 1.336773,-1.4055352 0.237808,-0.4986877 0.322692,-0.3831752 0.274316,0.3732948 -0.05957,0.9314444 -0.340899,1.6352074 -0.882685,2.2080674 -0.498576,0.52717 -1.37457,0.972666 -2.097293,1.066601 l -0.466854,0.06068 z"
     id="path484" />
  <path
     style="fill:#0b3162;fill-opacity:1;stroke-width:0.0889244"
     d="M 37.061164,12.797342 C 36.210908,12.527945 35.458204,11.913976 35.107295,11.203601 34.795314,10.572033 34.576038,9.4990712 34.677528,9.1006737 l 0.06437,-0.252693 0.221928,0.4344672 c 0.486085,0.9516051 1.689068,1.7879071 2.72573,1.8949001 l 0.503945,0.05201 v 0.876803 0.876804 l -0.289004,-0.005 c -0.158953,-0.0027 -0.538454,-0.08403 -0.843336,-0.18063 z"
     id="path523" />
  <path
     style="fill:#0b3162;fill-opacity:1;stroke-width:0.0889244"
     d="m 26.144244,25.893534 c -0.487079,-0.228103 -1.000922,-0.822051 -1.130581,-1.30683 L 24.906878,24.187445 H 24.43156 c -0.693409,0 -1.63231,-0.239011 -2.097297,-0.533897 -0.523998,-0.33231 -0.769627,-0.802656 -0.769627,-1.473732 0,-0.569364 -0.08006,-0.552918 0.895803,-0.184009 1.38915,0.525145 3.039377,0.529864 5.133859,0.01468 1.795355,-0.441607 2.78064,-0.401893 3.92902,0.158365 0.542359,0.2646 1.237928,0.986068 1.53191,1.588951 0.241961,0.496198 0.416955,1.229961 0.293334,1.229961 -0.03617,0 -0.451444,-0.144685 -0.922841,-0.321523 -0.953577,-0.357721 -2.394024,-0.74557 -2.768999,-0.74557 -0.214595,0 -0.250647,0.04153 -0.299102,0.344554 -0.07954,0.497398 -0.562408,1.162028 -1.072211,1.475806 -0.369796,0.227605 -0.542119,0.273218 -1.111555,0.294222 -0.512122,0.01889 -0.759307,-0.01513 -1.02961,-0.141719 z"
     id="path562" />
  <path
     style="fill:#0b3162;fill-opacity:1;stroke-width:0.0889244"
     d="m 50.420613,44.279818 c -1.620755,-0.253439 -2.924756,-1.004591 -3.655712,-2.105823 -0.715397,-1.07779 -1.01212,-2.497462 -1.01257,-4.84463 -2.1e-4,-1.096596 -0.02946,-1.386371 -0.180765,-1.790769 -0.200927,-0.537025 -0.95156,-1.417555 -1.685717,-1.977431 -0.428431,-0.326726 -0.439941,-0.3463 -0.247486,-0.420897 0.288815,-0.111947 1.803611,-0.0048 2.380491,0.16834 1.452875,0.436119 2.149414,1.108986 2.681977,2.590832 0.150045,0.417498 0.197734,0.835292 0.251653,2.204678 0.07373,1.872457 0.180005,2.31481 0.772456,3.215144 0.436182,0.662856 1.464033,1.601915 2.409257,2.20113 0.451419,0.286173 0.820762,0.550127 0.820762,0.586566 0,0.182033 -1.72379,0.299608 -2.534346,0.17286 z"
     id="path601" />
  <path
     style="fill:#0b3162;fill-opacity:1;stroke-width:0.0889244"
     d="M 0.16778742,34.930273 C -0.14832677,34.41879 0.6117129,31.030618 1.4733637,29.110161 c 0.579654,-1.29194 1.7811625,-2.827816 2.8642576,-3.661352 2.0252033,-1.558569 5.475029,-2.794721 9.0904297,-3.25731 1.884021,-0.241059 1.629004,-0.11055 2.411565,-1.234144 0.961541,-1.380574 1.423687,-1.984406 1.93907,-2.533561 l 0.443579,-0.472647 -0.02216,-0.772295 C 18.160573,15.801482 18.006277,13.313278 17.912337,12.538344 17.710807,10.875869 17.432732,9.88109 16.806182,8.5812074 16.21893,7.362856 15.711739,6.6510548 13.863317,4.4511439 13.461876,3.9733665 13.459219,3.9659804 13.661817,3.8910346 c 0.112917,-0.041771 0.786786,-0.099002 1.497485,-0.127181 3.587424,-0.1422379 6.034133,0.8149272 7.23066,2.8286708 0.379618,0.6388929 0.804146,1.8921904 0.76007,2.2438916 -0.02748,0.2192687 -0.08937,0.1774286 -1.039384,-0.7026683 -1.659656,-1.5375104 -2.684356,-2.1732645 -3.50554,-2.1749423 -0.309594,-6.313e-4 -0.440136,0.0381 -0.480188,0.1424738 -0.03219,0.083874 0.131637,0.5173575 0.394872,1.044862 1.21817,2.4411133 1.583672,4.8704348 1.254475,8.3378958 -0.05544,0.583983 -0.07541,1.08718 -0.04438,1.118215 0.03104,0.03104 0.246466,-0.05279 0.478734,-0.186274 1.265809,-0.727472 2.616377,-1.201794 3.979283,-1.397531 0.981071,-0.140898 12.771981,-0.214729 14.268554,-0.08934 1.438923,0.120554 2.568172,0.413047 3.767329,0.975798 l 0.962393,0.451639 -0.04926,-0.241765 C 43.018334,15.532805 42.899437,13.131904 42.951,12.3605 c 0.133976,-2.004301 0.512419,-3.4555235 1.335529,-5.1213791 0.268061,-0.5425161 0.487383,-1.0319496 0.487383,-1.0876301 0,-0.1429314 -0.392046,-0.2240192 -0.811249,-0.1677924 -0.79187,0.1062121 -1.712827,0.7250608 -3.328193,2.2364221 l -1.016398,0.9509572 0.0546,-0.4283198 c 0.139801,-1.0966332 0.766976,-2.3427282 1.609553,-3.197929 1.270806,-1.2898443 3.51267,-1.9074995 6.445927,-1.7759155 0.720028,0.0323 1.3908,0.088935 1.490604,0.1258549 0.163342,0.060424 0.09033,0.1745301 -0.731133,1.1425861 -2.981822,3.5139598 -3.496672,4.9694066 -3.800352,10.7433476 l -0.08401,1.597252 0.555292,0.581397 c 0.781389,0.818122 1.153638,1.361344 1.657193,2.418333 0.519361,1.090167 0.850482,2.227524 1.290475,4.432605 0.178284,0.893499 0.426568,1.949214 0.551742,2.346033 0.619874,1.965095 1.754271,3.470561 3.728218,4.947741 0.452059,0.338293 0.846635,0.655059 0.876834,0.703923 0.166881,0.270018 -1.509396,0.214402 -2.66456,-0.08841 -2.103737,-0.551464 -3.656513,-1.777242 -4.623794,-3.650077 -0.4266,-0.825976 -0.675625,-1.66029 -1.112145,-3.726037 -0.775439,-3.669626 -1.258637,-4.70625 -2.744988,-5.888941 -0.766504,-0.609908 -1.291132,-0.890681 -2.305191,-1.233707 -1.371408,-0.463906 -1.668022,-0.48039 -8.64387,-0.48039 -7.890254,0 -8.16331,0.0265 -10.092922,0.979555 -1.174739,0.580215 -2.252289,1.373188 -3.16701,2.330616 -0.76161,0.797168 -1.799105,2.310354 -2.173853,3.170565 -0.284984,0.654163 -0.33423,0.67768 -1.419088,0.67768 -2.354329,0 -5.3879604,0.620316 -6.9941229,1.430157 -1.7685483,0.891716 -3.2749545,2.48098 -3.2749545,3.455089 0,0.337175 0.1340836,0.347 0.5385015,0.03946 0.4337197,-0.329822 1.4433586,-0.784531 2.1736936,-0.978961 0.9474073,-0.252219 3.5660993,-0.227765 4.8463813,0.04526 1.444358,0.308012 2.414234,0.668968 3.912675,1.456171 2.243853,1.178802 2.501448,1.301157 3.230541,1.534466 0.382907,0.12253 1.040138,0.28276 1.460513,0.356067 0.420374,0.07331 0.783057,0.152026 0.805961,0.174929 0.08339,0.08339 -0.183687,0.306423 -0.502129,0.419322 -0.218343,0.07741 -0.767811,0.112397 -1.66022,0.105711 -1.610574,-0.01207 -2.222956,-0.155705 -4.631879,-1.086442 -2.068025,-0.799024 -2.835964,-0.992577 -4.192155,-1.056598 -2.2837143,-0.107806 -4.3226217,0.427574 -6.1739692,1.621172 -0.358983,0.231444 -1.2799351,0.915982 -2.0465605,1.521196 -0.7666252,0.605213 -1.43453144,1.100389 -1.48423603,1.100389 -0.0497046,0 -0.11983882,-0.04768 -0.15585385,-0.105952 z"
     id="path825" />
  <path
     style="fill:#0b3162;fill-opacity:1;stroke-width:0.0889244"
     d="m 24.714008,8.529601 c 0.08652,-0.6522069 0.599662,-2.1608704 1.013105,-2.9785702 0.507435,-1.0035941 1.138515,-1.8609739 2.130509,-2.8944908 1.511304,-1.5745639 2.826337,-2.50919332 3.527966,-2.50742098 0.932611,0.002356 2.862718,1.50906948 4.556668,3.55710468 0.569978,0.6891195 1.387619,2.1846873 1.7415,3.1854195 0.285451,0.8072163 0.558942,1.981247 0.479939,2.060251 -0.09187,0.091867 -0.52682,-0.3520427 -2.382036,-2.4310928 -1.746836,-1.9575952 -2.39383,-2.5336126 -3.368243,-2.998744 -0.746315,-0.35625 -1.195365,-0.3552499 -1.962107,0.00437 -1.041397,0.4884391 -1.883079,1.2623067 -3.950262,3.631989 -0.914084,1.0478449 -1.664989,1.8229508 -1.766035,1.8229508 -0.04587,0 -0.05497,-0.1957123 -0.021,-0.4517663 z"
     id="path864" />
  <path
     style="fill:#0b3162;fill-opacity:1;stroke-width:0.0889244"
     d="m 24.765915,12.099715 v -0.895237 h 0.341777 c 1.030968,0 2.239094,-0.798135 2.885095,-1.906005 l 0.158979,-0.2726435 -0.03279,0.7278754 c -0.05735,1.2732411 -0.657271,2.1869181 -1.821981,2.7748621 -0.285691,0.144216 -0.677031,0.28894 -0.869644,0.321608 -0.192613,0.03267 -0.420233,0.07861 -0.505823,0.102087 -0.140729,0.03861 -0.155618,-0.04296 -0.155618,-0.852547 z"
     id="path940" />
  <path
     style="fill:#000080;stroke-width:0.0889244"
     d=""
     id="path979" />
  <path
     style="fill:#0b3162;fill-opacity:1;stroke-width:0.0889244"
     d="M 26.144244,25.831073 C 25.59349,25.536412 25.22165,25.054726 25.001508,24.350755 24.966888,24.240045 24.8028,24.188276 24.349267,24.144978 23.047539,24.020705 22.07615,23.583855 21.797959,22.997611 21.652254,22.690561 21.566712,21.932617 21.6665,21.832828 c 0.02818,-0.02818 0.426958,0.07926 0.886165,0.238772 0.814128,0.282791 0.871463,0.289928 2.302175,0.286571 1.318448,-0.0031 1.596081,-0.03226 2.737534,-0.287564 1.844196,-0.412489 2.904478,-0.368428 3.931798,0.163388 0.399944,0.207041 1.115231,0.918772 1.382312,1.375441 0.219803,0.37583 0.463722,1.162576 0.384882,1.241416 -0.02566,0.02566 -0.463786,-0.09433 -0.973616,-0.266632 -1.205265,-0.407341 -2.211364,-0.663549 -2.605686,-0.663549 -0.290391,0 -0.322475,0.02693 -0.407282,0.34188 -0.130665,0.485252 -0.520807,1.029152 -0.98121,1.367912 -0.363381,0.267373 -0.457111,0.293133 -1.154029,0.317173 -0.565812,0.01952 -0.826303,-0.0101 -1.025299,-0.116563 z"
     id="path1018" />
  <path
     style="fill:#0b3162;fill-opacity:1;stroke-width:0.0889244"
     d="m 26.05153,25.711349 c -0.360567,-0.21988 -0.708845,-0.644686 -0.92011,-1.122286 -0.151314,-0.34207 -0.215354,-0.397433 -0.513726,-0.444117 -1.152476,-0.180321 -1.464991,-0.260283 -1.970436,-0.504164 -0.356466,-0.171997 -0.622746,-0.3705 -0.727025,-0.541973 -0.160198,-0.263424 -0.329495,-1.101295 -0.240504,-1.190285 0.02443,-0.02443 0.398688,0.06817 0.831678,0.205773 0.745122,0.236807 0.87292,0.249981 2.387895,0.246159 1.392007,-0.0035 1.747936,-0.03539 2.730701,-0.244543 1.449272,-0.308439 2.542771,-0.324195 3.365587,-0.04849 0.485583,0.162705 0.675669,0.295035 1.245433,0.867013 0.575851,0.578089 0.699208,0.757991 0.859184,1.253012 0.102738,0.317904 0.175226,0.589767 0.161084,0.604138 -0.01414,0.01437 -0.64087,-0.162358 -1.392731,-0.392733 -0.983982,-0.301498 -1.526521,-0.420944 -1.936264,-0.42629 l -0.569246,-0.0074 -0.126601,0.375743 c -0.142373,0.422556 -0.806929,1.209652 -1.187478,1.406441 -0.382487,0.197792 -1.651589,0.174939 -1.997441,-0.03597 z"
     id="path1057" />
  <path
     style="fill:#0b3162;fill-opacity:1;stroke-width:0.0889244"
     d="M 37.517839,12.850849 C 36.486773,12.626529 35.56323,11.975129 35.162444,11.189522 34.91977,10.713842 34.72531,9.9093329 34.726286,9.3850754 l 8.34e-4,-0.4481703 0.256079,0.4464389 c 0.574127,1.000914 1.600457,1.66663 2.876839,1.866024 l 0.333466,0.05209 v 0.840753 c 0,0.462414 -0.03001,0.837571 -0.06669,0.833683 -0.03668,-0.0039 -0.310719,-0.06016 -0.608972,-0.125048 z"
     id="path1096" />
  <path
     style="fill:#0b3162;fill-opacity:1;stroke-width:0.0889244"
     d="m 13.383589,51.123043 c 0,-0.130741 0.230406,-0.446631 1.288028,-1.765898 1.484079,-1.851226 2.269501,-3.198538 2.537351,-4.352568 0.271515,-1.169814 -0.221866,-3.752599 -1.127069,-5.900059 -0.336569,-0.798461 -0.434786,-0.955938 -0.59621,-0.955938 -0.777961,0 -3.288589,-0.220986 -4.50306,-0.39636 C 8.8895179,37.449968 7.682607,37.033962 6.4474832,36.189019 5.6960875,35.674992 4.8468435,34.673336 4.8468435,34.301116 c 0,-0.202463 -0.1141473,-0.228552 1.467253,0.335343 3.7973455,1.354055 7.4622585,1.611505 10.6264695,0.74648 l 0.666933,-0.182325 0.338992,0.380091 c 0.968774,1.086224 1.770007,3.276754 2.146894,5.869491 0.284707,1.958607 0.126024,3.242674 -0.575951,4.660598 -0.952624,1.924212 -3.280955,4.009569 -5.442053,4.874144 -0.667614,0.267088 -0.691792,0.271915 -0.691792,0.138105 z"
     id="path1135" />
  <path
     style="fill:#0b3162;fill-opacity:1;stroke-width:0.0889244"
     d="M 50.799732,60.738221 C 49.655293,60.529884 48.797245,60.115678 48.03713,59.404627 47.376084,58.786252 47.018436,58.166199 46.674722,57.04263 l -0.244097,-0.797929 -0.05027,-4.226117 -0.05027,-4.226117 -0.29414,-0.597148 c -0.282573,-0.573664 -0.890195,-1.281575 -1.649304,-1.921528 -0.188543,-0.158947 -0.321545,-0.310255 -0.295561,-0.336239 0.100969,-0.100969 1.669433,-0.03264 2.228847,0.09709 1.401982,0.325142 2.327937,1.085132 2.735736,2.245394 0.376635,1.071593 0.445914,1.798973 0.510821,5.363223 0.0622,3.415465 0.06289,3.424884 0.292044,3.968676 0.126333,0.299797 0.389475,0.779989 0.584759,1.067093 0.451364,0.663589 1.655585,1.816267 2.489437,2.382886 0.354586,0.240947 0.644702,0.466373 0.644702,0.500944 0,0.03457 -0.09004,0.08994 -0.20008,0.123038 -0.327643,0.09855 -2.123434,0.135003 -2.577618,0.05232 z"
     id="path1174" />
</svg>
