<?xml version="1.0" encoding="UTF-8" standalone="no"?>
<svg
   viewBox="0 0 151.794 61.04"
   version="1.1"
   id="svg209"
   sodipodi:docname="kidp-logo.svg"
   inkscape:version="1.1.1 (3bf5ae0d25, 2021-09-20)"
   xmlns:inkscape="http://www.inkscape.org/namespaces/inkscape"
   xmlns:sodipodi="http://sodipodi.sourceforge.net/DTD/sodipodi-0.dtd"
   xmlns="http://www.w3.org/2000/svg"
   xmlns:svg="http://www.w3.org/2000/svg">
  <sodipodi:namedview
     id="namedview211"
     pagecolor="#ffffff"
     bordercolor="#666666"
     borderopacity="1.0"
     inkscape:pageshadow="2"
     inkscape:pageopacity="0.0"
     inkscape:pagecheckerboard="0"
     showgrid="false"
     inkscape:zoom="5.6568543"
     inkscape:cx="84.410872"
     inkscape:cy="23.776465"
     inkscape:window-width="1920"
     inkscape:window-height="1017"
     inkscape:window-x="2728"
     inkscape:window-y="-7"
     inkscape:window-maximized="1"
     inkscape:current-layer="svg209" />
  <defs
     id="defs113">
    <style
       id="style111">.a{fill:#c7c9c9;}</style>
  </defs>
  <path
     class="a"
     d="M14.509,58.033c.251.418,7.517-3.007,6.932-8.686-.585-5.93-2.673-7.35-2.673-7.35a15.627,15.627,0,0,1-7.6.418,22.232,22.232,0,0,1-4.844-1.42c-1-.251.167,1.169.919,1.837a8.827,8.827,0,0,0,4.009,1.67,35.139,35.139,0,0,0,5.512.5,14.879,14.879,0,0,1,1.67,6.014C18.434,54.024,14.174,57.615,14.509,58.033Z"
     transform="translate(-1.171 -6.834)"
     id="path115" />
  <path
     class="a"
     d="M21.42,35.487c.084-.418-.5,0-2.923-.835-1.587-.585-3.09-2-5.763-2.673-5.178-1.253-7.6.334-8.269,1-.251.167-.251-.835.919-2,3.007-3.09,8.352-3.007,10.357-3.007a11.6,11.6,0,0,1,6.431-6.6c2.088-.835,6.6-.585,9.688-.585s6.014-.251,8.185.5c6.431,2.255,3.675,8.269,6.849,12.111,2.506,3.09,6.849,2.84,6.849,2.506,0-.668-4.26-1.5-5.262-7.767-.752-4.51-1.837-7.767-7.016-9.772-2.172-.835-6.348-.668-9.438-.668s-7.684-.084-9.855.752c-5.178,2.088-6.264,6.431-7.1,6.515a22.645,22.645,0,0,0-8.018,1.921,9.928,9.928,0,0,0-5.846,6.181C.539,34.736-.129,37.909.456,38.16c.418.251,2.589-2.506,5.429-3.591a10.322,10.322,0,0,1,8.436.334C18.162,36.657,21.253,36.155,21.42,35.487Z"
     transform="translate(-0.232 -2.998)"
     id="path117" />
  <path
     class="a"
     d="M22.109,19.861a30.045,30.045,0,0,0,.752-5.93,12.673,12.673,0,0,0-1.086-5.345c-.5-1.336-1-1.5-.752-1.67.418-.251,1.5.084,2.422.835a17.381,17.381,0,0,1,2.422,2.255c.585.668.251-2.506-1.754-4.093-2.589-2.088-7.6-1.336-8.018-1.253-.334.084,3.257,2.84,4.26,6.765.752,3.007.585,9.02.585,9.02Z"
     transform="translate(-2.842 -0.819)"
     id="path119" />
  <path
     class="a"
     d="M51.607,19.861a30.045,30.045,0,0,1-.752-5.93,12.673,12.673,0,0,1,1.086-5.345c.5-1.336,1-1.5.752-1.67-.418-.251-1.5.084-2.422.835a17.381,17.381,0,0,0-2.422,2.255c-.585.668-.251-2.506,1.754-4.093,2.589-2.088,7.6-1.336,8.018-1.253.334.084-3.257,2.84-4.26,6.765-.752,3.007-.585,9.02-.585,9.02Z"
     transform="translate(-8.036 -0.819)"
     id="path121" />
  <path
     class="a"
     d="M36.532,3.357A5.386,5.386,0,0,1,39.2,4.944c1.42,1.336,4.176,5.178,4.176,4.093a11.061,11.061,0,0,0-2.506-5.6C39.873,2.272,37.869.267,36.532.1h-.084c-1.336.167-3.341,2.172-4.343,3.341a11.361,11.361,0,0,0-2.506,5.6c0,1.086,2.756-2.756,4.176-4.093a6.1,6.1,0,0,1,2.673-1.587Z"
     transform="translate(-5.071 -0.1)"
     id="path123" />
  <path
     class="a"
     d="M26.078,25.9s1.42,1.086,4.427.752c2.088-.251,2.756-1.086,4.928-.418,2.255.668,2.756,3.341,2.339,3.174-.5-.167-3.508-1.67-6.431-1.086C28.5,28.99,25.326,28.489,26.078,25.9Z"
     transform="translate(-4.472 -4.352)"
     id="path125" />
  <g
     transform="translate(34.604 8.853)"
     id="g129">
    <path
       class="a"
       d="M45.285,14.876a3.685,3.685,0,0,1-2.756-1.169c-.835-.835-1.086-3.007-.668-3.007a3.7,3.7,0,0,0,3.424,2.339Z"
       transform="translate(-41.662 -10.7)"
       id="path127" />
  </g>
  <g
     transform="translate(24.696 8.853)"
     id="g133">
    <path
       class="a"
       d="M29.8,14.876a3.685,3.685,0,0,0,2.756-1.169c.835-.835,1.086-3.007.668-3.007A3.7,3.7,0,0,1,29.8,13.039v1.837Z"
       transform="translate(-29.8 -10.7)"
       id="path131" />
  </g>
  <path
     class="a"
     d="M34.594,28.458a1.784,1.784,0,0,0-.668-1.42,4.391,4.391,0,0,0-3.257,0,2.091,2.091,0,0,0-.668,1.5,2.161,2.161,0,0,0,2.255,2.088A2.366,2.366,0,0,0,34.594,28.458Z"
     transform="translate(-5.137 -4.487)"
     id="path135" />
  <path
     class="a"
     d="M62.588,69.5c-.084-.251-4.093-2.172-4.093-5.6V59.723c0-1-.084-3.341-1-4.51-1.42-1.754-4.51-1.5-4.594-1.336-.084.251,2.339,1.42,2.339,3.591v5.6s-.251,3.341,1.42,5.095C58.746,70.5,62.672,69.746,62.588,69.5Z"
     transform="translate(-8.91 -8.942)"
     id="path137" />
  <path
     class="a"
     d="M61.888,50.717C61.8,50.467,57.8,48.88,57.8,45.539v-1a5.419,5.419,0,0,0-1-3.508c-1.42-1.67-4.51-1.42-4.594-1.253-.084.251,2.339,1.336,2.339,3.424v1.336s-.251,3.174,1.42,4.844C58.046,51.636,61.972,50.968,61.888,50.717Z"
     transform="translate(-8.795 -6.618)"
     id="path139" />
  <g
     transform="translate(69.881 27.478)"
     id="g205">
    <g
       transform="translate(0)"
       id="g163">
      <path
         class="a"
         d="M89.914,40.767c-.585,0-.668-.084-1.42-1.086l-2.172-2.756v2.422c0,.668.084.752.5.835.334.084.334.084.334.167v.084l-.084.167c-.084.084-.084.167-.251.167H84.151c-.167,0-.251,0-.251-.084V40.6l.084-.167c0-.084.084-.167.251-.167.418-.084.5-.251.5-.835V34.42c0-.668-.084-.752-.5-.835-.251-.084-.251-.084-.251-.167v-.084l.084-.167c0-.084.084-.167.251-.167H86.99c.167,0,.251,0,.251.084v.084l-.084.167c-.084.084-.084.167-.251.167-.418.084-.5.334-.5.919v2.172L89.329,33h1.336v.251c0,.167,0,.167-.5.418-.334.167-.418.251-1,.919l-1.5,1.754c2.589,3.09,3.007,3.591,3.508,4.093v.334H89.914Z"
         transform="translate(-83.9 -33)"
         id="path141" />
      <path
         class="a"
         d="M98.344,40.949c-.251,0-.334,0-.418-.251l-1.5-2.673h-.835V39.7c0,.585,0,.668.418.752.334.084.334.084.334.167V40.7l-.084.167c0,.084-.084.084-.251.084H93.667c-.167,0-.167,0-.167-.084v-.084l.084-.167c0-.084.084-.167.251-.167.334-.084.418-.251.418-.752V35.353c0-.585-.084-.668-.418-.752-.251-.084-.334-.084-.334-.167v-.251c0-.084.084-.084.251-.084h2.923c.835,0,1.253.084,1.587.418a1.557,1.557,0,0,1,.585,1.336,2.062,2.062,0,0,1-1.253,1.921c1.169,1.921,1.754,2.756,2.088,2.923v.251H98.344Zm-1.253-5.93a1.207,1.207,0,0,0-.919-.251h-.752v2.756h.585a1.043,1.043,0,0,0,1-.418,1.652,1.652,0,0,0,.418-1.169A1.041,1.041,0,0,0,97.091,35.019Z"
         transform="translate(-85.482 -33.181)"
         id="path143" />
      <path
         class="a"
         d="M108.732,40.665l-.084.167c0,.084-.084.084-.251.084h-2.255c-.167,0-.167,0-.167-.084h0l.084-.167c0-.084.084-.084.167-.167.251-.167.334-.167.334-.334,0-.084,0-.167-.167-.5l-.251-.752h-2.422l-.334,1c-.084.167-.084.167-.084.251,0,.167.167.251.334.334a.292.292,0,0,1,.167.084v.167c0,.084-.084.084-.251.084h-1.5c-.167,0-.251,0-.251-.084v-.084l.084-.167a.082.082,0,0,1,.084-.084.307.307,0,0,0,.251-.084c.334-.084.418-.251.668-.919l1.5-3.758a2.582,2.582,0,0,0,.167-.668c0-.334-.167-.5-.668-.585a.292.292,0,0,1-.167-.084v-.084l.084-.167c0-.084.084-.167.334-.167h1.5c.167,0,.167,0,.251.084,0,.084,0,.084.251.752.585,1.67,1.253,3.341,1.754,4.51.334.835.334.835.835,1a.652.652,0,0,0,0,.418Zm-3.842-5.011-1,2.673h2Z"
         transform="translate(-86.85 -33.148)"
         id="path145" />
      <path
         class="a"
         d="M113.723,34.367l-.084.167c0,.084-.084.084-.251.167-.334.084-.418.251-.418.752v4.761c0,1.169-.167,1.67-.668,2.088a1.965,1.965,0,0,1-1.42.5v-.5a1.159,1.159,0,0,0,.585-.668,3.5,3.5,0,0,0,.084-1.253V35.453c0-.585,0-.668-.418-.752-.334-.084-.334-.084-.334-.167v-.084l.084-.167c0-.084.084-.084.251-.084h2.339c.251,0,.251,0,.251.167Z"
         transform="translate(-88.333 -33.198)"
         id="path147" />
      <path
         class="a"
         d="M119.024,41.116a3.387,3.387,0,0,1-3.424-3.424,3.534,3.534,0,0,1,3.675-3.591,3.318,3.318,0,0,1,3.341,3.424A3.565,3.565,0,0,1,119.024,41.116Zm.084-6.431c-1.253,0-2.088,1.086-2.088,2.756a3.506,3.506,0,0,0,.752,2.422,1.971,1.971,0,0,0,1.336.585,1.662,1.662,0,0,0,1.336-.585,3.535,3.535,0,0,0,.668-2.339C121.2,35.854,120.361,34.685,119.108,34.685Z"
         transform="translate(-89.124 -33.181)"
         id="path149" />
      <path
         class="a"
         d="M135.023,34.375v.167c0,.084-.084.084-.084.167l-.251.084c-.251.084-.334.251-.5.668l-1.67,5.262c-.084.251-.167.334-.251.334h-.585c-.251,0-.251,0-.334-.418l-1.42-4.427-1.5,4.51c-.084.251-.167.334-.251.334h-.5c-.251,0-.251-.084-.334-.418l-1.587-5.011c-.167-.585-.251-.752-.585-.835-.084-.084-.167-.084-.167-.167v-.084l.084-.167c.084-.084.084-.084.251-.084h2.255c.167,0,.167,0,.167.084v.084l-.084.167c-.084.167-.084.167-.334.251a.426.426,0,0,0-.334.418c0,.084,0,.084.084.334l1.169,4.009,1.67-5.011c.084-.251.084-.251.251-.251h.5c.084,0,.167,0,.167.251l1.5,5.011,1.253-3.925c.084-.251.084-.251.084-.334q0-.376-.5-.5a.18.18,0,0,1-.167-.167v-.084l.084-.167c0-.084.084-.084.251-.084h1.67Z"
         transform="translate(-90.673 -33.206)"
         id="path151" />
      <path
         class="a"
         d="M143.632,40.665l-.084.167c0,.084-.084.084-.251.084h-2.172c-.084,0-.167,0-.167-.084h0l.084-.167c0-.084.084-.084.167-.167.251-.167.334-.167.334-.334,0-.084,0-.167-.167-.5l-.251-.752h-2.506l-.334,1c-.084.167-.084.167-.084.251,0,.167.167.251.334.334a.292.292,0,0,1,.167.084v.167c0,.084-.084.084-.251.084h-1.5c-.167,0-.251,0-.251-.084v-.084l.084-.167a.082.082,0,0,1,.084-.084.307.307,0,0,0,.251-.084c.334-.084.418-.251.668-.919l1.5-3.758a2.581,2.581,0,0,0,.167-.668c0-.334-.167-.5-.668-.585a.292.292,0,0,1-.167-.084v-.084l.084-.167c0-.084.084-.167.334-.167h1.5c.167,0,.167,0,.251.084,0,.084,0,.084.251.752.585,1.67,1.253,3.341,1.754,4.51.334.835.334.835.835,1a.652.652,0,0,0,0,.418Zm-3.842-5.011-1,2.673h2Z"
         transform="translate(-92.601 -33.148)"
         id="path153" />
      <path
         class="a"
         d="M151.657,33.184l-.084.167c-.084.084-.084.167-.251.167-.418.084-.5.251-.5.919v5.011c0,.668.084.752.5.835.334.084.334.084.334.167v.084l-.084.167c0,.084-.084.167-.251.167h-2.673c-.167,0-.251,0-.251-.084V40.7l.084-.167c0-.084.084-.167.251-.167.418-.084.5-.251.5-.835V34.52c0-.668-.084-.752-.5-.835-.334-.084-.334-.084-.334-.167v-.084l.084-.167c0-.084.084-.167.251-.167h2.673c.167,0,.251,0,.251.084Z"
         transform="translate(-94.529 -33.016)"
         id="path155" />
      <path
         class="a"
         d="M158.911,40.949h-4.761l-.251-.418,3.842-5.763h-2.088a.828.828,0,0,0-.919.668,1.034,1.034,0,0,1-.167.251.082.082,0,0,1-.084-.084l-.167-.167c0-.084-.084-.084-.084-.251v-.752c0-.251.084-.334.418-.334h4.594v.334L155.4,40.2h2.506a1.013,1.013,0,0,0,1.086-.668,1.034,1.034,0,0,1,.167-.251h0l.167.084c.084,0,.084.084.084.167v.919C159.5,40.865,159.412,40.949,158.911,40.949Z"
         transform="translate(-95.435 -33.181)"
         id="path157" />
      <path
         class="a"
         d="M164.723,41.132a5.08,5.08,0,0,1-1.837-.251c-.251-.084-.251-.251-.251-.668V35.369c0-.5-.084-.668-.5-.752-.334-.084-.334-.084-.334-.167v-.084l.084-.084c0-.084.084-.084.251-.084h2.756a2.483,2.483,0,0,1,1.587.334,1.461,1.461,0,0,1,.585,1.169c0,.752-.5,1.253-1.42,1.587a3.334,3.334,0,0,1,1.086.334,1.866,1.866,0,0,1,.835,1.5C167.563,40.381,166.477,41.132,164.723,41.132Zm.668-6.181c-.167-.167-.418-.167-.835-.167h-.668v2.339h.5a1.109,1.109,0,0,0,.835-.251,1.191,1.191,0,0,0,.5-1A1.041,1.041,0,0,0,165.391,34.952Zm0,2.923a1.606,1.606,0,0,0-1-.251h-.5v1.754c0,.5.084.668.251.835a1.021,1.021,0,0,0,.752.251,1.208,1.208,0,0,0,1.253-1.336A1.378,1.378,0,0,0,165.391,37.875Z"
         transform="translate(-96.737 -33.198)"
         id="path159" />
      <path
         class="a"
         d="M176.449,40.665l-.084.167c0,.084-.084.084-.251.084h-2.172c-.167,0-.167,0-.167-.084h0l.084-.167c0-.084.084-.084.167-.167.251-.167.334-.167.334-.334,0-.084,0-.167-.167-.5l-.251-.752h-2.422l-.334,1c-.084.167-.084.167-.084.251,0,.167.167.251.334.334a.292.292,0,0,1,.167.084v.167c0,.084-.084.084-.251.084h-1.5c-.167,0-.251,0-.251-.084v-.084l.084-.167a.082.082,0,0,1,.084-.084.307.307,0,0,0,.251-.084c.334-.084.418-.251.668-.919l1.5-3.758a2.582,2.582,0,0,0,.167-.668c0-.334-.167-.5-.668-.585a.292.292,0,0,1-.167-.084v-.084l.084-.167c0-.084.084-.167.334-.167h1.5c.167,0,.167,0,.251.084,0,.084,0,.084.251.752.585,1.67,1.253,3.341,1.754,4.51.334.835.334.835.835,1a1.118,1.118,0,0,0-.084.418Zm-3.758-5.011-1,2.673h2Z"
         transform="translate(-98.022 -33.148)"
         id="path161" />
    </g>
    <path
       class="a"
       d="M90.348,55.483a5.24,5.24,0,0,1-2.923.752,7.231,7.231,0,0,1-2.255-.251c-.251-.084-.334-.251-.334-.919V49.72a1.412,1.412,0,0,0-.167-.752c-.084-.084-.167-.084-.585-.251-.084.167-.084.084-.084,0v-.084l.084-.167c0-.084.084-.167.334-.167h3.257a4.864,4.864,0,0,1,3.007.668,3.254,3.254,0,0,1,1.42,2.923A4.017,4.017,0,0,1,90.348,55.483Zm-1.086-6.1a3.923,3.923,0,0,0-2-.334h-.835v5.011c0,.835.084,1.086.334,1.253a1.9,1.9,0,0,0,1.086.251c1.67,0,2.589-1.253,2.589-3.424C90.431,50.722,90.1,49.8,89.262,49.386Z"
       transform="translate(-83.916 -35.521)"
       id="path165" />
    <path
       class="a"
       d="M98.324,56.516A3.387,3.387,0,0,1,94.9,53.091,3.534,3.534,0,0,1,98.575,49.5a3.318,3.318,0,0,1,3.341,3.424A3.618,3.618,0,0,1,98.324,56.516Zm.084-6.431c-1.253,0-2.088,1.086-2.088,2.756a3.506,3.506,0,0,0,.752,2.422,1.971,1.971,0,0,0,1.336.585,1.662,1.662,0,0,0,1.336-.585,3.535,3.535,0,0,0,.668-2.339C100.5,51.17,99.661,50.085,98.408,50.085Z"
       transform="translate(-85.713 -35.719)"
       id="path167" />
    <path
       class="a"
       d="M109.544,56.349c-.251,0-.334,0-.418-.251l-1.5-2.673h-.835V55.1c0,.585,0,.668.418.752.334.084.334.084.334.167V56.1l-.084.167c0,.084-.084.084-.251.084h-2.339c-.167,0-.167,0-.167-.084v-.084l.084-.167c0-.084.084-.084.251-.167.334-.084.418-.251.418-.752V50.753c0-.585-.084-.668-.418-.752-.251-.084-.334-.084-.334-.167v-.251c0-.084.084-.084.251-.084h2.923c.835,0,1.253.084,1.587.418a1.558,1.558,0,0,1,.585,1.336,2.062,2.062,0,0,1-1.253,1.921c1.169,1.921,1.754,2.756,2.088,2.923v.251Zm-1.253-6.014a1.207,1.207,0,0,0-.919-.251h-.752v2.756h.585a1.043,1.043,0,0,0,1-.418,1.652,1.652,0,0,0,.418-1.169A.994.994,0,0,0,108.291,50.335Z"
       transform="translate(-87.328 -35.719)"
       id="path169" />
    <path
       class="a"
       d="M119.632,56.082l-.084.167c0,.084-.084.084-.251.084h-2.172c-.167,0-.167,0-.167-.084h0l.084-.167c0-.084.084-.084.167-.167.251-.167.334-.167.334-.334,0-.084,0-.167-.167-.5l-.251-.752h-2.506l-.334,1c-.084.167-.084.167-.084.251,0,.167.167.251.334.334A.292.292,0,0,1,114.7,56v.167c0,.084-.084.084-.251.084h-1.5c-.167,0-.251,0-.251-.084v-.084l.084-.167a.082.082,0,0,1,.084-.084.307.307,0,0,0,.251-.084c.334-.084.418-.251.668-.919l1.5-3.758a2.582,2.582,0,0,0,.167-.668c0-.334-.167-.5-.668-.585a.292.292,0,0,1-.167-.084v-.084l.084-.084c0-.084.084-.167.334-.167h1.5c.167,0,.167,0,.251.084,0,.084,0,.084.251.752.585,1.67,1.253,3.341,1.754,4.51.334.835.334.835.835,1v.334Zm-3.758-5.011-1,2.673h2Z"
       transform="translate(-88.646 -35.703)"
       id="path171" />
    <path
       class="a"
       d="M127.012,55.781a4.13,4.13,0,0,1-2.589.668A5.291,5.291,0,0,1,122.5,56.2c-.251-.084-.251-.167-.251-.835V50.769c0-.418,0-.5-.167-.585-.084-.084-.084-.084-.5-.167-.084,0-.084,0-.084-.084v-.251c0-.084.084-.084.251-.084h2.84a4.7,4.7,0,0,1,2.673.585,2.831,2.831,0,0,1,1.253,2.589A3.47,3.47,0,0,1,127.012,55.781Zm-1-5.345a3.221,3.221,0,0,0-1.754-.251h-.668v4.427c0,.752.084.919.334,1.086a1.5,1.5,0,0,0,.919.251c1.42,0,2.255-1.086,2.255-3.007A2.59,2.59,0,0,0,126.01,50.435Z"
       transform="translate(-90.096 -35.735)"
       id="path173" />
    <path
       class="a"
       d="M137.6,55.33l-.334.668c-.084.167-.167.251-.334.251a3.688,3.688,0,0,1-1.42.167,3.944,3.944,0,0,1-2.673-.835,3.362,3.362,0,0,1-1.336-2.673,3.54,3.54,0,0,1,3.758-3.508,5.471,5.471,0,0,1,2.088.418c.167.084.167.167.167.334v.585c0,.167,0,.167-.084.251l-.167.167h-.084l-.251-.251a1.855,1.855,0,0,0-1.67-.835c-1.42,0-2.255,1-2.255,2.756,0,1.837,1,3.007,2.506,3.007a2.393,2.393,0,0,0,1.67-.668.259.259,0,0,1,.167-.084.18.18,0,0,1,.167.167C137.6,55.246,137.6,55.246,137.6,55.33Z"
       transform="translate(-91.744 -35.703)"
       id="path175" />
    <path
       class="a"
       d="M143.324,56.071a3.387,3.387,0,0,1-3.424-3.424,3.534,3.534,0,0,1,3.675-3.591,3.318,3.318,0,0,1,3.341,3.424A3.618,3.618,0,0,1,143.324,56.071Zm.084-6.431c-1.253,0-2.088,1.086-2.088,2.756a3.506,3.506,0,0,0,.752,2.422,1.971,1.971,0,0,0,1.336.585,1.662,1.662,0,0,0,1.336-.585,3.535,3.535,0,0,0,.668-2.339C145.5,50.725,144.577,49.64,143.408,49.64Zm.919-1.67-1.5.835-.251-.334,1.253-1.169c.5-.5.585-.5.752-.5a.447.447,0,0,1,.418.418C144.995,47.468,144.828,47.635,144.327,47.969Z"
       transform="translate(-93.128 -35.274)"
       id="path177" />
    <path
       class="a"
       d="M159.023,49.775v.167c0,.084-.084.084-.084.167l-.251.084c-.251.084-.334.251-.5.668l-1.67,5.262c-.084.251-.167.334-.251.334h-.585c-.251,0-.251,0-.334-.418l-1.42-4.427-1.5,4.51c-.084.251-.167.334-.251.334h-.5c-.251,0-.251-.084-.334-.418l-1.587-5.011c-.167-.585-.251-.752-.585-.835-.084-.084-.167-.084-.167-.167v-.084l.084-.167c.083-.084.083-.084.251-.084h2.255c.167,0,.167,0,.167.084v.084l-.084.167c-.084.167-.084.167-.334.251a.426.426,0,0,0-.334.418.631.631,0,0,0,.084.334l1.169,4.009,1.67-5.011c.084-.251.084-.251.251-.251h.5c.084,0,.167,0,.167.251l1.5,5.011,1.253-3.926c.084-.251.084-.251.084-.334q0-.376-.5-.5a.18.18,0,0,1-.167-.167v-.084l.084-.167c0-.084.084-.084.251-.084h1.67q0-.251,0,0Z"
       transform="translate(-94.628 -35.744)"
       id="path179" />
    <g
       transform="translate(0 25.557)"
       id="g203">
      <path
         class="a"
         d="M87.491,67.943h-.418l-.084-.251a.082.082,0,0,0-.084-.084c0-.084,0-.084.251-.084a1.663,1.663,0,0,0,1.42-1.754,1.45,1.45,0,0,0-1.587-1.587h-.668v5.763c0,.668.084.752.5.835.334.084.334.084.334.167v.084l-.084.167c0,.084-.084.167-.251.167H84.151c-.167,0-.251,0-.251-.084V71.2l.084-.167c.084-.084.084-.167.251-.167.418-.084.5-.251.5-.835V65.02c0-.752,0-.752-.752-.919a.082.082,0,0,1-.084-.084v-.084l.084-.167c.084-.084.084-.167.251-.167h3.09a3.417,3.417,0,0,1,2,.418,1.809,1.809,0,0,1,.835,1.587C90.248,66.941,89.162,67.943,87.491,67.943Z"
         transform="translate(-83.9 -63.6)"
         id="path181" />
      <path
         class="a"
         d="M96.124,71.516A3.387,3.387,0,0,1,92.7,68.091,3.534,3.534,0,0,1,96.375,64.5a3.318,3.318,0,0,1,3.341,3.424A3.565,3.565,0,0,1,96.124,71.516Zm.084-6.431c-1.253,0-2.088,1.086-2.088,2.756a3.506,3.506,0,0,0,.752,2.422,1.971,1.971,0,0,0,1.336.585,1.662,1.662,0,0,0,1.336-.585,3.535,3.535,0,0,0,.668-2.339C98.3,66.254,97.461,65.085,96.208,65.085Z"
         transform="translate(-85.35 -63.748)"
         id="path183" />
      <path
         class="a"
         d="M107.912,70.864a4.13,4.13,0,0,1-2.589.668,5.291,5.291,0,0,1-1.921-.251c-.251-.084-.251-.167-.251-.835V65.769c0-.418,0-.5-.167-.585-.084-.084-.084-.084-.5-.167-.084,0-.084,0-.084-.084v-.251c0-.084.084-.084.251-.084h2.84a4.7,4.7,0,0,1,2.673.585,2.831,2.831,0,0,1,1.253,2.589A3.339,3.339,0,0,1,107.912,70.864Zm-.919-5.345a3.221,3.221,0,0,0-1.754-.251h-.752v4.427c0,.752.084.919.334,1.086a1.5,1.5,0,0,0,.919.251c1.42,0,2.255-1.086,2.255-3.007Q108,66.02,106.994,65.519Z"
         transform="translate(-86.949 -63.765)"
         id="path185" />
      <path
         class="a"
         d="M118.249,71.182l-.084.167c0,.084-.084.084-.251.084h-2.172c-.167,0-.167,0-.167-.084h0l.084-.167c0-.084.084-.084.167-.167.251-.167.334-.167.334-.334,0-.084,0-.167-.167-.5l-.251-.752h-2.422l-.334,1c-.084.167-.084.167-.084.251,0,.167.167.251.334.334a.292.292,0,0,1,.167.084v.167c0,.084-.084.084-.251.084h-1.5c-.167,0-.251,0-.251-.084v-.084l.084-.167a.082.082,0,0,1,.084-.084.307.307,0,0,0,.251-.084c.334-.084.418-.251.668-.919l1.5-3.675a2.582,2.582,0,0,0,.167-.668c0-.334-.167-.5-.668-.585a.292.292,0,0,1-.167-.084v-.084l.084-.167c0-.084.084-.167.334-.167h1.5c.167,0,.167,0,.251.084,0,.084,0,.084.251.752.585,1.67,1.253,3.341,1.754,4.51.334.835.334.835.835,1-.167.084-.084.167-.084.334Zm-3.842-5.095-1,2.673h2Z"
         transform="translate(-88.432 -63.748)"
         id="path187" />
      <path
         class="a"
         d="M125.3,64.785l-.167.251c-.084.167-.167.167-.5.167h-1.67V70.13c0,.585,0,.668.418.752.251.084.334.084.334.167V71.3c0,.084-.084.084-.251.084h-2.339c-.167,0-.167,0-.167-.084v-.084l.084-.167c0-.084.084-.167.251-.167.334-.084.418-.251.418-.752V65.2h-2.088c-.251,0-.418,0-.418-.167a.259.259,0,0,1,.084-.167l.334-.585a.082.082,0,0,1,.084-.084h.084c.418.251.668.251,1.67.251h3.675c.334,0,.334,0,.334.084C125.3,64.7,125.3,64.7,125.3,64.785Z"
         transform="translate(-89.717 -63.699)"
         id="path189" />
      <path
         class="a"
         d="M132.878,71.449c-.5,0-.585-.084-1.253-.919l-1.837-2.422V70.2c0,.585,0,.668.418.752.334.084.334.084.334.167V71.2l-.084.167c0,.084-.084.084-.251.084h-2.339c-.167,0-.167,0-.167-.084v-.084l.084-.167c0-.084.084-.167.251-.167.334-.084.418-.251.418-.752V65.853c0-.585,0-.668-.418-.752-.334-.084-.334-.084-.334-.167v-.251c0-.084.084-.084.251-.084h2.339c.167,0,.167,0,.167.084v.251c0,.084-.084.084-.251.167-.334.084-.418.251-.418.752v1.921l2.589-3.174h1.169v.167c0,.167,0,.167-.418.418-.334.167-.334.251-.835.835l-1.336,1.587c2.255,2.756,2.589,3.174,3.09,3.508v.251h-1.169Z"
         transform="translate(-91.118 -63.765)"
         id="path191" />
      <path
         class="a"
         d="M139.124,71.516a3.387,3.387,0,0,1-3.424-3.424,3.534,3.534,0,0,1,3.675-3.591,3.318,3.318,0,0,1,3.341,3.424A3.565,3.565,0,0,1,139.124,71.516Zm.167-6.431c-1.253,0-2.088,1.086-2.088,2.756a3.506,3.506,0,0,0,.752,2.422,1.971,1.971,0,0,0,1.336.585,1.662,1.662,0,0,0,1.336-.585,3.535,3.535,0,0,0,.668-2.339C141.3,66.254,140.461,65.085,139.291,65.085Z"
         transform="translate(-92.436 -63.748)"
         id="path193" />
      <path
         class="a"
         d="M154.839,64.775v.167c0,.084-.084.084-.084.167l-.251.084c-.251.084-.334.251-.5.668l-1.67,5.262c-.084.251-.167.334-.251.334h-.5c-.251,0-.251,0-.334-.418l-1.42-4.427-1.5,4.51c-.084.251-.167.334-.251.334h-.5c-.251,0-.251-.084-.334-.418l-1.587-5.011c-.167-.585-.251-.752-.585-.835-.084-.084-.167-.084-.167-.167v-.084l.084-.167c.084-.084.084-.084.251-.084h2.255c.167,0,.167,0,.167.084v.084l-.084.167c-.084.167-.084.167-.334.251a.426.426,0,0,0-.334.418.631.631,0,0,0,.084.334l1.169,4.009,1.67-5.011c.084-.251.084-.251.251-.251h.5c.084,0,.167,0,.167.251l1.5,5.011,1.253-3.925c.084-.251.084-.251.084-.334q0-.376-.5-.5a.18.18,0,0,1-.167-.167v-.084l.084-.167c0-.084.084-.084.251-.084h1.67c-.084-.167,0-.167-.084,0C154.923,64.692,154.923,64.775,154.839,64.775Z"
         transform="translate(-93.952 -63.773)"
         id="path195" />
      <path
         class="a"
         d="M163.514,64.767v.084a.292.292,0,0,1-.084.167.841.841,0,0,1-.251.084c-.251.084-.334.251-.585.752l-1.253,2.255a2.088,2.088,0,0,0-.334,1.169v1c0,.668,0,.668.668.835.084,0,.084,0,.084.084v.084l-.084.167c0,.084-.084.084-.251.084h-2.339c-.167,0-.167,0-.167-.084v-.084L159,71.2c0-.084.084-.167.251-.167.334-.084.418-.251.418-.752V68.86L158.335,66.1c-.084-.167-.167-.418-.251-.585-.167-.251-.167-.251-.5-.418l-.084-.084v-.084l.084-.167c0-.084.084-.084.334-.084h1.921c.251,0,.251,0,.251.084h0v.167c0,.084,0,.084-.084.167-.084,0-.084.084-.167.084-.167.084-.167.167-.167.334s.084.251.167.5l1.086,2.172,1.336-2.422c.084-.167.167-.251.167-.418s-.084-.167-.418-.334a.082.082,0,0,1-.084-.084v-.084l.084-.167c0-.084.084-.084.251-.084h1.42c-.251,0-.167,0-.167.167Z"
         transform="translate(-96.028 -63.765)"
         id="path197" />
      <path
         class="a"
         d="M170.8,70.43l-.334.668c-.084.167-.167.251-.334.251a3.688,3.688,0,0,1-1.42.167,3.944,3.944,0,0,1-2.673-.835,3.363,3.363,0,0,1-1.336-2.673,3.54,3.54,0,0,1,3.758-3.508,5.471,5.471,0,0,1,2.088.418c.167.084.167.167.167.334v.5c0,.167,0,.167-.084.251l-.167.167h-.084l-.251-.251a1.855,1.855,0,0,0-1.67-.835c-1.42,0-2.255,1-2.255,2.756,0,1.837,1,3.007,2.506,3.007a2.393,2.393,0,0,0,1.67-.668.259.259,0,0,1,.167-.084.18.18,0,0,1,.167.167C170.881,70.263,170.881,70.263,170.8,70.43Z"
         transform="translate(-97.215 -63.748)"
         id="path199" />
      <path
         class="a"
         d="M180.532,64.767l-.084.167c0,.084-.084.084-.251.167-.334.084-.418.251-.418.752V70.2c0,.585,0,.668.418.752.334.084.334.084.334.167V71.2l-.084.167c0,.084-.084.084-.251.084H177.86c-.167,0-.167,0-.167-.084v-.084l.084-.167c0-.084.084-.167.251-.167.334-.084.418-.251.418-.752V68.024H175.6V70.2c0,.585,0,.668.418.752.251.084.334.084.334.167v.251c0,.084-.084.084-.251.084h-2.339c-.167,0-.167,0-.167-.084v-.084l.084-.167c0-.084.084-.167.251-.167.334-.084.418-.251.418-.752V65.853c0-.585,0-.668-.418-.752-.251-.084-.334-.084-.334-.167v-.251c0-.084.084-.084.251-.084h2.339c.167,0,.167,0,.167.084v.084l-.084.167c0,.084-.084.084-.251.167-.334.084-.418.251-.418.752V67.44h2.84V65.853c0-.585,0-.668-.418-.752-.334-.084-.334-.084-.334-.167v-.084l.084-.167c0-.084.084-.084.251-.084h2.339c.167,0,.251,0,.167.167C180.616,64.684,180.616,64.767,180.532,64.767Z"
         transform="translate(-98.681 -63.765)"
         id="path201" />
    </g>
  </g>
  <path
     class="a"
     d="M68.078,62.283a13.014,13.014,0,0,0,1.67-.752c10.106-5.262-1.587-17.623-1.587-29.734,0-19.795,33.743-29.065,83.187-9.354,0,0,8.853,3.007,8.436,3.675-.585,1.086-31.153-9.688-50.113-10.774-14.449-.835-24.388,1.086-30.986,5.429-5.178,3.341-8.018,8.686-6.515,16.788C75.177,49,79.353,54.6,75.762,59.443c-3.007,4.093-7.517,3.758-8.269,3.341C67.326,62.533,67.827,62.366,68.078,62.283Z"
     transform="translate(-11.31 -1.98)"
     id="path207" />
  <path
     style="fill:#0000ff;stroke:none;stroke-width:0.0889244"
     d="m 0.12439246,34.930495 c -0.35709384,-0.667236 0.50382584,-4.275956 1.48549424,-6.226752 0.9279077,-1.843961 2.4142015,-3.355062 4.2146634,-4.285006 2.4166343,-1.2482 5.4208449,-2.104325 8.2453829,-2.349726 0.500014,-0.04344 0.97137,-0.130651 1.047456,-0.193798 0.07609,-0.06315 0.443608,-0.573211 0.816713,-1.133478 0.750861,-1.127518 1.281257,-1.817501 1.867052,-2.428818 l 0.38874,-0.405676 -0.09117,-2.173132 C 17.938119,11.905653 17.647311,10.347689 16.763574,8.5812074 16.128573,7.3119167 15.422809,6.3086778 14.198741,4.9353124 13.702106,4.3781026 13.330098,3.9009862 13.372057,3.8750538 c 0.04196,-0.025932 0.605409,-0.087416 1.25211,-0.1366311 2.666105,-0.2028941 5.119797,0.2847419 6.442024,1.28026 1.016473,0.7653127 1.792258,1.9970107 2.073184,3.291549 0.224416,1.0341334 0.146109,1.0498215 -0.749344,0.150126 -1.7174,-1.7255372 -3.270759,-2.6669025 -4.069776,-2.4663622 -0.295672,0.074209 -0.283199,0.2000041 0.07956,0.8024279 0.673897,1.1191177 1.275391,2.9998941 1.479111,4.6249486 0.119983,0.95709 0.07422,3.093658 -0.09414,4.395652 -0.05294,0.409383 -0.07817,0.762411 -0.05608,0.784507 0.0221,0.0221 0.196149,-0.05829 0.386782,-0.178628 0.578522,-0.365204 1.549208,-0.825435 2.16008,-1.024158 1.694117,-0.55111 3.651863,-0.663012 10.715394,-0.612475 5.299141,0.03791 5.759275,0.05353 6.679966,0.226662 1.084098,0.203863 1.779935,0.440046 2.779331,0.943365 l 0.655779,0.330265 -0.0668,-0.606935 c -0.24263,-2.204558 -0.182047,-4.206875 0.171699,-5.674782 0.276329,-1.1466519 0.817185,-2.5463362 1.26829,-3.282214 C 44.789886,6.2158602 44.795093,6.1935808 44.631549,6.0709685 44.51941,5.9868962 44.340194,5.9600384 44.100957,5.9914523 43.203781,6.1092597 42.142069,6.8175681 40.571771,8.3459092 L 39.615833,9.2763045 V 8.9252077 c 0,-1.0155436 0.707883,-2.5216995 1.610349,-3.4263223 1.372517,-1.3757975 3.841891,-1.9935587 7.013218,-1.754491 0.659325,0.049703 1.214376,0.1059712 1.233446,0.125041 0.0471,0.047098 -0.168589,0.3180813 -1.026984,1.2902786 -1.79897,2.0374672 -2.810534,3.8445987 -3.231345,5.772709 -0.215974,0.989565 -0.413573,2.951128 -0.49097,4.873835 l -0.06174,1.533886 0.637739,0.671375 c 1.443416,1.519541 2.220762,3.339101 2.807863,6.572453 0.423111,2.330214 0.734402,3.27452 1.524238,4.623798 0.55133,0.941837 1.707527,2.117492 2.87256,2.920905 0.510419,0.351987 0.921966,0.679993 0.914548,0.728901 -0.023,0.151633 -0.657496,0.237625 -1.309036,0.177412 -3.426711,-0.316689 -5.819695,-2.193711 -6.744854,-5.290566 -0.124194,-0.415722 -0.407712,-1.666487 -0.630041,-2.779478 -0.586642,-2.936766 -1.057083,-4.015325 -2.234179,-5.122215 -0.755609,-0.710541 -1.391452,-1.100028 -2.43684,-1.492692 -1.478444,-0.555326 -1.857389,-0.585446 -7.828696,-0.622258 -7.957169,-0.04905 -9.224703,0.06362 -11.083108,0.985159 -1.202713,0.596399 -2.245085,1.354617 -3.177456,2.311274 -0.802765,0.823675 -1.765594,2.227691 -2.190102,3.193651 l -0.291681,0.663715 -1.299357,0.05605 C 9.9763974,25.119542 7.2706293,25.96717 5.4118381,27.688602 4.7129759,28.33582 4.299061,28.920965 4.128009,29.503531 c -0.1615816,0.55031 -0.011547,0.665691 0.3980204,0.306087 0.4406391,-0.386887 1.3214209,-0.785321 2.2424714,-1.014412 1.1961162,-0.297509 3.3065682,-0.278345 4.8451712,0.044 1.874712,0.392757 2.728588,0.742105 5.148587,2.10645 0.611355,0.344669 1.41284,0.722331 1.781078,0.83925 0.749742,0.238049 1.920067,0.494662 2.255986,0.494662 0.548295,0 0.288054,0.442158 -0.373383,0.634391 -0.515297,0.149761 -2.239279,0.147653 -3.028479,-0.0037 -0.976794,-0.187335 -2.055618,-0.534649 -3.371691,-1.085477 -2.143874,-0.897294 -3.716672,-1.176879 -5.5201438,-0.981275 -2.3253029,0.2522 -4.0751575,1.028096 -6.1808436,2.740622 -1.37368195,1.1172 -1.9287549,1.541028 -2.01822737,1.541028 -0.0428905,0 -0.12486197,-0.0876 -0.18215877,-0.194654 z"
     id="path330" />
  <path
     style="fill:#0000ff;stroke-width:0.0889244"
     d="m 24.587605,8.942719 c 0,-0.2959646 0.275299,-1.3962666 0.535436,-2.1400002 0.583367,-1.6678539 1.439482,-2.9628829 2.958361,-4.4750575 1.489641,-1.4830649 2.626353,-2.25652176 3.3163,-2.25652176 0.731556,0 2.141912,0.96848096 3.57091,2.45211696 0.495955,0.5149182 1.109332,1.2282617 1.363058,1.5852077 0.640016,0.9003836 1.368613,2.4444933 1.627954,3.4501122 0.313038,1.2138307 0.355036,1.5117153 0.21313,1.5117153 -0.159127,0 -1.230021,-1.1096135 -2.574643,-2.6677328 -1.517124,-1.7580097 -2.123082,-2.3067044 -3.060346,-2.7711365 -0.976002,-0.4836281 -1.199523,-0.484197 -2.185706,-0.00556 -0.96878,0.4701881 -1.817635,1.2547647 -3.62955,3.3547082 -1.617179,1.874253 -2.134904,2.3500841 -2.134904,1.9621513 z"
     id="path406" />
  <path
     style="fill:#0000ff;stroke-width:0.0889244"
     d=""
     id="path445" />
  <path
     style="fill:#0000ff;stroke-width:0.0889244"
     d="m 24.765453,12.105179 v -0.900701 h 0.250634 c 0.362189,0 1.157959,-0.251871 1.585109,-0.501706 0.453429,-0.265206 1.134449,-0.9812557 1.336773,-1.4055352 0.237808,-0.4986877 0.322692,-0.3831752 0.274316,0.3732948 -0.05957,0.9314444 -0.340899,1.6352074 -0.882685,2.2080674 -0.498576,0.52717 -1.37457,0.972666 -2.097293,1.066601 l -0.466854,0.06068 z"
     id="path484" />
  <path
     style="fill:#0000ff;stroke-width:0.0889244"
     d="M 37.060702,12.797342 C 36.210446,12.527945 35.457742,11.913976 35.106833,11.203601 34.794852,10.572033 34.575576,9.4990712 34.677066,9.1006737 l 0.06437,-0.252693 0.221928,0.4344672 c 0.486085,0.9516051 1.689068,1.7879071 2.72573,1.8949001 l 0.503945,0.05201 v 0.876803 0.876804 l -0.289004,-0.005 c -0.158953,-0.0027 -0.538454,-0.08403 -0.843336,-0.18063 z"
     id="path523" />
  <path
     style="fill:#0000ff;stroke-width:0.0889244"
     d="m 26.143782,25.893534 c -0.487079,-0.228103 -1.000922,-0.822051 -1.130581,-1.30683 l -0.106785,-0.399259 h -0.475318 c -0.693409,0 -1.63231,-0.239011 -2.097297,-0.533897 -0.523998,-0.33231 -0.769627,-0.802656 -0.769627,-1.473732 0,-0.569364 -0.08006,-0.552918 0.895803,-0.184009 1.38915,0.525145 3.039377,0.529864 5.133859,0.01468 1.795355,-0.441607 2.78064,-0.401893 3.92902,0.158365 0.542359,0.2646 1.237928,0.986068 1.53191,1.588951 0.241961,0.496198 0.416955,1.229961 0.293334,1.229961 -0.03617,0 -0.451444,-0.144685 -0.922841,-0.321523 -0.953577,-0.357721 -2.394024,-0.74557 -2.768999,-0.74557 -0.214595,0 -0.250647,0.04153 -0.299102,0.344554 -0.07954,0.497398 -0.562408,1.162028 -1.072211,1.475806 -0.369796,0.227605 -0.542119,0.273218 -1.111555,0.294222 -0.512122,0.01889 -0.759307,-0.01513 -1.02961,-0.141719 z"
     id="path562" />
  <path
     style="fill:#000080;stroke-width:0.0889244"
     d="m 50.420151,44.279818 c -1.620755,-0.253439 -2.924756,-1.004591 -3.655712,-2.105823 -0.715397,-1.07779 -1.01212,-2.497462 -1.01257,-4.84463 -2.1e-4,-1.096596 -0.02946,-1.386371 -0.180765,-1.790769 -0.200927,-0.537025 -0.95156,-1.417555 -1.685717,-1.977431 -0.428431,-0.326726 -0.439941,-0.3463 -0.247486,-0.420897 0.288815,-0.111947 1.803611,-0.0048 2.380491,0.16834 1.452875,0.436119 2.149414,1.108986 2.681977,2.590832 0.150045,0.417498 0.197734,0.835292 0.251653,2.204678 0.07373,1.872457 0.180005,2.31481 0.772456,3.215144 0.436182,0.662856 1.464033,1.601915 2.409257,2.20113 0.451419,0.286173 0.820762,0.550127 0.820762,0.586566 0,0.182033 -1.72379,0.299608 -2.534346,0.17286 z"
     id="path601" />
  <path
     style="fill:#000080;stroke-width:0.0889244"
     d="m 0.1673253,34.930273 c -0.31611419,-0.511483 0.44392548,-3.899655 1.3055763,-5.820112 0.579654,-1.29194 1.7811625,-2.827816 2.8642576,-3.661352 2.0252033,-1.558569 5.475029,-2.794721 9.0904298,-3.25731 1.884021,-0.241059 1.629004,-0.11055 2.411565,-1.234144 0.961541,-1.380574 1.423687,-1.984406 1.93907,-2.533561 l 0.443579,-0.472647 -0.02216,-0.772295 C 18.160111,15.801482 18.005815,13.313278 17.911875,12.538344 17.710345,10.875869 17.43227,9.88109 16.80572,8.5812074 16.218468,7.362856 15.711277,6.6510548 13.862855,4.4511439 13.461414,3.9733665 13.458757,3.9659804 13.661355,3.8910346 c 0.112917,-0.041771 0.786786,-0.099002 1.497485,-0.127181 3.587424,-0.1422379 6.034133,0.8149272 7.23066,2.8286708 0.379618,0.6388929 0.804146,1.8921904 0.76007,2.2438916 C 23.12209,9.0556847 23.0602,9.0138446 22.110186,8.1337477 20.45053,6.5962373 19.42583,5.9604832 18.604646,5.9588054 c -0.309594,-6.313e-4 -0.440136,0.0381 -0.480188,0.1424738 -0.03219,0.083874 0.131637,0.5173575 0.394872,1.044862 1.21817,2.4411133 1.583672,4.8704348 1.254475,8.3378958 -0.05544,0.583983 -0.07541,1.08718 -0.04438,1.118215 0.03104,0.03104 0.246466,-0.05279 0.478734,-0.186274 1.265809,-0.727472 2.616377,-1.201794 3.979283,-1.397531 0.981071,-0.140898 12.771981,-0.214729 14.268554,-0.08934 1.438923,0.120554 2.568172,0.413047 3.767329,0.975798 l 0.962393,0.451639 -0.04926,-0.241765 c -0.118586,-0.581974 -0.237483,-2.982875 -0.18592,-3.754279 0.133976,-2.004301 0.512419,-3.4555235 1.335529,-5.1213791 0.268061,-0.5425161 0.487383,-1.0319496 0.487383,-1.0876301 0,-0.1429314 -0.392046,-0.2240192 -0.811249,-0.1677924 -0.79187,0.1062121 -1.712827,0.7250608 -3.328193,2.2364221 l -1.016398,0.9509572 0.0546,-0.4283198 c 0.139801,-1.0966332 0.766976,-2.3427282 1.609553,-3.197929 1.270806,-1.2898443 3.51267,-1.9074995 6.445927,-1.7759155 0.720028,0.0323 1.3908,0.088935 1.490604,0.1258549 0.163342,0.060424 0.09033,0.1745301 -0.731133,1.1425861 -2.981822,3.5139598 -3.496672,4.9694066 -3.800352,10.7433476 l -0.08401,1.597252 0.555292,0.581397 c 0.781389,0.818122 1.153638,1.361344 1.657193,2.418333 0.519361,1.090167 0.850482,2.227524 1.290475,4.432605 0.178284,0.893499 0.426568,1.949214 0.551742,2.346033 0.619874,1.965095 1.754271,3.470561 3.728218,4.947741 0.452059,0.338293 0.846635,0.655059 0.876834,0.703923 0.166881,0.270018 -1.509396,0.214402 -2.66456,-0.08841 -2.103737,-0.551464 -3.656513,-1.777242 -4.623794,-3.650077 -0.4266,-0.825976 -0.675625,-1.66029 -1.112145,-3.726037 -0.775439,-3.669626 -1.258637,-4.70625 -2.744988,-5.888941 -0.766504,-0.609908 -1.291132,-0.890681 -2.305191,-1.233707 -1.371408,-0.463906 -1.668022,-0.48039 -8.64387,-0.48039 -7.890254,0 -8.16331,0.0265 -10.092922,0.979555 -1.174739,0.580215 -2.252289,1.373188 -3.16701,2.330616 -0.76161,0.797168 -1.799105,2.310354 -2.173853,3.170565 -0.284984,0.654163 -0.33423,0.67768 -1.419088,0.67768 -2.354329,0 -5.3879605,0.620316 -6.994123,1.430157 -1.7685483,0.891716 -3.2749545,2.48098 -3.2749545,3.455089 0,0.337175 0.1340836,0.347 0.5385015,0.03946 0.4337197,-0.329822 1.4433586,-0.784531 2.1736936,-0.978961 0.9474073,-0.252219 3.5660994,-0.227765 4.8463814,0.04526 1.444358,0.308012 2.414234,0.668968 3.912675,1.456171 2.243853,1.178802 2.501448,1.301157 3.230541,1.534466 0.382907,0.12253 1.040138,0.28276 1.460513,0.356067 0.420374,0.07331 0.783057,0.152026 0.805961,0.174929 0.08339,0.08339 -0.183687,0.306423 -0.502129,0.419322 -0.218343,0.07741 -0.767811,0.112397 -1.66022,0.105711 -1.610574,-0.01207 -2.222956,-0.155705 -4.631879,-1.086442 -2.068025,-0.799024 -2.835964,-0.992577 -4.192155,-1.056598 -2.2837144,-0.107806 -4.3226218,0.427574 -6.1739693,1.621172 -0.358983,0.231444 -1.2799351,0.915982 -2.0465605,1.521196 -0.7666252,0.605213 -1.43453146,1.100389 -1.48423605,1.100389 -0.0497046,0 -0.11983882,-0.04768 -0.15585385,-0.105952 z"
     id="path825" />
  <path
     style="fill:#000080;stroke-width:0.0889244"
     d="m 24.713546,8.529601 c 0.08652,-0.6522069 0.599662,-2.1608704 1.013105,-2.9785702 0.507435,-1.0035941 1.138515,-1.8609739 2.130509,-2.8944908 1.511304,-1.5745639 2.826337,-2.50919332 3.527966,-2.50742098 0.932611,0.002356 2.862718,1.50906948 4.556668,3.55710468 0.569978,0.6891195 1.387619,2.1846873 1.7415,3.1854195 0.285451,0.8072163 0.558942,1.981247 0.479939,2.060251 -0.09187,0.091867 -0.52682,-0.3520427 -2.382036,-2.4310928 -1.746836,-1.9575952 -2.39383,-2.5336126 -3.368243,-2.998744 -0.746315,-0.35625 -1.195365,-0.3552499 -1.962107,0.00437 -1.041397,0.4884391 -1.883079,1.2623067 -3.950262,3.631989 -0.914084,1.0478449 -1.664989,1.8229508 -1.766035,1.8229508 -0.04587,0 -0.05497,-0.1957123 -0.021,-0.4517663 z"
     id="path864" />
  <path
     style="fill:#000080;stroke-width:0.0889244"
     d="m 24.765453,12.099715 v -0.895237 h 0.341777 c 1.030968,0 2.239094,-0.798135 2.885095,-1.906005 l 0.158979,-0.2726435 -0.03279,0.7278754 c -0.05735,1.2732411 -0.657271,2.1869181 -1.821981,2.7748621 -0.285691,0.144216 -0.677031,0.28894 -0.869644,0.321608 -0.192613,0.03267 -0.420233,0.07861 -0.505823,0.102087 -0.140729,0.03861 -0.155618,-0.04296 -0.155618,-0.852547 z"
     id="path940" />
  <path
     style="fill:#000080;stroke-width:0.0889244"
     d=""
     id="path979" />
  <path
     style="fill:#000080;stroke-width:0.0889244"
     d="m 26.143782,25.831073 c -0.550754,-0.294661 -0.922594,-0.776347 -1.142736,-1.480318 -0.03462,-0.11071 -0.198708,-0.162479 -0.652241,-0.205777 -1.301728,-0.124273 -2.273117,-0.561123 -2.551308,-1.147367 -0.145705,-0.30705 -0.231247,-1.064994 -0.131459,-1.164783 0.02818,-0.02818 0.426958,0.07926 0.886165,0.238772 0.814128,0.282791 0.871463,0.289928 2.302175,0.286571 1.318448,-0.0031 1.596081,-0.03226 2.737534,-0.287564 1.844196,-0.412489 2.904478,-0.368428 3.931798,0.163388 0.399944,0.207041 1.115231,0.918772 1.382312,1.375441 0.219803,0.37583 0.463722,1.162576 0.384882,1.241416 -0.02566,0.02566 -0.463786,-0.09433 -0.973616,-0.266632 -1.205265,-0.407341 -2.211364,-0.663549 -2.605686,-0.663549 -0.290391,0 -0.322475,0.02693 -0.407282,0.34188 -0.130665,0.485252 -0.520807,1.029152 -0.98121,1.367912 -0.363381,0.267373 -0.457111,0.293133 -1.154029,0.317173 -0.565812,0.01952 -0.826303,-0.0101 -1.025299,-0.116563 z"
     id="path1018" />
  <path
     style="fill:#000080;stroke-width:0.0889244"
     d="m 26.051068,25.711349 c -0.360567,-0.21988 -0.708845,-0.644686 -0.92011,-1.122286 -0.151314,-0.34207 -0.215354,-0.397433 -0.513726,-0.444117 -1.152476,-0.180321 -1.464991,-0.260283 -1.970436,-0.504164 -0.356466,-0.171997 -0.622746,-0.3705 -0.727025,-0.541973 -0.160198,-0.263424 -0.329495,-1.101295 -0.240504,-1.190285 0.02443,-0.02443 0.398688,0.06817 0.831678,0.205773 0.745122,0.236807 0.87292,0.249981 2.387895,0.246159 1.392007,-0.0035 1.747936,-0.03539 2.730701,-0.244543 1.449272,-0.308439 2.542771,-0.324195 3.365587,-0.04849 0.485583,0.162705 0.675669,0.295035 1.245433,0.867013 0.575851,0.578089 0.699208,0.757991 0.859184,1.253012 0.102738,0.317904 0.175226,0.589767 0.161084,0.604138 -0.01414,0.01437 -0.64087,-0.162358 -1.392731,-0.392733 -0.983982,-0.301498 -1.526521,-0.420944 -1.936264,-0.42629 l -0.569246,-0.0074 -0.126601,0.375743 c -0.142373,0.422556 -0.806929,1.209652 -1.187478,1.406441 -0.382487,0.197792 -1.651589,0.174939 -1.997441,-0.03597 z"
     id="path1057" />
  <path
     style="fill:#000080;stroke-width:0.0889244"
     d="m 37.517377,12.850849 c -1.031066,-0.22432 -1.954609,-0.87572 -2.355395,-1.661327 -0.242674,-0.47568 -0.437134,-1.2801891 -0.436158,-1.8044466 l 8.34e-4,-0.4481703 0.256079,0.4464389 c 0.574127,1.000914 1.600457,1.66663 2.876839,1.866024 l 0.333466,0.05209 v 0.840753 c 0,0.462414 -0.03001,0.837571 -0.06669,0.833683 -0.03668,-0.0039 -0.310719,-0.06016 -0.608972,-0.125048 z"
     id="path1096" />
  <path
     style="fill:#000080;stroke-width:0.0889244"
     d="m 13.383127,51.123043 c 0,-0.130741 0.230406,-0.446631 1.288028,-1.765898 1.484079,-1.851226 2.269501,-3.198538 2.537351,-4.352568 0.271515,-1.169814 -0.221866,-3.752599 -1.127069,-5.900059 -0.336569,-0.798461 -0.434786,-0.955938 -0.59621,-0.955938 -0.777961,0 -3.288589,-0.220986 -4.50306,-0.39636 C 8.8890558,37.449968 7.6821449,37.033962 6.4470211,36.189019 5.6956254,35.674992 4.8463814,34.673336 4.8463814,34.301116 c 0,-0.202463 -0.1141473,-0.228552 1.467253,0.335343 3.7973456,1.354055 7.4622586,1.611505 10.6264696,0.74648 l 0.666933,-0.182325 0.338992,0.380091 c 0.968774,1.086224 1.770007,3.276754 2.146894,5.869491 0.284707,1.958607 0.126024,3.242674 -0.575951,4.660598 -0.952624,1.924212 -3.280955,4.009569 -5.442053,4.874144 -0.667614,0.267088 -0.691792,0.271915 -0.691792,0.138105 z"
     id="path1135" />
  <path
     style="fill:#000080;stroke-width:0.0889244"
     d="M 50.79927,60.738221 C 49.654831,60.529884 48.796783,60.115678 48.036668,59.404627 47.375622,58.786252 47.017974,58.166199 46.67426,57.04263 l -0.244097,-0.797929 -0.05027,-4.226117 -0.05027,-4.226117 -0.29414,-0.597148 c -0.282573,-0.573664 -0.890195,-1.281575 -1.649304,-1.921528 -0.188543,-0.158947 -0.321545,-0.310255 -0.295561,-0.336239 0.100969,-0.100969 1.669433,-0.03264 2.228847,0.09709 1.401982,0.325142 2.327937,1.085132 2.735736,2.245394 0.376635,1.071593 0.445914,1.798973 0.510821,5.363223 0.0622,3.415465 0.06289,3.424884 0.292044,3.968676 0.126333,0.299797 0.389475,0.779989 0.584759,1.067093 0.451364,0.663589 1.655585,1.816267 2.489437,2.382886 0.354586,0.240947 0.644702,0.466373 0.644702,0.500944 0,0.03457 -0.09004,0.08994 -0.20008,0.123038 -0.327643,0.09855 -2.123434,0.135003 -2.577618,0.05232 z"
     id="path1174" />
  <path
     style="fill:#000080;stroke-width:0.0889244"
     d="m 56.646397,60.907573 c -0.658517,-0.16564 -0.610201,-0.277841 0.265237,-0.615946 1.731263,-0.668634 3.368546,-1.745257 4.174263,-2.744856 1.146187,-1.421996 1.530216,-2.743777 1.448201,-4.984526 C 62.45867,50.501478 61.967574,48.515206 60.553393,44.551139 57.933035,37.20606 57.217175,34.546118 56.950562,31.16398 56.61442,26.899815 57.89544,22.861719 60.616563,19.607837 c 4.167243,-4.983135 11.517015,-8.280756 21.193912,-9.509072 3.052381,-0.387447 4.244597,-0.4472573 8.892442,-0.4461097 4.843925,0.0012 6.234732,0.073018 10.359013,0.5349417 11.00086,1.232108 22.95812,4.252295 35.25922,8.905843 1.61398,0.610574 3.95491,1.480868 5.20208,1.933989 4.68838,1.703383 7.14288,2.81096 6.85884,3.095001 -0.22427,0.22427 -2.72584,-0.379801 -10.72705,-2.59034 -15.52403,-4.288905 -24.18221,-6.295184 -32.06665,-7.430503 -4.64687,-0.669126 -7.01812,-0.848285 -12.084333,-0.913025 -4.036672,-0.05158 -6.182716,0.01751 -9.02583,0.290607 -8.921186,0.856922 -15.926813,3.521163 -19.963534,7.592136 -2.867878,2.892212 -4.197342,6.456856 -4.064137,10.897027 0.09095,3.031552 0.397356,4.267614 2.953853,11.915874 2.096187,6.271151 2.355801,7.294571 2.354603,9.28202 -0.0011,1.792896 -0.47953,3.173609 -1.578584,4.555498 -1.224756,1.539939 -2.746901,2.534721 -4.624755,3.022459 -0.791659,0.20562 -2.385498,0.295133 -2.909256,0.16339 z"
     id="path1213" />
  <path
     style="fill:#000080;stroke-width:0.0889244"
     d="m 77.942262,35.163766 c 0,-0.139316 0.199188,-0.394314 0.308012,-0.394314 0.06815,0 0.186789,-0.06288 0.263645,-0.139739 0.120887,-0.120887 0.139738,-0.5033 0.139738,-2.834693 0,-2.889839 0.01086,-2.821512 -0.46735,-2.941534 -0.158513,-0.03978 -0.244045,-0.120205 -0.244045,-0.22946 0,-0.160014 0.09639,-0.168114 1.978568,-0.166256 1.739938,0.0017 2.022714,0.022 2.34459,0.16817 0.758088,0.344262 1.08956,1.194537 0.834682,2.141082 -0.104126,0.386697 -0.616586,1.003728 -1.012906,1.219599 -0.154092,0.08393 -0.09852,0.196637 0.675764,1.370448 0.464015,0.703448 0.949734,1.376007 1.079376,1.494577 0.129641,0.118569 0.235711,0.248621 0.235711,0.289004 0,0.04038 -0.356973,0.07342 -0.793274,0.07342 H 82.491499 L 81.677088,33.746821 80.862677,32.279568 H 80.4251 79.987524 v 1.145129 c 0,1.223376 0.01872,1.279108 0.46735,1.391708 0.2707,0.06794 0.265381,0.06075 0.190069,0.257009 -0.04588,0.119551 -0.252724,0.14066 -1.378329,0.14066 -0.728394,0 -1.324352,-0.02264 -1.324352,-0.05031 z m 3.28728,-3.562317 c 0.405701,-0.341375 0.625395,-0.831798 0.625395,-1.396071 0,-0.823375 -0.487196,-1.216014 -1.508859,-1.216014 h -0.536403 v 1.422791 1.422791 h 0.571186 c 0.486825,0 0.61217,-0.03449 0.848681,-0.233497 z"
     id="path1252" />
  <path
     style="fill:#000080;stroke-width:0.0889244"
     d="m 69.939063,35.098472 c 0,-0.160298 0.184455,-0.32902 0.359701,-0.32902 0.08046,0 0.213033,-0.07376 0.294619,-0.163911 0.133518,-0.147536 0.145999,-0.473999 0.124937,-3.267973 l -0.0234,-3.104062 -0.333467,-0.162941 c -0.370624,-0.181098 -0.398803,-0.248103 -0.191513,-0.455393 0.120143,-0.120143 0.355642,-0.138197 1.53282,-0.117507 1.229688,0.02161 1.394248,0.04206 1.420046,0.176438 0.01979,0.103095 -0.07052,0.193647 -0.28072,0.281476 -0.170445,0.07122 -0.354183,0.212227 -0.408306,0.313358 -0.06292,0.117569 -0.08955,0.670265 -0.07385,1.532714 l 0.02455,1.348841 1.493424,-1.836422 1.493425,-1.836421 h 0.61853 c 0.563934,0 0.618531,0.01606 0.618531,0.181984 0,0.112738 -0.106508,0.239626 -0.27991,0.333467 -0.525203,0.28423 -1.143352,0.918058 -2.627044,2.693683 -0.102656,0.122854 0.113602,0.414894 1.661241,2.243375 0.978593,1.156174 1.77926,2.143036 1.77926,2.193025 0,0.124157 -1.444097,0.117887 -1.719214,-0.0075 -0.118726,-0.0541 -0.850901,-0.912176 -1.627055,-1.906846 -0.776153,-0.99467 -1.4412,-1.810754 -1.477881,-1.81352 -0.03668,-0.0028 -0.06669,0.646331 -0.06669,1.442438 0,1.602703 0.04936,1.777022 0.530357,1.873223 0.281162,0.05623 0.345988,0.213618 0.163254,0.396351 -0.158974,0.158975 -3.005646,0.150553 -3.005646,-0.0089 z"
     id="path1402" />
  <path
     style="fill:#000080;stroke-width:0.0889244"
     d="m 89.057815,35.127812 c 0,-0.04744 0.120048,-0.175018 0.266774,-0.283497 0.31962,-0.236305 0.326951,-0.357791 0.06669,-1.105223 l -0.20008,-0.574606 -1.236818,0.02439 -1.236817,0.02439 -0.208205,0.617561 c -0.264584,0.784794 -0.262573,0.81701 0.06148,0.984582 0.148324,0.0767 0.246003,0.17777 0.217063,0.224595 -0.06147,0.09945 -1.910192,0.117324 -1.908173,0.01844 0.0027,-0.130637 0.136504,-0.246611 0.453581,-0.393042 0.312358,-0.144251 0.348391,-0.215577 1.259645,-2.493464 0.515949,-1.28973 0.965147,-2.4892 0.998219,-2.665488 0.0781,-0.416295 -0.06373,-0.671655 -0.425055,-0.765282 -0.19893,-0.05155 -0.286952,-0.127178 -0.286952,-0.246553 0,-0.158393 0.07861,-0.174197 0.98056,-0.197154 l 0.98056,-0.02496 0.558491,1.536673 c 0.30717,0.84517 0.829025,2.196937 1.159679,3.003926 0.504697,1.231759 0.646052,1.495798 0.880714,1.645102 0.275821,0.175491 0.337986,0.34005 0.232401,0.615198 -0.04576,0.119248 -0.248806,0.14066 -1.333866,0.14066 -0.767645,0 -1.279891,-0.03452 -1.279891,-0.08626 z m -0.111522,-2.514778 c -0.02289,-0.06114 -0.254182,-0.682469 -0.513971,-1.380741 -0.259789,-0.698273 -0.502491,-1.238488 -0.539337,-1.20048 -0.08533,0.08802 -0.969356,2.448022 -0.969356,2.587801 0,0.07415 0.300348,0.104576 1.032145,0.104576 0.788634,0 1.022324,-0.02622 0.990519,-0.111156 z"
     id="path1441" />
  <path
     style="fill:#000080;stroke-width:0.0889244"
     d="m 93.098665,32.146181 c 4.2e-5,-1.418345 0.01232,-1.986125 0.02728,-1.261733 0.01496,0.724391 0.01493,1.884855 -7.7e-5,2.578808 -0.01501,0.693953 -0.02725,0.10127 -0.02721,-1.317075 z"
     id="path1480" />
  <path
     style="fill:#000080;stroke-width:0.0889244"
     d="m 92.436944,36.886594 c 0,-0.101042 0.137137,-0.335506 0.304748,-0.521032 0.208443,-0.230722 0.322097,-0.45894 0.359645,-0.722173 0.03019,-0.211669 0.04312,-1.761058 0.02872,-3.443087 -0.02843,-3.321727 0.0068,-3.104858 -0.535795,-3.297069 -0.165646,-0.05868 -0.226225,-0.129332 -0.190566,-0.222258 0.07891,-0.205631 2.789907,-0.203988 2.789907,0.0017 0,0.07586 -0.135203,0.194415 -0.30045,0.26346 -0.165248,0.06904 -0.325312,0.190324 -0.355698,0.269509 -0.03039,0.07919 -0.05525,1.43925 -0.05525,3.022366 0,1.667534 -0.03913,3.060838 -0.09301,3.312091 -0.161789,0.754396 -0.811507,1.343861 -1.618784,1.468661 -0.294366,0.04551 -0.333466,0.03001 -0.333466,-0.132159 z"
     id="path1519" />
  <path
     style="fill:#000080;stroke-width:0.0889244"
     d="M 98.950718,35.254522 C 98.693982,35.185389 98.33018,35.050391 98.14227,34.954526 97.652296,34.70456 97.008812,34.017151 96.726301,33.441901 96.505959,32.99324 96.483005,32.854215 96.483005,31.968332 c 0,-0.829007 0.03077,-1.044889 0.20178,-1.415707 0.641461,-1.390939 1.953554,-2.164465 3.524925,-2.078069 0.95488,0.0525 1.55991,0.33866 2.21729,1.048707 0.63814,0.689271 0.86771,1.287486 0.86736,2.260209 -3.9e-4,1.097233 -0.34653,1.901618 -1.13494,2.637459 -0.50789,0.474034 -1.05698,0.756465 -1.71229,0.880742 -0.615219,0.116674 -0.924175,0.106939 -1.496412,-0.04715 z m 1.758292,-0.68515 c 0.7846,-0.396943 1.20054,-1.367137 1.19136,-2.778889 -0.007,-1.100456 -0.19057,-1.703641 -0.67925,-2.233798 -0.39851,-0.432327 -0.77227,-0.585838 -1.414266,-0.580865 -0.902369,0.007 -1.625434,0.610701 -1.912562,1.596862 -0.09714,0.333624 -0.128582,0.750973 -0.107389,1.425294 0.02728,0.868001 0.05637,1.007108 0.324328,1.550827 0.416611,0.845361 0.940297,1.198694 1.798754,1.213628 0.253885,0.0044 0.550215,-0.06718 0.799025,-0.193059 z"
     id="path1673" />
  <path
     style="fill:#000080;stroke-width:0.0889244"
     d="m 106.71972,35.230916 c -0.0245,-0.03965 -0.44875,-1.349823 -0.94279,-2.911506 -0.49403,-1.561684 -0.95547,-2.926772 -1.02542,-3.033529 -0.0699,-0.106757 -0.21056,-0.220566 -0.31246,-0.252908 -0.10973,-0.03483 -0.17369,-0.119156 -0.15687,-0.206824 0.0247,-0.128807 0.19987,-0.151223 1.34938,-0.172689 1.18357,-0.0221 1.31525,-0.0098 1.26605,0.118429 -0.0302,0.0787 -0.0549,0.159294 -0.0549,0.179092 0,0.0198 -0.14005,0.09452 -0.31123,0.166039 -0.2582,0.107879 -0.31124,0.175767 -0.31124,0.398336 0,0.267463 1.12581,4.262613 1.23556,4.384594 0.0318,0.03531 0.45082,-1.117263 0.93123,-2.561279 l 0.87347,-2.625484 0.35701,0.02693 0.35701,0.02693 0.76183,2.556577 c 0.41901,1.406118 0.78765,2.556577 0.81919,2.556577 0.0315,0 0.36043,-0.948207 0.73085,-2.107127 0.45286,-1.416814 0.65221,-2.166973 0.60852,-2.289804 -0.0358,-0.100472 -0.19305,-0.240531 -0.34957,-0.311241 -0.1722,-0.0778 -0.27413,-0.183139 -0.25812,-0.266774 0.0216,-0.112824 0.20153,-0.142841 0.97969,-0.163431 0.76219,-0.02017 0.94418,-0.0016 0.90805,0.09256 -0.0249,0.06478 -0.16488,0.162954 -0.31115,0.218166 -0.33615,0.126881 -0.34725,0.154104 -1.3432,3.293873 -0.44574,1.405187 -0.85161,2.645265 -0.90194,2.755729 -0.0744,0.163227 -0.1632,0.200843 -0.47427,0.200843 -0.27644,0 -0.40376,-0.04322 -0.45837,-0.155618 -0.0416,-0.08559 -0.39314,-1.165715 -0.78122,-2.400278 -0.38808,-1.234564 -0.73229,-2.244968 -0.7649,-2.245342 -0.0326,-3.75e-4 -0.34824,0.869667 -0.70138,1.933425 -1.01799,3.066421 -0.92587,2.867813 -1.33019,2.867813 -0.18923,0 -0.3641,-0.03244 -0.38861,-0.07208 z"
     id="path1712" />
  <path
     style="fill:#000080;stroke-width:0.0889244"
     d="m 118.31395,35.127812 c 0,-0.04744 0.12005,-0.175018 0.26678,-0.283497 0.32215,-0.238181 0.32716,-0.337105 0.0539,-1.064437 l -0.21289,-0.566604 -1.28246,-0.02451 -1.28245,-0.02452 -0.20711,0.660409 c -0.22008,0.701757 -0.20036,0.933216 0.0859,1.008074 0.0976,0.02551 0.1774,0.101748 0.1774,0.169406 0,0.09693 -0.19801,0.123015 -0.9337,0.123015 -0.77291,0 -0.93371,-0.02309 -0.93371,-0.134106 0,-0.07376 0.15698,-0.196918 0.34885,-0.273688 0.23127,-0.09254 0.39358,-0.234657 0.48159,-0.421671 0.2756,-0.585666 1.73411,-4.299985 1.83338,-4.668973 0.12893,-0.47925 -0.0149,-0.748911 -0.48154,-0.902923 -0.27219,-0.08983 -0.30174,-0.12634 -0.22234,-0.274709 0.0817,-0.15257 0.19482,-0.171059 1.04439,-0.170632 l 0.95281,4.78e-4 0.34736,0.999922 c 0.19105,0.549956 0.69957,1.880273 1.13004,2.956258 0.60095,1.502102 0.84342,2.007956 1.04431,2.178649 0.23905,0.203115 0.31728,0.389239 0.28965,0.689164 -0.0127,0.138038 -2.50013,0.162804 -2.50013,0.02489 z m -0.19267,-2.479543 c -0.0163,-0.04176 -0.2485,-0.662004 -0.51601,-1.378328 -0.2675,-0.716325 -0.50962,-1.302408 -0.53804,-1.302408 -0.0284,0 -0.13563,0.230091 -0.23823,0.511315 -0.1026,0.281223 -0.32894,0.901471 -0.50298,1.378329 l -0.31642,0.867013 h 1.07066 c 0.58887,0 1.05733,-0.03416 1.04102,-0.07592 z"
     id="path1751" />
  <path
     style="fill:#000080;stroke-width:0.0889244"
     d="m 123.82727,35.221347 c 0,-0.202683 0.12201,-0.362971 0.27628,-0.362971 0.0926,0 0.24837,-0.08003 0.34619,-0.177849 0.17087,-0.170874 0.17785,-0.296414 0.17785,-3.201279 0,-2.904865 -0.007,-3.030405 -0.17785,-3.20128 -0.0978,-0.09782 -0.25914,-0.177848 -0.35849,-0.177848 -0.22386,0 -0.32113,-0.224161 -0.17412,-0.401293 0.0886,-0.106786 0.37879,-0.132254 1.50684,-0.132254 0.7684,0 1.42101,0.02392 1.45024,0.05316 0.1098,0.109794 -0.0476,0.293692 -0.29845,0.348798 -0.14305,0.03142 -0.29977,0.131273 -0.34827,0.221899 -0.0534,0.09977 -0.0882,1.371923 -0.0882,3.224731 0,3.369081 -0.0192,3.251896 0.55578,3.388508 0.25942,0.06163 0.31383,0.216624 0.13783,0.392624 -0.12929,0.129298 -3.00564,0.153278 -3.00564,0.02506 z"
     id="path1790" />
  <path
     style="fill:#000080;stroke-width:0.0889244"
     d="m 128.52959,35.003855 c -0.0866,-0.190119 0.0836,-0.479115 1.7804,-3.022386 1.03189,-1.546692 1.87617,-2.852653 1.87617,-2.902136 0,-0.05589 -0.42212,-0.08997 -1.11441,-0.08997 -1.33352,0 -1.67232,0.104199 -1.86895,0.574808 -0.0723,0.17294 -0.16945,0.314436 -0.21598,0.314436 -0.16948,0 -0.27683,-0.372037 -0.25085,-0.86933 l 0.0266,-0.508999 2.43384,-0.02368 2.43383,-0.02368 -0.039,0.201529 c -0.0214,0.11084 -0.88688,1.472036 -1.92322,3.024879 l -1.88425,2.82335 h 1.54488 c 1.43201,0 1.56213,-0.01357 1.78096,-0.1857 0.12985,-0.102135 0.29871,-0.306813 0.37526,-0.45484 0.0765,-0.148026 0.17242,-0.234529 0.21305,-0.192228 0.0981,0.102152 0.14671,1.291289 0.0586,1.433008 -0.0527,0.0847 -0.6715,0.111156 -2.60014,0.111156 h -2.53101 z"
     id="path1866" />
  <path
     style="fill:#000080;stroke-width:0.0889244"
     d="m 136.72497,35.296663 c -0.26698,-0.04756 -0.57711,-0.146545 -0.68917,-0.219967 l -0.20373,-0.133495 v -2.823746 c 0,-3.102968 -0.007,-3.147905 -0.53366,-3.263502 -0.14905,-0.03274 -0.26666,-0.116333 -0.26666,-0.189537 0,-0.112292 0.2885,-0.127136 2.02303,-0.10409 2.27947,0.03029 2.5199,0.08642 2.88244,0.67303 0.45947,0.743433 0.13681,1.678269 -0.71764,2.079209 -0.46554,0.218445 -0.56927,0.342532 -0.28634,0.342532 0.28465,0 0.92962,0.263268 1.15109,0.469859 0.55339,0.516215 0.70292,1.380496 0.36103,2.086741 -0.33672,0.695581 -1.15215,1.075151 -2.43445,1.133199 -0.44028,0.01993 -1.01896,-0.0027 -1.28594,-0.05023 z m 2.01505,-0.70146 c 0.38305,-0.233557 0.5601,-0.608619 0.5601,-1.186514 0,-0.887157 -0.64776,-1.4645 -1.74162,-1.552305 l -0.57042,-0.04579 v 1.065998 c 0,1.200542 0.0915,1.573143 0.43183,1.758012 0.34184,0.185708 0.98227,0.166592 1.32011,-0.0394 z m -0.75885,-3.207535 c 0.66814,-0.185578 1.10342,-1.037205 0.87848,-1.718775 -0.16259,-0.49265 -0.35297,-0.600855 -1.15375,-0.655742 l -0.71782,-0.0492 v 1.257649 1.257649 l 0.33347,-4.98e-4 c 0.18341,-2.76e-4 0.48023,-0.04126 0.65962,-0.09108 z"
     id="path1944" />
  <path
     style="fill:#000080;stroke-width:0.0889244"
     d="m 145.70268,35.127812 c 0,-0.04744 0.12004,-0.175018 0.26677,-0.283497 0.32116,-0.237441 0.33055,-0.405647 0.0615,-1.100718 l -0.2053,-0.530323 -1.2437,-0.02456 -1.24371,-0.02456 -0.1961,0.608879 c -0.24904,0.773265 -0.24606,0.888546 0.0262,1.012601 0.12227,0.05571 0.22231,0.154892 0.22231,0.220404 0,0.09197 -0.21276,0.119113 -0.93371,0.119113 -0.7729,0 -0.9337,-0.02309 -0.9337,-0.134106 0,-0.07376 0.15698,-0.196918 0.34884,-0.273688 0.23128,-0.09254 0.39359,-0.234657 0.4816,-0.421671 0.27559,-0.585666 1.73411,-4.299985 1.83338,-4.668973 0.12893,-0.47925 -0.0149,-0.748911 -0.48155,-0.902923 -0.27218,-0.08983 -0.30173,-0.12634 -0.22233,-0.274709 0.0816,-0.152522 0.1951,-0.171111 1.04448,-0.171111 h 0.9529 l 0.3484,1.0004 c 0.19162,0.55022 0.70009,1.880752 1.12994,2.956737 0.61405,1.537057 0.83953,2.005371 1.05207,2.185125 0.26855,0.227114 0.32023,0.383002 0.21655,0.653184 -0.0456,0.118924 -0.24489,0.14066 -1.28941,0.14066 -0.73891,0 -1.23542,-0.03467 -1.23542,-0.08626 z m -0.10375,-2.479543 c -0.0163,-0.04176 -0.24851,-0.662004 -0.51601,-1.378328 -0.2675,-0.716325 -0.50782,-1.302408 -0.53404,-1.302408 -0.0262,0 -0.15342,0.290115 -0.28265,0.644702 -0.12923,0.354586 -0.35809,0.974834 -0.50858,1.378328 l -0.27361,0.733627 h 1.07227 c 0.58974,0 1.05892,-0.03416 1.04262,-0.07592 z"
     id="path1983" />
  <path
     style="fill:#000080;stroke-width:0.00555778"
     d="m 126.81549,48.1774 c -0.063,-0.01367 -0.0981,-0.0416 -0.12831,-0.102069 -0.0209,-0.04178 -0.0341,-0.08412 -0.0645,-0.206199 -0.0155,-0.06221 -0.33177,-1.069835 -0.80076,-2.55102 -0.42634,-1.34651 -0.77648,-2.452577 -0.77809,-2.457927 -0.003,-0.0092 0.0313,-0.0097 0.66123,-0.0097 0.62772,0 0.66431,5.34e-4 0.66705,0.0097 0.002,0.0053 0.25837,0.886327 0.57061,1.957727 0.31224,1.071401 0.56948,1.94989 0.57163,1.952199 0.002,0.0023 0.29762,-0.878668 0.65661,-1.957727 l 0.65271,-1.961925 h 0.8013 0.80131 l 0.006,0.01806 c 0.003,0.0099 0.2673,0.89203 0.58695,1.960212 0.31964,1.068181 0.58209,1.943064 0.58321,1.944183 0.001,0.0011 0.01,-0.02126 0.019,-0.04973 0.012,-0.03656 1.17093,-3.669142 1.22978,-3.854669 l 0.006,-0.01806 h 0.25004 c 0.23559,0 0.24987,5.63e-4 0.24702,0.0097 -0.12511,0.402107 -1.60393,5.049511 -1.6172,5.082278 -0.0389,0.09601 -0.0782,0.162064 -0.11958,0.200744 -0.0483,0.04521 -0.0228,0.04272 -0.43722,0.04272 -0.38468,0 -0.40856,-0.0013 -0.44239,-0.0241 -0.0493,-0.0332 -0.0715,-0.08946 -0.11246,-0.284356 -0.023,-0.109262 -0.0697,-0.2574 -0.7314,-2.320371 -0.38879,-1.212013 -0.70892,-2.205808 -0.7114,-2.208434 -0.002,-0.0026 -0.0162,0.03114 -0.0305,0.07503 -0.16906,0.52025 -1.50402,4.517532 -1.52191,4.557069 -0.0471,0.104031 -0.0936,0.165756 -0.14394,0.190833 l -0.0288,0.01433 -0.30319,-4.42e-4 c -0.23513,-3.42e-4 -0.31111,-0.0022 -0.33841,-0.0081 z"
     id="path2059" />
  <path
     style="fill:#000080;stroke-width:0.0222311"
     d="m 119.71451,48.25063 c -0.65631,-0.09405 -1.0762,-0.247117 -1.56088,-0.56903 -0.29625,-0.196757 -0.69245,-0.586941 -0.88747,-0.874004 -0.26988,-0.397236 -0.47429,-0.896504 -0.55521,-1.356097 -0.0541,-0.307615 -0.054,-0.940238 3.9e-4,-1.242357 0.28869,-1.604813 1.57632,-2.785535 3.19214,-2.927103 0.51107,-0.04478 1.02998,0.01114 1.47732,0.159206 1.37269,0.454341 2.28078,1.718013 2.27955,3.172168 -8.4e-4,0.998275 -0.36647,1.885019 -1.06569,2.584576 -0.52961,0.529861 -1.14114,0.858128 -1.86257,0.99983 -0.23022,0.04522 -0.84713,0.07723 -1.01758,0.05281 z m 0.97817,-0.698939 c 0.37448,-0.116117 0.70782,-0.359493 0.90748,-0.662553 0.32043,-0.486377 0.51744,-1.062253 0.56844,-1.66156 0.0314,-0.368367 -0.006,-1.278049 -0.0633,-1.547876 -0.17179,-0.807072 -0.57446,-1.381204 -1.16812,-1.665511 -0.24206,-0.115924 -0.40167,-0.155389 -0.68456,-0.169267 -1.06165,-0.05208 -1.8509,0.65591 -2.10381,1.887211 -0.0859,0.41838 -0.11712,1.125578 -0.0675,1.530982 0.0913,0.746118 0.48018,1.575297 0.89737,1.913489 0.24323,0.197173 0.63645,0.370929 0.95399,0.421546 0.19633,0.0313 0.58604,0.0075 0.75997,-0.04646 z"
     id="path2098" />
  <path
     style="fill:#000080;stroke-width:0.0222311"
     d="m 124.98477,42.633706 c -0.12419,-0.418816 -0.25929,-0.622081 -0.45662,-0.686992 -0.12045,-0.03962 -0.24442,-0.130506 -0.2594,-0.190162 -0.0171,-0.06819 0.0491,-0.218009 0.1214,-0.274921 0.0523,-0.04118 0.10416,-0.04285 1.32976,-0.04285 h 1.27529 v 0.07836 c 0,0.04503 -0.0325,0.142894 -0.0764,0.230085 -0.0682,0.135348 -0.088,0.156606 -0.1834,0.19698 -0.0588,0.02489 -0.13201,0.05255 -0.16258,0.06145 -0.10596,0.03088 -0.20075,0.104383 -0.25586,0.19842 -0.072,0.122928 -0.0768,0.352388 -0.0104,0.49874 0.0242,0.0533 0.044,0.105821 0.044,0.116713 0,0.01113 -0.2856,0.0198 -0.65238,0.0198 h -0.65238 z"
     id="path2137" />
  <path
     style="fill:#000080;stroke-width:0.0222311"
     d="m 128.84038,42.833323 c 0,-0.03519 0.40744,-1.213373 0.43321,-1.2527 0.0341,-0.05206 0.0404,-0.05292 0.38859,-0.05292 0.34054,0 0.35524,0.0019 0.38854,0.04941 0.019,0.02717 0.0346,0.07553 0.0346,0.107446 0,0.04431 0.26586,0.975322 0.32182,1.126992 0.008,0.0219 -0.1568,0.02779 -0.77825,0.02779 -0.43368,0 -0.78851,-0.0027 -0.78851,-0.006 z"
     id="path2176" />
  <path
     style="fill:#000080;stroke-width:0.0222311"
     d="m 132.91281,42.700399 c 0.10421,-0.329578 -0.037,-0.566427 -0.40383,-0.677125 -0.23119,-0.06978 -0.27518,-0.171322 -0.16682,-0.385149 l 0.0559,-0.110417 h 0.93333 0.93333 v 0.08983 c 0,0.12631 -0.0693,0.211455 -0.20943,0.257304 -0.18341,0.06001 -0.31769,0.136425 -0.37586,0.213883 -0.0807,0.107409 -0.17964,0.315014 -0.2603,0.545998 l -0.0715,0.204626 h -0.23942 -0.23943 z"
     id="path2215" />
  <path
     style="fill:#000080;stroke-width:0.00390625"
     d="m 131.81607,46.120146 c 0.005,-0.01559 0.24153,-0.757529 0.52591,-1.64875 l 0.51706,-1.6204 0.24236,0.0013 c 0.13329,6.93e-4 0.24434,0.0026 0.24678,0.0041 0.003,0.002 -0.002,0.02232 -0.0163,0.06836 -0.0114,0.03601 -0.0773,0.243896 -0.14635,0.461963 -0.10905,0.344286 -0.66007,2.078158 -0.82119,2.583984 l -0.056,0.175781 -0.25054,10e-4 -0.25055,0.001 z"
     id="path2254" />
  <path
     style="fill:#000080;stroke-width:0.00390625"
     d="m 131.8086,46.143583 c 9.6e-4,-0.0027 0.18646,-0.58411 0.41223,-1.292021 0.22577,-0.70791 0.46165,-1.447453 0.52418,-1.643428 l 0.11369,-0.35632 0.0413,-0.0012 0.0414,-0.0013 -0.0423,-8.29e-4 c -0.0383,-7.51e-4 -0.042,-0.0015 -0.0401,-0.0077 0.0161,-0.05048 0.0525,-0.153994 0.0527,-0.149941 1.6e-4,0.0029 -0.009,0.03598 -0.0215,0.07344 -0.012,0.03746 -0.0212,0.06974 -0.0205,0.07175 0.001,0.0042 0.0433,-0.126893 0.0564,-0.176685 0.0317,-0.120434 0.0268,-0.23948 -0.0137,-0.334702 -0.0373,-0.08773 -0.11983,-0.172438 -0.22445,-0.230459 -0.0393,-0.02177 -0.0915,-0.04321 -0.17355,-0.07113 -0.0436,-0.01483 -0.0901,-0.03249 -0.10352,-0.03923 -0.0955,-0.04817 -0.13264,-0.10674 -0.12077,-0.190645 0.007,-0.04729 0.0202,-0.08345 0.0661,-0.176999 l 0.0417,-0.08496 h 0.93333 0.93333 l -0.002,0.06738 c -0.002,0.0729 -0.007,0.09787 -0.0261,0.135496 -0.0331,0.06542 -0.0916,0.107876 -0.19931,0.144742 -0.0654,0.02237 -0.10603,0.03911 -0.16602,0.06838 -0.0691,0.03372 -0.11831,0.06545 -0.15687,0.101149 -0.0688,0.06371 -0.16414,0.239894 -0.25387,0.469175 -0.0293,0.0748 -0.11161,0.309962 -0.11005,0.314329 6.9e-4,0.0019 0.0186,-0.0465 0.0399,-0.107662 0.0212,-0.06116 0.0394,-0.110427 0.0403,-0.109482 9.4e-4,9.45e-4 -0.0141,0.05154 -0.0334,0.112423 -0.0193,0.06089 -0.0361,0.11422 -0.0374,0.118517 -0.002,0.0069 -0.005,0.0078 -0.0287,0.0073 l -0.0264,-5.08e-4 0.0234,0.0025 c 0.0129,0.0014 0.0232,0.0042 0.0229,0.0064 -0.001,0.0098 -0.56447,1.784561 -0.95925,3.023438 l -0.0834,0.261718 -0.25074,0.001 c -0.20004,8.02e-4 -0.25039,0 -0.24901,-0.0039 z m 1.47373,-3.29486 c -0.008,-8.39e-4 -0.0221,-8.51e-4 -0.0312,-2.7e-5 -0.009,8.25e-4 -0.003,0.0015 0.0145,0.0015 0.0172,1.5e-5 0.0247,-6.61e-4 0.0167,-0.0015 z"
     id="path2293" />
  <path
     style="fill:#000080;stroke-width:0.00390625"
     d="m 131.80855,46.143583 c 0.006,-0.0185 1.04887,-3.288687 1.04887,-3.29016 0,-10e-4 0.0189,-0.0022 0.042,-0.0025 l 0.042,-6.44e-4 -0.0378,-0.0023 c -0.0208,-0.0013 -0.0387,-0.0032 -0.0399,-0.0044 -0.001,-0.0012 -0.001,-0.0063 3.3e-4,-0.01151 0.002,-0.008 0.003,-0.0084 0.005,-0.0024 0.003,0.0072 0.0431,-0.114992 0.0586,-0.176448 0.0187,-0.07423 0.0244,-0.153922 0.0155,-0.217913 -0.0194,-0.139354 -0.10355,-0.254125 -0.2456,-0.334911 -0.0516,-0.02935 -0.0909,-0.04595 -0.18291,-0.07729 -0.0436,-0.01483 -0.0901,-0.03249 -0.10352,-0.03924 -0.0954,-0.04809 -0.13311,-0.107636 -0.12097,-0.190941 0.007,-0.04674 0.0208,-0.0839 0.0663,-0.176703 l 0.0417,-0.08496 h 0.93333 0.93333 l -0.002,0.06738 c -0.003,0.09092 -0.0141,0.128334 -0.0533,0.177532 -0.034,0.04256 -0.0793,0.06926 -0.17797,0.104736 -0.19053,0.06853 -0.29776,0.132708 -0.35845,0.214548 -0.0621,0.08372 -0.13675,0.231715 -0.20807,0.412363 -0.0343,0.08702 -0.11627,0.320466 -0.11344,0.323291 0.002,0.0022 0.005,-0.0044 0.0228,-0.0554 0.0185,-0.05293 0.0169,-0.03476 -0.002,0.02312 l -0.0166,0.05078 -0.0215,0.0023 -0.0215,0.0023 0.0179,6.37e-4 c 0.01,3.5e-4 0.0189,0.0016 0.02,0.0028 10e-4,0.0012 -0.006,0.02885 -0.0167,0.06152 -0.15032,0.47583 -0.86095,2.713101 -0.9817,3.090658 l -0.0437,0.136718 -0.25074,10e-4 c -0.20002,8.02e-4 -0.2504,0 -0.24906,-0.0039 z m 1.46984,-3.294812 c -0.006,-8.91e-4 -0.0164,-9.09e-4 -0.0234,-3.9e-5 -0.007,8.69e-4 -0.002,0.0016 0.0107,0.0016 0.0129,2.4e-5 0.0186,-6.89e-4 0.0128,-0.0016 z"
     id="path2332" />
  <path
     style="fill:#000080;stroke-width:0.00390625"
     d="m 127.7293,46.143555 c 7.4e-4,-0.0027 0.24786,-0.745801 0.54914,-1.651368 0.30129,-0.905566 0.62974,-1.893457 0.72989,-2.195312 0.20576,-0.620143 0.2228,-0.66976 0.24442,-0.711729 0.0181,-0.03505 0.042,-0.05901 0.0662,-0.06634 0.0134,-0.0041 0.0864,-0.0051 0.35094,-0.0051 h 0.33399 l 0.02,0.01055 c 0.011,0.0058 0.0249,0.01635 0.0309,0.02344 0.0262,0.03095 0.0415,0.08769 0.043,0.159371 0.001,0.05363 0.001,0.05304 0.045,0.213579 0.0787,0.287765 0.214,0.750265 0.25161,0.860348 0.005,0.01595 0.01,0.03039 0.01,0.03208 0,0.0051 -0.0282,0.01106 -0.0709,0.01491 l -0.0404,0.0036 0.0395,-0.0015 c 0.0217,-8.45e-4 0.0478,-0.0036 0.058,-0.0062 0.0223,-0.0056 0.0229,8.26e-4 -0.007,-0.09339 -0.0526,-0.163846 -0.19854,-0.665391 -0.19657,-0.675639 0.001,-0.0056 0.23763,0.779588 0.23945,0.794868 5.2e-4,0.0043 0.17358,0.584424 0.38457,1.289063 0.41127,1.373442 0.59654,1.991892 0.6,2.002841 0.002,0.0065 -0.0312,0.0068 -0.66133,0.0068 h -0.66349 l -0.0421,-0.131835 c -0.11051,-0.345668 -0.63588,-1.980176 -0.72603,-2.25879 -0.056,-0.172949 -0.10862,-0.335986 -0.11702,-0.362304 -0.008,-0.02632 -0.0167,-0.04785 -0.0185,-0.04785 -0.002,0 -0.007,0.0092 -0.0114,0.02051 -0.004,0.01128 -0.21481,0.641455 -0.46744,1.400391 l -0.45934,1.379882 h -0.2579 c -0.20444,0 -0.25763,-0.001 -0.25655,-0.0049 z m 2.38129,-3.30663 c -0.0294,-6.63e-4 -0.0786,-6.64e-4 -0.10938,-3e-6 -0.0307,6.6e-4 -0.007,0.0012 0.0535,0.0012 0.0601,2e-6 0.0853,-5.39e-4 0.0559,-0.0012 z m -1.23046,-0.0039 -0.0378,-0.0013 0.006,-0.02037 c 0.0431,-0.148667 0.319,-0.949438 0.40379,-1.171857 0.0113,-0.02961 0.0257,-0.06096 0.032,-0.06967 0.0141,-0.01951 0.0361,-0.02974 0.0742,-0.0346 l 0.0285,-0.0036 -0.0289,0.0016 c -0.0359,0.002 -0.0643,0.01492 -0.079,0.03609 -0.0125,0.01794 -0.0379,0.08371 -0.10512,0.272498 -0.13729,0.385381 -0.33583,0.971615 -0.33583,0.991614 0,0.0014 0.018,0.0022 0.04,0.0017 l 0.04,-8.18e-4 z m 1.38275,8e-6 c -0.0165,-7.3e-4 -0.0447,-7.34e-4 -0.0625,-8e-6 -0.0178,7.26e-4 -0.004,0.0013 0.0301,0.0013 0.0344,4e-6 0.049,-5.88e-4 0.0324,-0.0013 z m -0.17053,-1.122765 c -0.002,-0.01145 -0.005,-0.03049 -0.007,-0.0423 -0.005,-0.04328 -0.0307,-0.09759 -0.0536,-0.114563 -0.0177,-0.01312 -0.0353,-0.01826 -0.0692,-0.02015 l -0.0293,-0.0016 0.0254,0.0033 c 0.0406,0.0053 0.058,0.01143 0.0745,0.02631 0.0268,0.02424 0.0412,0.0625 0.0545,0.145067 0.003,0.01571 0.005,0.02772 0.007,0.02668 0.001,-0.001 8e-5,-0.01126 -0.002,-0.02271 z m -0.29421,-0.181949 c -0.0745,-5.93e-4 -0.19755,-5.94e-4 -0.27344,0 -0.0759,5.93e-4 -0.0149,0.0011 0.13546,0.0011 0.15039,0 0.21248,-4.85e-4 0.13798,-0.0011 z"
     id="path2371" />
  <path
     style="fill:#000080;stroke-width:0.03125"
     d="m 126.737,48.112543 c -0.0199,-0.02404 -0.10717,-0.273649 -0.19382,-0.554688 -0.0867,-0.281039 -0.45174,-1.441139 -0.8113,-2.577999 -0.35957,-1.136861 -0.65376,-2.07489 -0.65376,-2.08451 0,-0.0096 0.0949,-0.02241 0.21094,-0.02842 l 0.21094,-0.01093 -0.22008,-0.0061 -0.22008,-0.0061 -0.0362,-0.13539 c -0.11719,-0.438147 -0.25666,-0.659377 -0.48942,-0.776342 -0.25127,-0.126266 -0.29572,-0.22437 -0.17257,-0.380929 l 0.0648,-0.08234 h 1.27898 c 1.00252,0 1.27892,0.0084 1.27868,0.03906 -1.7e-4,0.02148 -0.0347,0.112967 -0.0768,0.203295 -0.0713,0.153221 -0.0921,0.171366 -0.30994,0.270633 -0.24748,0.11278 -0.30657,0.180456 -0.34735,0.39782 -0.019,0.101492 0.002,0.231403 0.0624,0.378252 0.02,0.04885 1.3e-4,0.05469 -0.18595,0.05469 -0.13092,0 -0.20114,0.01161 -0.189,0.03125 0.0106,0.01719 0.10923,0.03125 0.21912,0.03125 h 0.1998 l 0.059,0.196627 c 0.0325,0.108144 0.28951,0.987051 0.57125,1.953125 0.28174,0.966074 0.51985,1.756498 0.52915,1.756498 0.009,0 0.31133,-0.885938 0.67119,-1.96875 0.48654,-1.46396 0.66664,-1.968873 0.7024,-1.969229 0.0373,-3.71e-4 0.039,-0.0063 0.007,-0.02623 -0.0315,-0.02001 0.006,-0.15759 0.16688,-0.616709 0.11413,-0.325024 0.22201,-0.608531 0.23975,-0.630016 0.022,-0.02664 0.13469,-0.03906 0.35431,-0.03906 0.33708,0 0.42028,0.02998 0.42028,0.151447 0,0.04759 0.2504,0.950543 0.29798,1.074531 0.0124,0.03234 -8.6e-4,0.05497 -0.0379,0.06454 -0.0484,0.01253 -0.0471,0.01528 0.009,0.01836 0.0595,0.0033 0.11374,0.163851 0.55765,1.652062 0.27044,0.906641 0.53505,1.792906 0.58801,1.969478 0.053,0.176572 0.10655,0.310166 0.11906,0.296875 0.0125,-0.01329 0.0731,-0.185884 0.13462,-0.38354 0.33098,-1.063294 1.06251,-3.356933 1.12931,-3.54085 0.0837,-0.230415 0.0974,-0.392833 0.0422,-0.500267 -0.069,-0.134373 -0.198,-0.240998 -0.36875,-0.304885 -0.27629,-0.103373 -0.29553,-0.138783 -0.20217,-0.372116 l 0.0503,-0.125632 h 0.93411 c 0.86897,0 0.93407,0.0038 0.93364,0.05469 -0.001,0.127945 -0.0851,0.213864 -0.32845,0.335938 -0.23119,0.115963 -0.25654,0.138555 -0.35057,0.3125 -0.0557,0.103125 -0.16614,0.391406 -0.2453,0.640625 -1.27692,4.020091 -1.62928,5.098794 -1.69366,5.185027 -0.0596,0.07988 -0.0641,0.0806 -0.4943,0.0806 h -0.43413 L 130.67783,48 c -0.12677,-0.435645 -0.29024,-0.952931 -0.85397,-2.702201 -0.34325,-1.065116 -0.63004,-1.942519 -0.6373,-1.949785 -0.0165,-0.01646 0.081,-0.299389 -0.80559,2.339595 -0.41863,1.246154 -0.77967,2.300842 -0.8023,2.34375 -0.0226,0.04291 -0.0566,0.08835 -0.0755,0.100975 -0.0189,0.01263 -0.19086,0.02317 -0.38212,0.02344 -0.26023,3.6e-4 -0.35686,-0.01052 -0.38401,-0.04323 z"
     id="path2410" />
  <path
     style="fill:#000080;stroke-width:0.0625"
     d="m 119.46443,40.804433 c -0.0803,-0.15 -0.13146,-0.09104 0.99031,-1.140874 0.55517,-0.519572 0.67148,-0.601059 0.85793,-0.601059 0.16094,0 0.24161,0.03955 0.31778,0.155795 0.22836,0.348524 -0.0467,0.636562 -1.24698,1.305768 -0.40785,0.22739 -0.76545,0.413437 -0.79468,0.413437 -0.0292,0 -0.0852,-0.05988 -0.12436,-0.133067 z"
     id="path2449" />
  <path
     style="fill:#000080;stroke-width:0.0625"
     d="m 112.86758,48.129304 c -1.22055,-0.195155 -2.34777,-0.978445 -2.8394,-1.973054 -0.92824,-1.877944 0.11512,-4.190334 2.17203,-4.813851 0.7549,-0.228835 1.92119,-0.169249 2.86229,0.146236 l 0.5,0.167615 v 0.555688 c 0,0.460545 -0.0187,0.56746 -0.109,0.624442 -0.0919,0.05794 -0.16782,0.0069 -0.48289,-0.324172 -0.51083,-0.53683 -0.81156,-0.667828 -1.53311,-0.66782 -0.9676,1.2e-5 -1.55706,0.324365 -1.9501,1.073054 -0.26281,0.50061 -0.35692,0.942597 -0.35692,1.676308 0,0.724182 0.0899,1.157282 0.3535,1.702148 0.65213,1.348239 2.44885,1.753449 3.66361,0.826247 0.32748,-0.249961 0.3376,-0.253067 0.4459,-0.136827 0.1066,0.11443 0.10219,0.135208 -0.11634,0.547971 -0.22346,0.422057 -0.23274,0.430359 -0.5709,0.510743 -0.4337,0.103095 -1.61752,0.152611 -2.03867,0.08527 z"
     id="path2488" />
  <path
     style="fill:#000080;stroke-width:0.0625"
     d="m 103.16824,48.119701 c -0.21684,-0.03333 -0.54028,-0.109051 -0.71875,-0.168274 L 102.125,47.84375 102.0938,44.955292 c -0.0351,-3.248 -0.003,-3.049381 -0.5173,-3.177031 -0.2207,-0.05476 -0.26395,-0.0906 -0.26395,-0.21875 V 41.40625 l 1.9375,-0.01792 c 2.12858,-0.01968 2.4658,0.01256 3.23545,0.30937 0.38003,0.146556 0.58298,0.274816 0.89149,0.563411 0.6925,0.647808 0.9457,1.349222 0.88716,2.457634 -0.0852,1.613725 -1.01107,2.792971 -2.5766,3.281803 -0.50657,0.158176 -1.85148,0.221783 -2.51926,0.119148 z m 2.25177,-0.535953 c 0.41031,-0.128731 0.8765,-0.565995 1.10979,-1.040947 0.25694,-0.523079 0.37689,-1.151158 0.38094,-1.99458 0.004,-0.83591 -0.0868,-1.190128 -0.43918,-1.7138 -0.49701,-0.738552 -0.87899,-0.901998 -2.20594,-0.94392 l -0.92187,-0.02913 3.5e-4,2.491187 c 2.2e-4,1.542736 0.0253,2.580911 0.0658,2.726856 0.15647,0.563435 1.08178,0.795589 2.01013,0.504329 z"
     id="path2527" />
  <path
     style="fill:#000080;stroke-width:0.0441942"
     d="m 98.221716,48.050115 c 4.89e-4,-0.09797 0.192455,-0.323657 0.351187,-0.412868 0.237784,-0.133643 0.265549,-0.252864 0.137845,-0.591895 -0.05507,-0.1462 -0.15221,-0.42024 -0.215866,-0.608976 l -0.11574,-0.343157 -1.279204,0.0117 -1.279205,0.0117 -0.191707,0.573229 c -0.105439,0.315275 -0.191708,0.627147 -0.191708,0.693049 0,0.125361 0.14257,0.258192 0.369879,0.344615 0.08318,0.03162 0.116257,0.07595 0.116257,0.15578 v 0.11158 H 94.95379 c -0.579211,0 -0.980338,-0.01727 -0.996174,-0.0429 -0.06197,-0.100276 0.103529,-0.289381 0.319754,-0.365354 0.261583,-0.09191 0.431932,-0.218617 0.518202,-0.385445 0.187678,-0.362929 1.846475,-4.638126 1.885436,-4.85931 0.07649,-0.43424 -0.05721,-0.611077 -0.577612,-0.763949 -0.107639,-0.03162 -0.202611,-0.0789 -0.211048,-0.105066 -0.0084,-0.02617 0.03393,-0.100743 0.09416,-0.165728 l 0.109502,-0.11815 h 0.88238 c 0.879241,0 1.02219,0.01372 1.02219,0.09813 0,0.206556 1.920051,5.164785 2.25811,5.831214 0.0905,0.178435 0.26829,0.324199 0.45148,0.370176 0.10309,0.02587 0.11884,0.05224 0.11884,0.198936 0,0.09301 -0.0194,0.220121 -0.0431,0.282471 l -0.0431,0.113362 h -1.260631 c -0.693345,0 -1.260554,-0.01492 -1.260463,-0.03315 z m -0.217674,-2.872621 c -0.521237,-1.406856 -0.858017,-2.291858 -0.882419,-2.318848 -0.021,-0.02322 -0.748215,1.850254 -1.011599,2.60611 -0.01504,0.04315 0.203963,0.05524 1.000833,0.05524 h 1.020083 z"
     id="path2566" />
  <path
     style="fill:#000080;stroke-width:0.0441942"
     d="m 87.261396,48.053253 c 0,-0.0165 0.02351,-0.09503 0.05225,-0.174492 0.04179,-0.11557 0.103238,-0.166598 0.307054,-0.254991 0.420872,-0.182527 0.39585,0.01431 0.381971,-3.004911 -0.01384,-3.011502 0.02955,-2.73864 -0.461549,-2.902068 l -0.284532,-0.09469 0.01345,-0.161324 0.01345,-0.161325 1.789864,-0.01214 c 1.870314,-0.01269 2.245942,0.01192 2.580129,0.169003 0.252346,0.118616 0.622761,0.487342 0.770077,0.766564 0.110871,0.210146 0.119037,0.263518 0.119037,0.77805 0,0.512397 -0.0089,0.571539 -0.123502,0.816183 -0.18249,0.389733 -0.434053,0.697212 -0.734647,0.897941 -0.146789,0.09802 -0.289969,0.185915 -0.318177,0.195318 -0.108339,0.03611 1.33049,2.234379 1.761899,2.691857 0.16056,0.170263 0.276213,0.33229 0.276213,0.386968 0,0.09236 -0.01397,0.09406 -0.770241,0.09406 -0.613819,0 -0.782101,-0.01292 -0.828641,-0.06363 -0.03212,-0.03499 -0.406428,-0.690996 -0.831797,-1.45778 l -0.773398,-1.394154 -0.430894,-6.27e-4 -0.430893,-6.27e-4 v 1.09502 c 0,0.912666 0.01129,1.111142 0.0678,1.191822 0.04262,0.06085 0.182145,0.130853 0.37565,0.188481 0.169317,0.05043 0.307849,0.111714 0.307849,0.136199 0,0.02448 -0.03034,0.103192 -0.06743,0.174905 l -0.06743,0.130388 H 88.60817 c -0.740733,0 -1.346787,-0.0135 -1.346787,-0.03001 z m 3.117676,-3.536737 c 0.243082,-0.127715 0.53399,-0.453541 0.675464,-0.756544 0.105511,-0.225977 0.117151,-0.301813 0.117575,-0.766004 4.58e-4,-0.502421 -0.0029,-0.519955 -0.133603,-0.707107 -0.08202,-0.117407 -0.227857,-0.243376 -0.37565,-0.324478 -0.231221,-0.126883 -0.268579,-0.133219 -0.871345,-0.147775 l -0.629767,-0.01521 v 1.423012 1.423012 l 0.519281,-0.01749 c 0.421054,-0.01418 0.553097,-0.03526 0.698045,-0.111416 z"
     id="path2605" />
  <path
     style="fill:#000080;stroke-width:0.0441942"
     d="m 81.95062,48.217854 c -1.127246,-0.206796 -2.0099,-0.857127 -2.491979,-1.836069 -0.250574,-0.508832 -0.329819,-0.816316 -0.358778,-1.392116 -0.08396,-1.669493 1.007874,-3.163284 2.637261,-3.608146 0.401869,-0.10972 1.454568,-0.110162 1.848671,-7.75e-4 1.561586,0.433429 2.575962,1.854246 2.466117,3.454241 -0.03883,0.565621 -0.131028,0.906104 -0.388801,1.435837 -0.202342,0.41582 -0.271617,0.509426 -0.672616,0.908848 -0.396557,0.394999 -0.499443,0.471054 -0.911079,0.673483 -0.255222,0.125509 -0.593307,0.258879 -0.751301,0.296378 -0.349606,0.08298 -1.095847,0.119988 -1.377495,0.06832 z m 0.984764,-0.621347 c 0.698609,-0.131511 1.172989,-0.612602 1.472568,-1.4934 0.169653,-0.498799 0.21629,-0.905009 0.189904,-1.654048 -0.03616,-1.026515 -0.22357,-1.583801 -0.695217,-2.06733 -0.420514,-0.431107 -1.012767,-0.62421 -1.624136,-0.529547 -0.834355,0.12919 -1.427455,0.739598 -1.695881,1.74537 -0.07669,0.287345 -0.09536,0.49011 -0.09969,1.082758 -0.0047,0.639645 0.0071,0.772318 0.09631,1.080256 0.134186,0.463432 0.414718,0.994483 0.676864,1.281313 0.406695,0.444989 1.080144,0.667414 1.679283,0.554628 z"
     id="path2644" />
  <path
     style="fill:#000080;stroke-width:0.0441942"
     d="m 72.118316,48.120497 c -0.173764,-0.02186 -0.490255,-0.08393 -0.703313,-0.137928 -0.630591,-0.159825 -0.567864,0.216173 -0.59384,-3.55957 -0.02581,-3.751221 0.0096,-3.480362 -0.478321,-3.661709 -0.153696,-0.05713 -0.29788,-0.09248 -0.320408,-0.07855 -0.05878,0.03633 -0.05063,-0.03435 0.02476,-0.214779 0.05703,-0.136483 0.09063,-0.16097 0.254117,-0.185171 0.103619,-0.01534 1.192712,-0.02041 2.420205,-0.01127 l 2.231806,0.01662 0.419844,0.119599 c 0.230915,0.06578 0.622424,0.217331 0.87002,0.336781 0.981188,0.473361 1.636185,1.387714 1.78268,2.488557 0.05835,0.438438 0.02699,1.305808 -0.06194,1.713486 -0.212319,0.973293 -0.853119,1.93051 -1.640581,2.450674 -0.517673,0.341954 -1.309756,0.625868 -2.032932,0.728685 -0.373756,0.05314 -1.7336,0.04975 -2.17209,-0.0054 z m 2.510279,-0.698617 c 1.01977,-0.314974 1.622901,-1.257755 1.76388,-2.7572 0.05765,-0.613152 0.0093,-1.426975 -0.113228,-1.906817 -0.19302,-0.755757 -0.622662,-1.276393 -1.254335,-1.519992 -0.52178,-0.201219 -1.002864,-0.269872 -1.891135,-0.269872 h -0.769401 l 0.01284,2.905767 0.01284,2.905767 0.110485,0.220971 c 0.123304,0.246608 0.3057,0.371238 0.710021,0.485156 0.317619,0.08949 1.024783,0.05768 1.418032,-0.06378 z"
     id="path2683" />
  <path
     style="fill:#000080;stroke-width:0.0441942"
     d="m 69.893086,60.707233 c 0,-0.144579 0.203124,-0.349789 0.416248,-0.420525 0.131528,-0.04365 0.253703,-0.121413 0.30936,-0.196897 0.0907,-0.123004 0.09216,-0.165996 0.104904,-3.071495 0.0071,-1.620709 0.0011,-3.012327 -0.01345,-3.092483 -0.03207,-0.177261 -0.187403,-0.282006 -0.532854,-0.359314 -0.135142,-0.03024 -0.256309,-0.0826 -0.26926,-0.116351 -0.04332,-0.1129 0.155175,-0.367713 0.308917,-0.396555 0.07796,-0.01462 1.006485,-0.01904 2.0634,-0.0098 1.83027,0.01597 1.937068,0.02142 2.245546,0.114596 1.100816,0.332499 1.601249,0.954974 1.597484,1.987069 -0.0022,0.592897 -0.185527,1.041335 -0.592367,1.44871 -0.47167,0.472288 -1.088416,0.710699 -1.957389,0.756652 -0.493302,0.02609 -0.496008,0.02568 -0.535477,-0.07972 -0.112784,-0.301181 -0.11766,-0.290174 0.140349,-0.316803 0.603596,-0.0623 1.147974,-0.550478 1.333431,-1.195778 0.112034,-0.389825 0.07821,-0.99208 -0.07402,-1.318164 -0.137754,-0.295062 -0.398589,-0.56228 -0.689489,-0.706363 -0.184196,-0.09123 -0.284888,-0.105432 -0.839081,-0.118327 l -0.629767,-0.01465 0.0025,3.085804 c 0.0018,2.270067 0.01644,3.1263 0.05524,3.238992 0.05888,0.170995 0.156534,0.232602 0.527836,0.332998 0.28562,0.07723 0.309484,0.129569 0.166212,0.364552 l -0.08757,0.143631 H 71.41844 c -1.252256,0 -1.525348,-0.0107 -1.525348,-0.05976 z"
     id="path2722" />
  <path
     style="fill:#000080;stroke-width:0.0441942"
     d="m 79.798839,60.679332 c -1.224056,-0.32958 -2.137103,-1.254082 -2.442469,-2.473112 -0.07975,-0.318371 -0.09054,-0.46436 -0.07349,-0.994368 0.01764,-0.548386 0.0358,-0.666604 0.154895,-1.008407 0.396311,-1.137428 1.315123,-1.988847 2.470676,-2.289458 0.449533,-0.116943 1.330606,-0.125083 1.773428,-0.01638 1.203102,0.295326 2.147025,1.239193 2.447911,2.447766 0.07881,0.316549 0.08983,0.464687 0.07237,0.972272 -0.01809,0.525723 -0.03795,0.650074 -0.162678,1.018667 -0.230981,0.682568 -0.65754,1.288956 -1.192209,1.694823 -0.369262,0.280305 -0.614713,0.409942 -1.072938,0.566679 -0.373631,0.127802 -0.471654,0.142545 -1.031581,0.155151 -0.508989,0.01146 -0.676392,-0.0016 -0.943916,-0.07363 z M 81.503884,59.9964 c 0.368692,-0.166612 0.672336,-0.492515 0.897261,-0.963034 0.282728,-0.591434 0.352445,-0.945267 0.352445,-1.788746 0,-0.870194 -0.06853,-1.259724 -0.310107,-1.762783 -0.322458,-0.671473 -0.876096,-1.063156 -1.571478,-1.111774 -1.101851,-0.07704 -1.914356,0.662049 -2.166077,1.970348 -0.09541,0.495903 -0.08227,1.46099 0.02573,1.889392 0.17936,0.711445 0.606474,1.380169 1.046046,1.637775 0.535719,0.313953 1.20584,0.363963 1.726176,0.128822 z"
     id="path2761" />
  <path
     style="fill:#000080;stroke-width:0.0441942"
     d="m 87.769629,60.76705 c -0.767866,-0.03784 -1.392542,-0.173246 -1.55672,-0.337424 l -0.100561,-0.100561 v -2.805462 c 0,-1.715542 -0.01674,-2.849495 -0.04309,-2.918804 -0.05535,-0.145584 -0.267196,-0.273636 -0.513902,-0.310631 -0.190736,-0.0286 -0.194306,-0.03225 -0.194306,-0.198479 0,-0.113648 0.02299,-0.178163 0.06991,-0.196166 0.123378,-0.04734 3.618455,-0.02927 3.976764,0.02057 1.273671,0.177152 2.181251,0.742832 2.62076,1.63348 0.259191,0.525239 0.332796,0.951253 0.301354,1.744174 -0.02812,0.709211 -0.09436,0.999505 -0.342856,1.502602 -0.448448,0.907916 -1.318476,1.583072 -2.385605,1.851266 -0.513361,0.12902 -0.970992,0.15786 -1.83174,0.115436 z m 1.352939,-0.486144 c 0.130928,-0.02428 0.380406,-0.113953 0.554395,-0.199279 0.538428,-0.264051 0.897533,-0.751948 1.121961,-1.524347 0.145504,-0.500772 0.173146,-1.756964 0.0516,-2.345033 -0.21168,-1.024175 -0.628153,-1.450859 -1.622489,-1.662269 -0.24372,-0.05182 -0.471114,-0.05918 -1.071709,-0.0347 l -0.762349,0.03108 0.0019,2.414258 c 0.0011,1.327842 0.01867,2.500931 0.03913,2.606864 0.111355,0.576401 0.817204,0.874809 1.687531,0.713428 z"
     id="path2800" />
  <path
     style="fill:#000080;stroke-width:0.0441942"
     d="m 97.093522,60.548102 c 0.03712,-0.07178 0.156653,-0.191849 0.265638,-0.266833 0.343579,-0.236389 0.342639,-0.202408 0.02998,-1.083173 L 97.216567,58.71196 95.984439,58.70029 94.752312,58.68862 94.5361,59.331823 c -0.250746,0.745937 -0.24528,0.808092 0.08386,0.953686 0.153983,0.06811 0.198643,0.111181 0.198643,0.191559 0,0.05703 -0.03146,0.11576 -0.06991,0.130514 -0.09115,0.03498 -1.713583,0.03498 -1.804732,0 -0.03845,-0.01475 -0.06991,-0.05359 -0.06991,-0.08631 0,-0.122754 0.105402,-0.284613 0.18534,-0.284613 0.148356,0 0.522999,-0.220861 0.605911,-0.357198 0.156457,-0.257274 1.869267,-4.522999 1.915125,-4.769589 0.0914,-0.491478 -0.02935,-0.689804 -0.492061,-0.808221 -0.124073,-0.03175 -0.248095,-0.08024 -0.275604,-0.107749 -0.07154,-0.07154 0.0887,-0.331487 0.228327,-0.370409 0.178566,-0.04977 1.718487,-0.0442 1.813343,0.0066 0.04702,0.02516 0.08548,0.07402 0.08548,0.108575 0,0.238885 1.941819,5.238288 2.261799,5.823226 0.07089,0.129596 0.159198,0.213859 0.285818,0.272734 0.164718,0.07659 0.183235,0.101146 0.183294,0.243068 3.7e-5,0.08683 -0.0202,0.212561 -0.04496,0.279405 l -0.04502,0.121534 h -1.277404 -1.277404 z m -0.242539,-2.5322 c -0.001,-0.103722 -0.95695,-2.601902 -0.995899,-2.60266 -0.02136,-4.15e-4 -0.233587,0.522865 -0.471624,1.162846 -0.238037,0.63998 -0.462348,1.238178 -0.49847,1.329328 l -0.06567,0.165728 h 1.016109 c 0.783716,0 1.015982,-0.01263 1.015559,-0.05524 z"
     id="path2839" />
  <path
     style="fill:#000080;stroke-width:0.0441942"
     d="m 101.13837,60.640442 c 0,-0.02169 0.0299,-0.111121 0.0666,-0.198738 0.0463,-0.110825 0.10346,-0.16815 0.18782,-0.188376 0.0667,-0.01599 0.17752,-0.05743 0.24628,-0.0921 0.25087,-0.126469 0.25064,-0.123719 0.25064,-2.99144 v -2.627765 l -1.19174,-0.01426 c -0.987569,-0.01181 -1.202867,-0.02561 -1.25674,-0.08055 -0.05737,-0.0585 -0.03805,-0.11424 0.16422,-0.474062 0.126076,-0.224274 0.25156,-0.408232 0.278853,-0.408796 0.02729,-5.64e-4 0.146617,0.04372 0.265167,0.09841 0.21457,0.09899 0.22685,0.09949 2.73461,0.110406 1.38548,0.006 2.56604,0.02189 2.62346,0.03523 0.0942,0.02189 0.098,0.03163 0.0388,0.09952 -0.0361,0.04139 -0.0984,0.144859 -0.13854,0.229933 -0.0401,0.08507 -0.11108,0.204398 -0.15772,0.265165 l -0.0848,0.110485 -1.01906,0.01404 -1.01906,0.01404 v 2.728605 c 0,2.113767 0.0125,2.745357 0.0553,2.802954 0.0304,0.04089 0.19445,0.119271 0.3646,0.174175 0.30508,0.09844 0.30936,0.101967 0.30936,0.254505 v 0.154679 l -1.35897,0.01169 c -0.77593,0.0067 -1.35897,-0.0052 -1.35897,-0.02775 z"
     id="path2878" />
  <path
     style="fill:#000080;stroke-width:0.0441942"
     d="m 106.48603,60.601261 c 3e-4,-0.141539 0.1687,-0.364591 0.2754,-0.364767 0.1839,-3.1e-4 0.37908,-0.15856 0.43034,-0.34893 0.032,-0.118712 0.0435,-1.013409 0.0354,-2.737439 -0.0114,-2.406819 -0.0169,-2.566453 -0.0927,-2.650119 -0.0443,-0.04897 -0.13382,-0.101863 -0.19887,-0.117549 -0.4647,-0.112049 -0.44974,-0.102543 -0.44974,-0.285763 0,-0.114564 0.0229,-0.17913 0.0699,-0.197171 0.0385,-0.01475 0.64501,-0.02683 1.34792,-0.02683 h 1.27802 v 0.189339 c 0,0.188812 -7.7e-4,0.189703 -0.27622,0.320407 -0.25711,0.122008 -0.27978,0.144819 -0.3279,0.329943 -0.0576,0.221497 -0.0808,2.343785 -0.0256,2.340044 0.0182,-0.0012 0.61033,-0.71221 1.31579,-1.579942 l 1.28264,-1.577694 0.56521,-0.01239 0.56521,-0.01239 -0.0138,0.165677 c -0.0128,0.153476 -0.0377,0.180453 -0.33847,0.366316 -0.29115,0.179931 -0.42229,0.316656 -1.27058,1.324703 -0.52025,0.618235 -0.94591,1.13691 -0.94591,1.15261 0,0.08009 2.165,2.652575 2.59504,3.083461 0.2742,0.274737 0.49855,0.535662 0.49855,0.579833 0,0.07354 -0.0624,0.08219 -0.74025,0.102551 -0.60491,0.01817 -0.7672,0.0099 -0.88763,-0.04527 -0.19057,-0.08729 -0.61211,-0.594122 -1.70878,-2.054507 -0.48614,-0.647364 -0.90013,-1.178 -0.91998,-1.179191 -0.0199,-0.0012 -0.0298,0.592401 -0.0221,1.319093 0.0128,1.205031 0.0211,1.329086 0.0946,1.410239 0.0443,0.04894 0.13382,0.101814 0.19888,0.117501 0.41254,0.09947 0.44973,0.116427 0.44973,0.205009 0,0.04927 -0.0206,0.128057 -0.0457,0.175073 -0.0437,0.08164 -0.10624,0.08548 -1.39212,0.08548 -1.25286,0 -1.34636,-0.0054 -1.3462,-0.07734 z"
     id="path2917" />
  <path
     style="fill:#000080;stroke-width:0.0441942"
     d="m 115.72336,60.678285 c -1.11994,-0.302322 -1.95772,-1.057562 -2.3424,-2.111609 -0.71979,-1.972262 0.41438,-4.123541 2.45197,-4.650873 0.43824,-0.113418 1.28207,-0.124999 1.71932,-0.0236 1.18226,0.274186 2.0938,1.128357 2.45518,2.300685 0.0562,0.18228 0.10606,0.494317 0.1214,0.759618 0.0988,1.709023 -0.89777,3.160597 -2.52813,3.68229 -0.45641,0.146042 -1.41516,0.16825 -1.87734,0.04349 z m 1.82537,-0.699668 c 0.3509,-0.172748 0.57462,-0.414213 0.81903,-0.883993 0.31118,-0.59814 0.38223,-0.930932 0.3789,-1.774781 -0.002,-0.594757 -0.0207,-0.801419 -0.0997,-1.120884 -0.26701,-1.080305 -0.94905,-1.776022 -1.79429,-1.830267 -0.83283,-0.05345 -1.48276,0.344041 -1.88002,1.1498 -0.2536,0.514394 -0.32549,0.888086 -0.32953,1.712963 -0.004,0.811474 0.0547,1.091414 0.36017,1.717202 0.24065,0.493058 0.53896,0.820455 0.90469,0.99291 0.35872,0.169146 0.53679,0.204315 0.96911,0.191396 0.3271,-0.0098 0.4225,-0.0317 0.67163,-0.154346 z"
     id="path2956" />
  <path
     style="fill:#000080;stroke-width:0.0441942"
     d="m 123.29932,60.630477 c -0.0164,-0.02647 -0.0548,-0.14082 -0.0855,-0.254116 -0.1791,-0.661441 -1.76368,-5.572844 -1.83362,-5.683314 -0.0463,-0.07309 -0.16798,-0.173215 -0.27044,-0.222502 -0.26002,-0.125074 -0.30383,-0.209729 -0.18851,-0.364235 l 0.0919,-0.123127 1.26696,-0.01173 c 1.41631,-0.01311 1.40182,-0.01646 1.21779,0.281312 -0.0688,0.111339 -0.17212,0.19336 -0.33333,0.264656 -0.27799,0.122941 -0.34139,0.223076 -0.31517,0.497772 0.0187,0.196003 1.18144,4.219611 1.23478,4.272951 0.0141,0.01409 0.42054,-1.153873 0.90323,-2.595477 l 0.87761,-2.621097 0.3653,-0.01285 c 0.26914,-0.0095 0.36971,0.0022 0.38207,0.0442 0.81111,2.75809 1.55552,5.196141 1.57905,5.17164 0.017,-0.01775 0.33333,-0.980174 0.70285,-2.138725 l 0.67187,-2.106457 -0.0828,-0.169543 c -0.077,-0.157695 -0.13388,-0.19945 -0.50264,-0.369053 -0.0851,-0.03914 -0.10459,-0.171986 -0.0473,-0.322669 l 0.0451,-0.118638 h 0.88791 0.88791 l -0.014,0.121534 c -0.0112,0.09704 -0.0598,0.143801 -0.24117,0.23202 -0.30847,0.150023 -0.36799,0.207404 -0.48126,0.464039 -0.0537,0.121534 -0.47805,1.420246 -0.94311,2.886026 -0.46507,1.465781 -0.87627,2.724392 -0.91377,2.796914 l -0.0682,0.131858 -0.40411,-0.01268 -0.40411,-0.01268 -0.0373,-0.154679 c -0.0698,-0.289668 -1.46866,-4.64039 -1.49184,-4.640008 -0.0127,2.1e-4 -0.36064,1.026461 -0.77321,2.280559 -0.41258,1.254097 -0.78517,2.337788 -0.82799,2.408201 -0.076,0.125004 -0.0867,0.128025 -0.45155,0.128025 -0.2218,0 -0.38578,-0.01956 -0.40343,-0.04812 z"
     id="path3032" />
  <path
     style="fill:#000080;stroke-width:0.0441942"
     d="m 132.78352,60.711746 c 10e-4,-0.03038 0.036,-0.1241 0.0773,-0.208259 0.0532,-0.108168 0.11407,-0.16097 0.2078,-0.180151 0.4248,-0.08694 0.46404,-0.199512 0.46404,-1.331296 v -0.893905 l -0.71156,-1.482952 c -0.39136,-0.815623 -0.77159,-1.609533 -0.84496,-1.764245 -0.0904,-0.19061 -0.17639,-0.304589 -0.26676,-0.353553 -0.0733,-0.03974 -0.18285,-0.113159 -0.24335,-0.163146 -0.10732,-0.08867 -0.10822,-0.09433 -0.037,-0.23202 l 0.073,-0.141133 h 1.21421 1.2142 v 0.152557 c 0,0.130734 -0.028,0.171839 -0.19592,0.287357 -0.21862,0.150409 -0.26587,0.246484 -0.22431,0.456011 0.038,0.191636 1.22322,2.600283 1.27157,2.584165 0.0584,-0.01946 1.4931,-2.638606 1.51676,-2.768939 0.0276,-0.152338 -0.006,-0.192457 -0.27992,-0.330449 -0.12761,-0.06436 -0.23202,-0.137566 -0.23202,-0.16267 0,-0.02511 0.0303,-0.104319 0.0674,-0.176032 l 0.0674,-0.130388 h 0.70597 0.70597 v 0.179032 c 0,0.165682 -0.0123,0.183954 -0.16572,0.245048 -0.42851,0.170693 -0.28347,-0.03596 -1.4042,2.000696 -0.51702,0.939569 -0.82841,1.5537 -0.8582,1.692603 -0.0257,0.1199 -0.0468,0.641133 -0.0468,1.158296 0,1.093833 -0.01,1.068472 0.47509,1.202971 0.15192,0.04212 0.27621,0.0942 0.27621,0.115726 0,0.02153 -0.0303,0.09782 -0.0674,0.169531 l -0.0674,0.130388 h -1.34679 c -1.0491,0 -1.34632,-0.01221 -1.34466,-0.05524 z"
     id="path3071" />
  <path
     style="fill:#000080;stroke-width:0.0441942"
     d="m 140.93522,60.767465 c -0.47153,-0.02676 -0.64887,-0.05766 -0.98921,-0.172354 -2.07084,-0.697842 -3.05944,-2.691322 -2.28524,-4.608066 0.41175,-1.019369 1.28755,-1.779302 2.39057,-2.074297 0.68462,-0.183097 1.88032,-0.110784 2.74004,0.165713 0.57016,0.183373 0.55242,0.161101 0.55242,0.693532 0,0.418796 -0.008,0.463024 -0.10228,0.551409 -0.0563,0.05285 -0.12066,0.09609 -0.14311,0.09609 -0.0224,0 -0.20138,-0.168336 -0.39763,-0.37408 -0.48367,-0.507086 -0.7866,-0.654227 -1.39828,-0.679178 -0.69722,-0.02844 -1.30809,0.16337 -1.70632,0.535781 -0.52791,0.493674 -0.83167,1.631675 -0.71604,2.682523 0.13687,1.243859 0.71569,2.093377 1.6609,2.437656 0.39188,0.142735 1.20744,0.143649 1.61794,0.0018 0.27356,-0.09452 0.63038,-0.303969 0.93436,-0.548449 l 0.1252,-0.100687 0.0808,0.09944 c 0.0444,0.05469 0.10244,0.09944 0.12893,0.09944 0.0823,0 0.0553,0.08201 -0.17452,0.529454 -0.24596,0.478821 -0.24832,0.480628 -0.77169,0.590528 -0.43113,0.09053 -0.87673,0.111772 -1.5468,0.07374 z"
     id="path3110" />
  <path
     style="fill:#000080;stroke-width:0.0441942"
     d="m 144.82154,60.665215 c -0.0319,-0.08318 0.0973,-0.368796 0.18151,-0.401099 0.0394,-0.0151 0.10939,-0.02746 0.15563,-0.02746 0.0462,0 0.14903,-0.05802 0.22841,-0.128939 l 0.14432,-0.128939 0.012,-2.689695 c 0.01,-2.167514 7.5e-4,-2.705122 -0.0461,-2.769162 -0.032,-0.04371 -0.19647,-0.124211 -0.36558,-0.178899 -0.29217,-0.09448 -0.3082,-0.106735 -0.32181,-0.2461 -0.009,-0.08748 0.009,-0.16164 0.0442,-0.18377 0.0892,-0.05653 2.63245,-0.04852 2.66763,0.0084 0.0689,0.111543 -0.0834,0.318391 -0.30776,0.417896 -0.40991,0.181799 -0.39912,0.146578 -0.41428,1.351751 l -0.0133,1.056113 h 1.44074 1.44074 l -0.0132,-1.078208 c -0.0152,-1.239361 -0.01,-1.222377 -0.41242,-1.312459 -0.31183,-0.06978 -0.3477,-0.09619 -0.31385,-0.231052 0.0634,-0.252505 0.054,-0.250902 1.46487,-0.250902 0.75383,0 1.30863,0.01725 1.3234,0.04116 0.014,0.02264 -0.008,0.11112 -0.0487,0.196628 -0.0575,0.120668 -0.12739,0.177082 -0.31201,0.252017 -0.41267,0.167488 -0.38871,-0.01788 -0.38871,3.007944 0,2.488947 0.004,2.640929 0.0806,2.725016 0.0443,0.04898 0.13382,0.101887 0.19887,0.117574 0.41255,0.09947 0.44974,0.116427 0.44974,0.205009 0,0.04927 -0.0206,0.128057 -0.0457,0.175073 -0.0437,0.08164 -0.10623,0.08548 -1.39211,0.08548 -1.48072,0 -1.42338,0.01196 -1.27928,-0.26672 0.0395,-0.07647 0.11667,-0.141631 0.18783,-0.158687 0.22806,-0.05467 0.37086,-0.155224 0.43357,-0.305313 0.0493,-0.118 0.0628,-0.421472 0.0628,-1.411278 V 57.27564 h -1.43631 -1.43631 l 0.003,1.336874 c 0.002,0.73528 0.0183,1.376648 0.0369,1.425262 0.023,0.06001 0.13901,0.12386 0.3615,0.198874 0.32103,0.108238 0.32796,0.113739 0.34106,0.270451 0.0113,0.135239 -0.002,0.164179 -0.0884,0.187222 -0.056,0.01499 -0.66421,0.02753 -1.35164,0.02786 -0.98661,4.78e-4 -1.25452,-0.01152 -1.27196,-0.05698 z"
     id="path3149" />
</svg>
